# Blender 3.2.1
# www.blender.org
mtllib car.000.mtl
o Car.000
v -8.873269 0.121869 -0.298744
v -8.974107 0.129830 0.319799
v -8.893336 0.054842 -0.213424
v -8.945129 0.121869 -0.298744
v -8.864199 0.185020 0.147144
v -8.878545 0.129830 0.319799
v -9.000000 0.260076 -0.123346
v -8.852652 0.260265 -0.108761
v -9.000000 0.185020 0.147144
v -8.852652 0.000000 0.204611
v -9.000000 0.175292 0.133321
v -8.852652 0.000000 0.145868
v -9.000000 0.261144 0.079801
v -8.852652 0.185848 0.113723
v -9.000000 0.183512 -0.184487
v -8.852652 0.000000 -0.193163
v -8.864199 0.261144 0.079801
v -8.864924 0.183512 -0.184487
v -8.852652 0.184197 -0.156433
v -9.000000 0.173402 -0.175798
v -8.852652 0.000000 -0.133074
v -8.974107 0.084726 0.319799
v -8.945129 0.089590 -0.298744
v -8.873269 0.089590 -0.298744
v -8.878545 0.084726 0.319799
v -8.852652 0.055390 0.226333
v -9.000000 0.055390 0.226333
v -8.852652 0.054992 0.114474
v -9.000000 0.054992 0.114474
v -8.852652 0.054842 -0.213424
v -9.000000 0.054842 -0.213424
v -9.000000 0.054992 -0.114590
v -8.852652 0.054992 -0.114590
v -8.893336 0.000000 0.204611
v -8.893336 0.054992 0.114474
v -8.893336 0.000000 0.145868
v -8.893336 0.000000 -0.193163
v -8.893336 0.055390 0.226333
v -8.893336 0.000000 -0.133074
v -8.893336 0.054992 -0.114590
v -9.000000 0.175222 0.155812
v -8.852652 0.175222 0.155812
v -9.000000 0.270942 0.071133
v -8.852652 0.260265 0.065340
v -9.000000 0.055390 0.319799
v -9.000000 0.159167 0.319799
v -8.852652 0.159167 0.319799
v -8.852652 0.055390 0.319799
v -9.000000 0.164632 -0.298744
v -8.852652 0.164632 -0.298744
v -9.000000 0.054842 -0.298744
v -8.852652 0.054842 -0.298744
v -8.852652 0.173402 -0.175798
v -8.852652 0.175292 0.133321
v -8.864924 0.260076 -0.123346
v -8.852652 0.270942 0.071133
v -9.000000 0.270942 -0.114670
v -8.852652 0.270942 -0.114670
v -8.852652 0.172646 -0.193163
v -9.000000 0.172646 -0.193163
v -9.126731 0.121869 -0.298744
v -9.025893 0.129830 0.319799
v -9.106664 0.054842 -0.213424
v -9.054871 0.121869 -0.298744
v -9.135801 0.185020 0.147144
v -9.121455 0.129830 0.319799
v -9.147348 0.260265 -0.108761
v -9.147348 0.000000 0.204611
v -9.147348 0.000000 0.145868
v -9.147348 0.185848 0.113723
v -9.147348 0.000000 -0.193163
v -9.135801 0.261144 0.079801
v -9.135076 0.183512 -0.184487
v -9.147348 0.184197 -0.156433
v -9.147348 0.000000 -0.133074
v -9.025893 0.084726 0.319799
v -9.054871 0.089590 -0.298744
v -9.126731 0.089590 -0.298744
v -9.121455 0.084726 0.319799
v -9.147348 0.055390 0.226333
v -9.147348 0.054992 0.114474
v -9.147348 0.054842 -0.213424
v -9.147348 0.054992 -0.114590
v -9.106664 0.000000 0.204611
v -9.106664 0.054992 0.114474
v -9.106664 0.000000 0.145868
v -9.106664 0.000000 -0.193163
v -9.106664 0.055390 0.226333
v -9.106664 0.000000 -0.133074
v -9.106664 0.054992 -0.114590
v -9.147348 0.175222 0.155812
v -9.147348 0.260265 0.065340
v -9.147348 0.159167 0.319799
v -9.147348 0.055390 0.319799
v -9.147348 0.164632 -0.298744
v -9.147348 0.054842 -0.298744
v -9.147348 0.173402 -0.175798
v -9.147348 0.175292 0.133321
v -9.135076 0.260076 -0.123346
v -9.147348 0.270942 0.071133
v -9.147348 0.270942 -0.114670
v -9.147348 0.172646 -0.193163
vn -1.0000 -0.0000 -0.0000
vn 1.0000 -0.0000 -0.0000
vn -0.0000 -0.0000 1.0000
vn -0.0000 -0.3651 0.9310
vn -0.0000 0.9952 0.0974
vn -0.0000 -1.0000 -0.0000
vn -0.0000 0.6626 0.7490
vn -0.0000 0.9971 -0.0757
vn -0.0000 -0.3186 0.9479
vn -0.0000 1.0000 -0.0000
vn -0.0000 -0.3465 -0.9380
vn -0.0000 -0.4958 -0.8684
vn -0.0000 -1.0000 0.0036
vn -0.0000 0.6240 -0.7814
vn -0.0000 -1.0000 0.0015
vn -0.0000 -0.0000 -1.0000
vt 0.737265 0.615813
vt 0.408077 0.683811
vt 0.905500 0.676063
vt 0.127632 0.648835
vt 0.021822 0.849830
vt 0.921513 0.456906
vt 0.245832 0.954635
vt 0.737265 0.673902
vt 0.349988 0.683811
vt 0.650020 0.736250
vt 0.238186 0.157720
vt 0.905500 0.598816
vt 0.050385 0.648835
vt 0.128410 0.411885
vt 0.832086 0.843305
vt 0.842937 0.918241
vt 0.695358 0.372743
vt 0.650020 0.846025
vt 0.128410 0.157720
vt 0.142186 0.939098
vt 0.511991 0.851970
vt 0.544533 0.374107
vt 0.142354 0.891614
vt 0.511991 0.899454
vt 0.128410 0.239877
vt 0.732177 0.846025
vt 0.904190 0.738768
vt 0.755595 0.192926
vt 0.128410 0.491088
vt 0.752883 0.843305
vt 0.259858 0.884852
vt 0.069083 0.816943
vt 0.732177 0.736250
vt 0.238186 0.239877
vt 0.752883 0.952493
vt 0.237598 0.491088
vt 0.904190 0.957152
vt 0.756830 0.411307
vt 0.545946 0.124230
vt 0.259784 0.933426
vt 0.117656 0.816943
vt 0.869040 0.676063
vt 0.127632 0.685295
vt 0.763358 0.673902
vt 0.349988 0.709904
vt 0.763358 0.615814
vt 0.408077 0.709904
vt 0.869040 0.598816
vt 0.050385 0.685295
vt 0.906941 0.299398
vt 0.861093 0.101946
vt 0.511991 0.803876
vt 0.186897 0.956816
vt 0.641490 0.449249
vt 0.959717 0.299398
vt 0.959717 0.232443
vt 0.906941 0.339463
vt 0.861373 0.192367
vt 0.186897 0.866395
vt 0.511991 0.950641
vt 0.641770 0.358827
vt 0.959717 0.339463
vt 0.959717 0.192378
vt 0.906941 0.456906
vt 0.861373 0.457423
vt 0.304214 0.868542
vt 0.021822 0.816943
vt 0.641770 0.093771
vt 0.959717 0.456906
vt 0.959717 0.074934
vt 0.641685 0.173664
vt 0.959717 0.421507
vt 0.959717 0.110334
vt 0.861288 0.377530
vt 0.906941 0.421507
vt 0.304214 0.948435
vt 0.164553 0.816943
vt 0.083278 0.889274
vt 0.544878 0.851970
vt 0.544878 0.950641
vt 0.921513 0.339463
vt 0.127990 0.961978
vt 0.083447 0.936758
vt 0.544878 0.899454
vt 0.069083 0.849830
vt 0.201476 0.938325
vt 0.544878 0.803876
vt 0.127990 0.871556
vt 0.921513 0.299398
vt 0.201402 0.889752
vt 0.117656 0.849830
vt 0.164553 0.849830
vt 0.245832 0.874743
vt 0.921513 0.421507
vt 0.544597 0.392287
vt 0.128410 0.147145
vt 0.764200 0.158907
vt 0.247519 0.147145
vt 0.467191 0.323873
vt 0.128410 0.250452
vt 0.843798 0.777509
vt 0.695422 0.232009
vt 0.641525 0.524803
vt 0.148563 0.709009
vt 0.959717 0.265920
vt 0.280073 0.626671
vt 0.557637 0.524841
vt 0.148563 0.625121
vt 0.128410 0.013952
vt 0.280073 0.710559
vt 0.777239 0.026353
vt 0.247519 0.013952
vt 0.029454 0.625121
vt 0.861127 0.026392
vt 0.906941 0.265920
vt 0.029454 0.709009
vt 0.552990 0.024844
vt 0.128410 0.587919
vt 0.305634 0.649244
vt 0.247519 0.587919
vt 0.772593 0.526351
vt 0.424742 0.649244
vt 0.641738 0.024803
vt 0.959717 0.487466
vt 0.305634 0.737992
vt 0.959717 0.044375
vt 0.305634 0.560495
vt 0.861342 0.526391
vt 0.906941 0.487466
vt 0.424742 0.737992
vt 0.765549 0.426964
vt 0.764136 0.177088
vt 0.832086 0.952493
vt 0.237598 0.411885
vt 0.247519 0.250452
vt 0.686794 0.227322
vt 0.467123 0.173679
vt 0.128410 0.400645
vt 0.686726 0.377515
vt 0.247519 0.400645
vt 0.766154 0.441002
vt 0.247519 0.502328
vt 0.546551 0.110193
vt 0.128410 0.502328
vt 0.789834 0.672953
vt 0.408077 0.614677
vt 0.971217 0.599057
vt 0.259142 0.686845
vt 0.185900 0.817052
vt 0.415965 0.871883
vt 0.921513 0.074934
vt 0.789834 0.614865
vt 0.349988 0.614677
vt 0.650020 0.955801
vt 0.018635 0.157720
vt 0.971217 0.676305
vt 0.181895 0.686845
vt 0.917705 0.779229
vt 0.274754 0.189303
vt 0.394118 0.815860
vt 0.426730 0.879998
vt 0.426899 0.927482
vt 0.441602 0.815860
vt 0.978958 0.958703
vt 0.334991 0.369119
vt 0.318239 0.930574
vt 0.233160 0.849940
vt 0.732177 0.955801
vt 0.018635 0.239877
vt 0.752883 0.734117
vt 0.019222 0.491088
vt 0.978958 0.740318
vt 0.336227 0.150739
vt 0.318166 0.882001
vt 0.281734 0.849940
vt 0.934757 0.599057
vt 0.259142 0.650385
vt 0.815927 0.614865
vt 0.349988 0.588584
vt 0.408077 0.588584
vt 0.815927 0.672953
vt 0.934757 0.676305
vt 0.181895 0.650385
vt 0.906941 0.232443
vt 0.346024 0.815860
vt 0.440489 0.460100
vt 0.471442 0.862280
vt 0.906941 0.192378
vt 0.471442 0.952702
vt 0.440769 0.369678
vt 0.492789 0.815860
vt 0.362596 0.946885
vt 0.906941 0.074934
vt 0.440769 0.104623
vt 0.185900 0.849940
vt 0.906941 0.110334
vt 0.440684 0.184515
vt 0.362596 0.866992
vt 0.328630 0.849940
vt 0.394118 0.848747
vt 0.022820 0.940138
vt 0.067532 0.867434
vt 0.492789 0.848747
vt 0.921513 0.192378
vt 0.022989 0.892654
vt 0.441602 0.848747
vt 0.233160 0.817052
vt 0.371609 0.888193
vt 0.346024 0.848747
vt 0.067532 0.957856
vt 0.921513 0.232443
vt 0.281734 0.817052
vt 0.371535 0.936767
vt 0.328630 0.817052
vt 0.415965 0.951776
vt 0.921513 0.110334
vt 0.343596 0.403138
vt 0.009301 0.147145
vt 0.274818 0.330036
vt 0.918565 0.919961
vt 0.356636 0.535692
vt 0.009301 0.013952
vt 0.160964 0.710559
vt 0.440524 0.535654
vt 0.906941 0.265920
vt 0.160964 0.626671
vt 0.009301 0.587919
vt 0.351990 0.035695
vt 0.424742 0.649244
vt 0.440738 0.035655
vt 0.906941 0.044375
vt 0.424743 0.560495
vt 0.344946 0.135081
vt 0.343532 0.384958
vt 0.832086 0.734117
vt 0.019222 0.411886
vt 0.009301 0.250452
vt 0.266190 0.334723
vt 0.266122 0.184530
vt 0.009301 0.400646
vt 0.345550 0.121044
vt 0.009301 0.502328
s 0
usemtl car.000
f 31/68/1 49/117/1 51/123/1
f 53/131/2 59/141/2 58/139/2
f 26/51/2 47/111/2 48/114/2
f 6/12/3 22/42/3 25/48/3
f 26/52/4 34/79/4 10/21/4
f 41/96/5 47/112/5 42/98/5
f 42/97/2 54/132/2 56/136/2
f 12/24/6 34/79/6 36/84/6
f 28/58/2 42/97/2 26/51/2
f 46/107/1 27/54/1 45/103/1
f 33/74/2 54/132/2 28/58/2
f 38/89/6 45/105/6 27/55/6
f 5/10/7 13/26/7 9/18/7
f 41/95/1 29/61/1 27/54/1
f 49/118/8 59/142/8 50/120/8
f 35/81/6 33/75/6 28/57/6
f 50/121/2 30/65/2 52/128/2
f 20/39/1 31/68/1 32/71/1
f 11/22/1 32/71/1 29/61/1
f 19/37/2 44/101/2 14/27/2
f 16/32/6 39/91/6 37/85/6
f 30/65/2 53/131/2 33/74/2
f 16/31/2 33/76/2 21/40/2
f 21/41/9 40/92/9 39/91/9
f 57/138/10 56/135/10 58/140/10
f 30/64/6 3/6/6 52/129/6
f 38/89/6 26/50/6 48/115/6
f 29/62/6 40/94/6 35/81/6
f 12/23/2 26/53/2 10/20/2
f 38/88/1 36/83/1 34/78/1
f 3/6/6 51/124/6 52/129/6
f 30/67/11 37/85/11 3/5/11
f 28/60/12 36/84/12 35/80/12
f 40/93/1 37/86/1 39/90/1
f 38/89/13 29/62/13 35/81/13
f 15/30/14 55/133/14 18/35/14
f 11/22/1 41/95/1 43/99/1
f 20/39/1 43/99/1 57/137/1
f 40/94/15 31/69/15 3/6/15
f 60/143/1 20/39/1 57/137/1
f 4/8/16 24/46/16 23/44/16
f 5/11/7 41/96/7 42/98/7
f 17/34/7 42/98/7 56/135/7
f 17/34/7 43/100/7 13/25/7
f 2/4/3 45/104/3 22/43/3
f 6/13/3 48/116/3 47/113/3
f 22/43/3 48/116/3 25/49/3
f 6/13/3 46/108/3 2/4/3
f 4/9/16 50/122/16 1/2/16
f 4/9/16 51/125/16 49/119/16
f 23/45/16 52/130/16 51/125/16
f 1/2/16 52/130/16 24/47/16
f 14/28/2 53/131/2 19/38/2
f 19/38/2 58/139/2 8/17/2
f 8/17/2 56/136/2 44/102/2
f 14/28/2 56/136/2 54/132/2
f 55/134/14 57/138/14 58/140/14
f 55/134/14 59/142/14 18/36/14
f 18/36/14 60/144/14 15/29/14
f 97/233/1 101/239/1 102/241/1
f 80/186/1 93/221/1 91/217/1
f 76/176/3 66/156/3 79/182/3
f 84/200/4 80/185/4 68/160/4
f 93/222/5 41/96/5 91/218/5
f 91/217/1 100/238/1 98/234/1
f 84/200/6 69/163/6 86/206/6
f 81/190/1 91/217/1 98/234/1
f 83/197/1 98/234/1 97/233/1
f 45/105/6 88/211/6 27/56/6
f 13/26/7 65/154/7 9/18/7
f 102/242/8 49/118/8 95/227/8
f 83/196/6 85/204/6 81/188/6
f 82/194/1 95/228/1 96/230/1
f 92/220/1 74/172/1 70/164/1
f 89/212/6 71/167/6 87/207/6
f 82/194/1 97/233/1 102/241/1
f 71/166/1 83/198/1 82/192/1
f 90/214/9 75/175/9 89/212/9
f 100/237/10 57/138/10 101/240/10
f 82/193/6 96/231/6 63/151/6
f 88/211/6 94/225/6 80/184/6
f 90/216/6 29/63/6 85/204/6
f 69/162/1 80/187/1 81/189/1
f 88/210/2 86/205/2 85/202/2
f 63/151/6 51/126/6 31/70/6
f 87/207/11 82/195/11 63/149/11
f 86/206/12 81/191/12 85/203/12
f 90/215/2 87/208/2 63/150/2
f 29/63/13 88/211/13 85/204/13
f 99/235/14 15/30/14 73/170/14
f 31/70/15 90/216/15 63/151/15
f 78/181/16 64/152/16 77/178/16
f 65/155/7 41/96/7 9/19/7
f 100/237/7 65/155/7 72/169/7
f 43/100/7 72/169/7 13/25/7
f 45/106/3 62/148/3 76/177/3
f 66/157/3 94/226/3 79/183/3
f 94/226/3 76/177/3 79/183/3
f 46/110/3 66/157/3 62/148/3
f 95/229/16 64/153/16 61/146/16
f 64/153/16 51/127/16 77/179/16
f 77/179/16 96/232/16 78/180/16
f 96/232/16 61/146/16 78/180/16
f 97/233/1 70/165/1 74/173/1
f 101/239/1 74/173/1 67/159/1
f 100/238/1 67/159/1 92/219/1
f 70/165/1 100/238/1 92/219/1
f 99/236/14 57/138/14 7/14/14
f 102/242/14 99/236/14 73/171/14
f 60/144/14 73/171/14 15/29/14
f 31/68/1 60/143/1 49/117/1
f 26/51/2 42/97/2 47/111/2
f 6/12/3 2/3/3 22/42/3
f 26/52/4 38/87/4 34/79/4
f 41/96/5 46/109/5 47/112/5
f 12/24/6 10/21/6 34/79/6
f 28/58/2 54/132/2 42/97/2
f 46/107/1 41/95/1 27/54/1
f 33/74/2 53/131/2 54/132/2
f 38/89/6 48/115/6 45/105/6
f 5/10/7 17/33/7 13/26/7
f 41/95/1 11/22/1 29/61/1
f 49/118/8 60/144/8 59/142/8
f 35/81/6 40/94/6 33/75/6
f 50/121/2 59/141/2 30/65/2
f 20/39/1 60/143/1 31/68/1
f 11/22/1 20/39/1 32/71/1
f 19/37/2 8/16/2 44/101/2
f 16/32/6 21/41/6 39/91/6
f 30/65/2 59/141/2 53/131/2
f 16/31/2 30/66/2 33/76/2
f 21/41/9 33/77/9 40/92/9
f 57/138/10 43/100/10 56/135/10
f 29/62/6 32/72/6 40/94/6
f 12/23/2 28/59/2 26/53/2
f 38/88/1 35/82/1 36/83/1
f 3/6/6 31/69/6 51/124/6
f 30/67/11 16/32/11 37/85/11
f 28/60/12 12/24/12 36/84/12
f 40/93/1 3/7/1 37/86/1
f 38/89/13 27/55/13 29/62/13
f 15/30/14 7/15/14 55/133/14
f 20/39/1 11/22/1 43/99/1
f 40/94/15 32/72/15 31/69/15
f 4/8/16 1/1/16 24/46/16
f 5/11/7 9/19/7 41/96/7
f 17/34/7 5/11/7 42/98/7
f 17/34/7 56/135/7 43/100/7
f 2/4/3 46/108/3 45/104/3
f 6/13/3 25/49/3 48/116/3
f 22/43/3 45/104/3 48/116/3
f 6/13/3 47/113/3 46/108/3
f 4/9/16 49/119/16 50/122/16
f 4/9/16 23/45/16 51/125/16
f 23/45/16 24/47/16 52/130/16
f 1/2/16 50/122/16 52/130/16
f 14/28/2 54/132/2 53/131/2
f 19/38/2 53/131/2 58/139/2
f 8/17/2 58/139/2 56/136/2
f 14/28/2 44/102/2 56/136/2
f 55/134/14 7/14/14 57/138/14
f 55/134/14 58/140/14 59/142/14
f 18/36/14 59/142/14 60/144/14
f 80/186/1 94/224/1 93/221/1
f 76/176/3 62/147/3 66/156/3
f 84/200/4 88/209/4 80/185/4
f 93/222/5 46/109/5 41/96/5
f 84/200/6 68/160/6 69/163/6
f 81/190/1 80/186/1 91/217/1
f 83/197/1 81/190/1 98/234/1
f 45/105/6 94/225/6 88/211/6
f 13/26/7 72/168/7 65/154/7
f 102/242/8 60/144/8 49/118/8
f 83/196/6 90/216/6 85/204/6
f 82/194/1 102/241/1 95/228/1
f 92/220/1 67/158/1 74/172/1
f 89/212/6 75/175/6 71/167/6
f 82/194/1 83/197/1 97/233/1
f 71/166/1 75/174/1 83/198/1
f 90/214/9 83/199/9 75/175/9
f 100/237/10 43/100/10 57/138/10
f 90/216/6 32/73/6 29/63/6
f 69/162/1 68/161/1 80/187/1
f 88/210/2 84/201/2 86/205/2
f 63/151/6 96/231/6 51/126/6
f 87/207/11 71/167/11 82/195/11
f 86/206/12 69/163/12 81/191/12
f 90/215/2 89/213/2 87/208/2
f 29/63/13 27/56/13 88/211/13
f 99/235/14 7/15/14 15/30/14
f 31/70/15 32/73/15 90/216/15
f 78/181/16 61/145/16 64/152/16
f 65/155/7 91/218/7 41/96/7
f 100/237/7 91/218/7 65/155/7
f 43/100/7 100/237/7 72/169/7
f 45/106/3 46/110/3 62/148/3
f 66/157/3 93/223/3 94/226/3
f 94/226/3 45/106/3 76/177/3
f 46/110/3 93/223/3 66/157/3
f 95/229/16 49/119/16 64/153/16
f 64/153/16 49/119/16 51/127/16
f 77/179/16 51/127/16 96/232/16
f 96/232/16 95/229/16 61/146/16
f 97/233/1 98/234/1 70/165/1
f 101/239/1 97/233/1 74/173/1
f 100/238/1 101/239/1 67/159/1
f 70/165/1 98/234/1 100/238/1
f 99/236/14 101/240/14 57/138/14
f 102/242/14 101/240/14 99/236/14
f 60/144/14 102/242/14 73/171/14
