# Blender 3.2.0
# www.blender.org
mtllib road.002.mtl
o Road.002
v 5.000000 0.000000 -5.000000
v 5.000000 0.039286 -5.000000
v 5.000000 0.000000 -7.000000
v 5.000000 0.039286 -7.000000
v 7.000000 0.000000 -5.000000
v 7.000000 0.039286 -5.000000
v 7.000000 0.000000 -7.000000
v 7.000000 0.015460 -7.000000
v 6.740157 0.000000 -7.000000
v 5.259843 0.015460 -7.000000
v 5.259843 0.000000 -5.000000
v 5.259843 0.039286 -5.000000
v 5.259843 0.000000 -7.000000
v 5.250000 0.000000 -7.000000
v 5.250000 0.039286 -5.000000
v 5.250000 0.039286 -7.000000
v 5.250000 0.000000 -5.000000
v 6.740157 0.015460 -7.000000
v 6.740157 0.000000 -5.000000
v 6.740157 0.039286 -5.000000
v 6.750000 0.015460 -7.000000
v 6.750000 0.000000 -5.000000
v 6.750000 0.000000 -7.000000
v 6.750000 0.039286 -5.000000
v 5.000000 0.000000 -6.739481
v 5.000000 0.039286 -6.739481
v 7.000000 0.000000 -5.260519
v 7.000000 0.015460 -6.739481
v 5.259843 0.015460 -6.739481
v 5.250000 0.039286 -6.739481
v 6.740157 0.015460 -6.739481
v 6.750000 0.015460 -6.739481
v 5.000000 0.000000 -5.260519
v 7.000000 0.015460 -5.260519
v 5.259843 0.015460 -5.260519
v 5.250000 0.039286 -5.260519
v 6.740157 0.015460 -5.260519
v 6.750000 0.015460 -5.260519
v 5.000000 0.039286 -5.260519
v 5.000000 0.000000 -5.250000
v 7.000000 0.039286 -5.250000
v 5.259843 0.039286 -5.250000
v 5.250000 0.039286 -5.250000
v 6.740157 0.039286 -5.250000
v 6.750000 0.039286 -5.250000
v 5.000000 0.039286 -5.250000
v 7.000000 0.000000 -5.250000
v 7.000000 0.000000 -6.739481
v 5.000000 0.039286 -6.750000
v 7.000000 0.000000 -6.750000
v 5.000000 0.000000 -6.750000
v 7.000000 0.015460 -6.750000
v 5.259843 0.015460 -6.750000
v 5.250000 0.039286 -6.750000
v 6.740157 0.015460 -6.750000
v 6.750000 0.015460 -6.750000
vn -1.0000 -0.0000 -0.0000
vn -0.0000 -0.0000 -1.0000
vn 1.0000 -0.0000 -0.0000
vn -0.0000 -0.0000 1.0000
vn -0.0000 1.0000 -0.0000
vn 0.9242 0.3818 -0.0000
vn -0.0000 0.4039 -0.9148
vn 0.6991 0.2888 -0.6541
vn 0.9242 0.3819 -0.0000
vt 0.011226 0.483205
vt 0.022432 0.484105
vt 0.308961 0.970387
vt 0.312168 0.960690
vt 0.317771 0.029613
vt 0.319084 0.039525
vt 0.465649 0.226929
vt 0.469645 0.231419
vt 0.552824 0.214088
vt 0.363551 0.947574
vt 0.970934 0.224952
vt 0.050138 0.425181
vt 0.059278 0.431470
vt 0.971022 0.217653
vt 0.367874 0.951675
vt 0.365263 0.954428
vt 0.057483 0.433718
vt 0.356294 0.945767
vt 0.048575 0.427451
vt 0.553007 0.220190
vt 0.273265 0.069888
vt 0.282113 0.076661
vt 0.549393 0.220140
vt 0.275009 0.067651
vt 0.549041 0.214456
vt 0.283611 0.074491
vt 0.264223 0.922913
vt 0.273086 0.916774
vt 0.441850 0.743079
vt 0.367874 0.051058
vt 0.454731 0.311287
vt 0.970738 0.304413
vt 0.343552 0.879178
vt 0.336188 0.882559
vt 0.551063 0.314235
vt 0.546110 0.313742
vt 0.045359 0.542668
vt 0.449385 0.743212
vt 0.364577 0.053743
vt 0.971022 0.743877
vt 0.123496 0.484771
vt 0.116036 0.487050
vt 0.531157 0.744160
vt 0.345437 0.113680
vt 0.523669 0.743776
vt 0.346677 0.111061
vt 0.055777 0.536060
vt 0.043557 0.539925
vt 0.358853 0.054441
vt 0.116005 0.482369
vt 0.113855 0.484563
vt 0.338687 0.110328
vt 0.339931 0.107979
vt 0.053908 0.533383
vt 0.366048 0.048814
vt 0.447882 0.310904
vt 0.274579 0.919271
vt 0.448445 0.306331
vt 0.265942 0.925280
vt 0.454926 0.307182
vt 0.344944 0.882252
vt 0.970527 0.297103
vt 0.337523 0.885355
vt 0.550678 0.309027
vt 0.546522 0.309194
s 0
usemtl road.002
f 49/57/1 3/3/1 51/59/1
f 21/23/2 7/7/2 23/25/2
f 41/49/3 5/5/3 47/55/3
f 15/17/4 1/1/4 17/19/4
f 46/54/5 15/17/5 43/51/5
f 42/50/5 20/22/5 44/52/5
f 20/22/4 11/12/4 19/21/4
f 13/14/2 10/11/2 9/9/2
f 14/16/2 10/10/2 13/15/2
f 4/4/2 14/16/2 3/3/2
f 43/51/5 12/13/5 42/50/5
f 12/13/4 17/19/4 11/12/4
f 24/26/4 19/21/4 22/24/4
f 44/52/5 24/26/5 45/53/5
f 9/9/2 10/11/2 18/20/2
f 45/53/5 6/6/5 41/49/5
f 6/6/4 22/24/4 5/5/4
f 18/20/2 23/25/2 9/9/2
f 48/56/3 28/31/3 27/29/3
f 39/47/1 25/27/1 33/37/1
f 46/54/1 33/37/1 40/48/1
f 32/36/5 34/38/5 28/31/5
f 31/35/5 38/45/5 32/36/5
f 30/34/6 35/41/6 29/33/6
f 29/32/5 37/43/5 31/35/5
f 26/28/5 36/42/5 30/34/5
f 27/29/3 28/31/3 34/38/3
f 2/2/1 40/48/1 1/1/1
f 38/46/7 41/49/7 34/39/7
f 37/44/7 45/53/7 38/46/7
f 36/42/8 42/50/8 35/41/8
f 35/41/7 44/52/7 37/44/7
f 39/47/5 43/51/5 36/42/5
f 34/39/3 47/55/3 27/30/3
f 52/60/3 48/56/3 50/58/3
f 49/57/5 30/34/5 54/63/5
f 53/62/5 31/35/5 55/64/5
f 54/63/6 29/33/6 53/61/6
f 55/64/5 32/36/5 56/65/5
f 56/65/5 28/31/5 52/60/5
f 21/23/5 52/60/5 8/8/5
f 18/20/5 56/65/5 21/23/5
f 16/18/6 53/61/6 10/10/6
f 10/11/5 55/64/5 18/20/5
f 4/4/5 54/63/5 16/18/5
f 8/8/3 50/58/3 7/7/3
f 26/28/1 51/59/1 25/27/1
f 49/57/1 4/4/1 3/3/1
f 21/23/2 8/8/2 7/7/2
f 41/49/3 6/6/3 5/5/3
f 15/17/4 2/2/4 1/1/4
f 46/54/5 2/2/5 15/17/5
f 42/50/5 12/13/5 20/22/5
f 20/22/4 12/13/4 11/12/4
f 14/16/2 16/18/2 10/10/2
f 4/4/2 16/18/2 14/16/2
f 43/51/5 15/17/5 12/13/5
f 12/13/4 15/17/4 17/19/4
f 24/26/4 20/22/4 19/21/4
f 44/52/5 20/22/5 24/26/5
f 45/53/5 24/26/5 6/6/5
f 6/6/4 24/26/4 22/24/4
f 18/20/2 21/23/2 23/25/2
f 39/47/1 26/28/1 25/27/1
f 46/54/1 39/47/1 33/37/1
f 32/36/5 38/45/5 34/38/5
f 31/35/5 37/43/5 38/45/5
f 30/34/6 36/42/6 35/41/6
f 29/32/5 35/40/5 37/43/5
f 26/28/5 39/47/5 36/42/5
f 2/2/1 46/54/1 40/48/1
f 38/46/7 45/53/7 41/49/7
f 37/44/7 44/52/7 45/53/7
f 36/42/5 43/51/5 42/50/5
f 35/41/7 42/50/7 44/52/7
f 39/47/5 46/54/5 43/51/5
f 34/39/3 41/49/3 47/55/3
f 52/60/3 28/31/3 48/56/3
f 49/57/5 26/28/5 30/34/5
f 53/62/5 29/32/5 31/35/5
f 54/63/9 30/34/9 29/33/9
f 55/64/5 31/35/5 32/36/5
f 56/65/5 32/36/5 28/31/5
f 21/23/5 56/65/5 52/60/5
f 18/20/5 55/64/5 56/65/5
f 16/18/6 54/63/6 53/61/6
f 10/11/5 53/62/5 55/64/5
f 4/4/5 49/57/5 54/63/5
f 8/8/3 52/60/3 50/58/3
f 26/28/1 49/57/1 51/59/1
