# Blender v3.0.0 OBJ File: 'wiggle.blend'
# www.blender.org
mtllib wiggle_000041.mtl
o Cube
v 1.243904 -0.017666 -1.657351
v 1.269633 -0.051676 0.343204
v -0.724296 -0.086134 0.364884
v -0.754243 -0.052608 -1.630820
v 1.107965 2.132915 -1.636545
v 1.270201 1.943773 0.346314
v -0.713688 1.748925 0.488160
v -0.875837 1.938077 -1.494800
v 0.902988 3.967302 -1.439891
v 1.102421 3.756894 0.538145
v -1.072260 3.723066 -1.267320
v -0.872826 3.512659 0.710717
v 0.484147 5.683919 -1.241313
v 0.818914 5.459933 0.716872
v -1.444975 5.245932 -0.962196
v -1.110186 5.021950 0.995981
v 0.055627 7.491347 -0.961684
v 0.410685 7.265322 0.993526
v -1.866567 7.024330 -0.666608
v -1.511508 6.798306 1.288602
vt 0.214122 0.785878
vt 0.000174 0.999826
vt 0.000175 0.785878
vt 0.428419 0.214122
vt 0.214471 0.408802
vt 0.214471 0.214122
vt 0.857012 0.000174
vt 0.643064 0.214122
vt 0.643064 0.000174
vt 0.428419 0.000174
vt 0.214471 0.000175
vt 0.428768 0.785878
vt 0.642715 0.571931
vt 0.642715 0.785878
vt 0.214122 0.571930
vt 0.000175 0.571930
vt 0.428419 0.586918
vt 0.214471 0.586918
vt 0.857012 0.214122
vt 0.643064 0.408802
vt 0.428768 0.571931
vt 0.642715 0.377251
vt 0.214122 0.377250
vt 0.428768 0.199134
vt 0.642715 0.000175
vt 0.642715 0.199134
vt 0.857012 0.408802
vt 0.643064 0.586918
vt 0.428768 0.377250
vt 0.000175 0.377250
vt 0.214122 0.199134
vt 0.428419 0.999825
vt 0.214471 0.785878
vt 0.428419 0.785878
vt 0.000175 0.199134
vt 0.214122 0.000175
vt 0.857012 0.586918
vt 0.643064 0.785878
vt 0.214122 0.999826
vt 0.428419 0.408802
vt 0.428768 0.000174
vt 0.214471 0.999826
vt 0.000175 0.000174
vt 0.857012 0.785878
vn 0.0173 -0.9997 -0.0171
vn 0.0823 -0.1175 0.9897
vn 0.9999 -0.0003 -0.0129
vn 0.0120 -0.0671 0.9977
vn -0.9980 -0.0619 0.0139
vn -0.0773 0.0633 -0.9950
vn 0.1760 -0.1560 0.9719
vn 0.9925 0.0994 -0.0717
vn -0.9906 -0.1179 0.0698
vn -0.0804 0.0974 -0.9920
vn -0.9588 -0.2498 0.1354
vn 0.9818 0.1719 -0.0807
vn -0.9655 -0.2505 0.0707
vn -0.0978 0.0908 -0.9911
vn -0.2116 0.9658 0.1501
vn -0.1671 0.1119 -0.9796
vn 0.1791 -0.1204 0.9764
vn 0.9614 0.2384 -0.1371
vn 0.0171 -0.9997 -0.0172
vn 0.0984 -0.0957 0.9905
vn 0.9951 0.0636 -0.0754
vn 0.0715 -0.0016 0.9974
vn -0.9967 0.0003 0.0815
vn -0.0134 0.0088 -0.9999
vn 0.0975 -0.0878 0.9914
vn 0.9890 0.1198 -0.0870
vn -0.9909 -0.1007 0.0892
vn -0.1005 0.1149 -0.9883
vn -0.9595 -0.2409 0.1464
vn 0.9588 0.2496 -0.1354
vn -0.9727 -0.1805 0.1457
vn -0.1752 0.1520 -0.9727
vn -0.1790 0.1199 -0.9765
vn 0.1672 -0.1123 0.9795
vn 0.9575 0.2494 -0.1450
usemtl Material.001
s off
f 1/1/1 3/2/1 4/3/1
f 6/4/2 12/5/2 7/6/2
f 1/7/3 6/8/3 2/9/3
f 2/10/4 7/6/4 3/11/4
f 3/12/5 8/13/5 4/14/5
f 5/15/6 4/3/6 8/16/6
f 12/5/7 14/17/7 16/18/7
f 5/19/8 10/20/8 6/8/8
f 7/21/9 11/22/9 8/13/9
f 8/16/10 9/23/10 5/15/10
f 16/24/11 19/25/11 15/26/11
f 9/27/12 14/28/12 10/20/12
f 12/29/13 15/26/13 11/22/13
f 11/30/14 13/31/14 9/23/14
f 17/32/15 20/33/15 18/34/15
f 15/35/16 17/36/16 13/31/16
f 16/18/17 18/34/17 20/33/17
f 13/37/18 18/38/18 14/28/18
f 1/1/19 2/39/19 3/2/19
f 6/4/20 10/40/20 12/5/20
f 1/7/21 5/19/21 6/8/21
f 2/10/22 6/4/22 7/6/22
f 3/12/23 7/21/23 8/13/23
f 5/15/24 1/1/24 4/3/24
f 12/5/25 10/40/25 14/17/25
f 5/19/26 9/27/26 10/20/26
f 7/21/27 12/29/27 11/22/27
f 8/16/28 11/30/28 9/23/28
f 16/24/29 20/41/29 19/25/29
f 9/27/30 13/37/30 14/28/30
f 12/29/31 16/24/31 15/26/31
f 11/30/32 15/35/32 13/31/32
f 17/32/15 19/42/15 20/33/15
f 15/35/33 19/43/33 17/36/33
f 16/18/34 14/17/34 18/34/34
f 13/37/35 17/44/35 18/38/35
