# Blender v3.0.0 OBJ File: 'wiggle.blend'
# www.blender.org
mtllib wiggle_000032.mtl
o Cube
v 1.199083 -0.094556 -1.576215
v 1.231569 -0.034374 0.413324
v -0.766278 -0.003411 0.443161
v -0.795680 -0.064567 -1.554939
v 1.165070 1.680959 -1.748016
v 1.345503 2.028895 0.209350
v -0.640665 2.192137 0.360652
v -0.821163 1.844221 -1.596535
v 1.265679 3.380618 -2.114245
v 1.501039 3.829622 -0.192442
v -0.710490 3.599905 -1.933158
v -0.475130 4.048908 -0.011356
v 1.351424 4.468933 -2.851080
v 1.825392 5.347417 -1.132165
v -0.567564 4.947188 -2.577073
v -0.093610 5.825695 -0.858101
v 1.623813 5.960256 -3.862617
v 2.133526 6.903115 -2.174064
v -0.286607 6.477345 -3.574662
v 0.223107 7.420203 -1.886110
vt 0.214122 0.785878
vt 0.000174 0.999826
vt 0.000175 0.785878
vt 0.428419 0.214122
vt 0.214471 0.408802
vt 0.214471 0.214122
vt 0.857012 0.214122
vt 0.643064 0.000174
vt 0.857012 0.000174
vt 0.428419 0.000174
vt 0.214471 0.000175
vt 0.428768 0.785878
vt 0.642715 0.571931
vt 0.642715 0.785878
vt 0.214122 0.571930
vt 0.000175 0.571930
vt 0.428419 0.408802
vt 0.214471 0.586918
vt 0.643064 0.408802
vt 0.643064 0.214122
vt 0.428768 0.571931
vt 0.642715 0.377251
vt 0.214122 0.377250
vt 0.642715 0.199134
vt 0.428768 0.000174
vt 0.642715 0.000175
vt 0.857012 0.408802
vt 0.643064 0.586918
vt 0.428768 0.199134
vt 0.000175 0.377250
vt 0.214122 0.199134
vt 0.214471 0.999826
vt 0.428419 0.785878
vt 0.428419 0.999825
vt 0.000175 0.000174
vt 0.214122 0.000175
vt 0.428419 0.586918
vt 0.214471 0.785878
vt 0.857012 0.586918
vt 0.643064 0.785878
vt 0.214122 0.999826
vt 0.428768 0.377250
vt 0.000175 0.199134
vt 0.857012 0.785878
vn -0.0147 -0.9994 0.0308
vn 0.0900 0.1879 0.9781
vn 0.9997 0.0175 -0.0169
vn 0.0155 0.0367 0.9992
vn -0.9998 -0.0130 0.0151
vn -0.0779 -0.0228 -0.9967
vn 0.1278 0.4042 0.9057
vn 0.9921 -0.1020 -0.0733
vn -0.9939 0.0776 0.0779
vn -0.0911 -0.2046 -0.9746
vn -0.9538 0.2660 0.1394
vn 0.9676 -0.2448 -0.0613
vn -0.9675 0.1850 0.1722
vn -0.1364 -0.5480 -0.8253
vn 0.1504 0.8432 -0.5162
vn -0.2613 -0.5087 -0.8203
vn 0.2420 0.4914 0.8367
vn 0.9542 -0.2721 -0.1241
vn -0.0150 -0.9994 0.0305
vn 0.1120 0.2072 0.9719
vn 0.9948 -0.0629 -0.0805
vn 0.0833 0.0935 0.9921
vn -0.9949 0.0600 0.0811
vn -0.0121 -0.0965 -0.9953
vn 0.2391 0.4737 0.8476
vn 0.9914 -0.0808 -0.1025
vn -0.9896 0.1075 0.0961
vn -0.1096 -0.1805 -0.9774
vn -0.9546 0.2703 0.1251
vn 0.9670 -0.1907 -0.1692
vn -0.9692 0.2382 0.0631
vn -0.2266 -0.4003 -0.8879
vn -0.2430 -0.4981 -0.8324
vn 0.2601 0.5012 0.8253
vn 0.9535 -0.2679 -0.1382
usemtl Material.001
s off
f 1/1/1 3/2/1 4/3/1
f 6/4/2 12/5/2 7/6/2
f 5/7/3 2/8/3 1/9/3
f 2/10/4 7/6/4 3/11/4
f 3/12/5 8/13/5 4/14/5
f 5/15/6 4/3/6 8/16/6
f 10/17/7 16/18/7 12/5/7
f 5/7/8 10/19/8 6/20/8
f 7/21/9 11/22/9 8/13/9
f 8/16/10 9/23/10 5/15/10
f 15/24/11 20/25/11 19/26/11
f 9/27/12 14/28/12 10/19/12
f 11/22/13 16/29/13 15/24/13
f 11/30/14 13/31/14 9/23/14
f 19/32/15 18/33/15 17/34/15
f 13/31/16 19/35/16 17/36/16
f 14/37/17 20/38/17 16/18/17
f 13/39/18 18/40/18 14/28/18
f 1/1/19 2/41/19 3/2/19
f 6/4/20 10/17/20 12/5/20
f 5/7/21 6/20/21 2/8/21
f 2/10/22 6/4/22 7/6/22
f 3/12/23 7/21/23 8/13/23
f 5/15/24 1/1/24 4/3/24
f 10/17/25 14/37/25 16/18/25
f 5/7/26 9/27/26 10/19/26
f 7/21/27 12/42/27 11/22/27
f 8/16/28 11/30/28 9/23/28
f 15/24/29 16/29/29 20/25/29
f 9/27/30 13/39/30 14/28/30
f 11/22/31 12/42/31 16/29/31
f 11/30/32 15/43/32 13/31/32
f 19/32/15 20/38/15 18/33/15
f 13/31/33 15/43/33 19/35/33
f 14/37/34 18/33/34 20/38/34
f 13/39/35 17/44/35 18/40/35
