# Blender v3.0.0 OBJ File: 'wiggle.blend'
# www.blender.org
mtllib wiggle_000040.mtl
o Cube
v 1.239672 -0.027624 -1.649730
v 1.265350 -0.051189 0.351071
v -0.729550 -0.078707 0.374638
v -0.758649 -0.055412 -1.622775
v 1.117942 2.086062 -1.655548
v 1.277678 1.955732 0.332766
v -0.709445 1.799570 0.481117
v -0.869110 1.929906 -1.507267
v 0.948637 3.916947 -1.524421
v 1.145016 3.779569 0.460298
v -1.031765 3.722515 -1.341655
v -0.835386 3.585137 0.643063
v 0.598816 5.608170 -1.452901
v 0.928500 5.511082 0.516481
v -1.345811 5.267129 -1.143897
v -1.016110 5.170044 0.825485
v 0.250789 7.441035 -1.320644
v 0.600458 7.349980 0.646445
v -1.688463 7.078031 -0.992725
v -1.338793 6.986976 0.974363
vt 0.214122 0.785878
vt 0.000174 0.999826
vt 0.000175 0.785878
vt 0.428419 0.214122
vt 0.214471 0.408802
vt 0.214471 0.214122
vt 0.857012 0.000174
vt 0.643064 0.214122
vt 0.643064 0.000174
vt 0.428419 0.000174
vt 0.214471 0.000175
vt 0.428768 0.785878
vt 0.642715 0.571931
vt 0.642715 0.785878
vt 0.214122 0.571930
vt 0.000175 0.571930
vt 0.428419 0.408802
vt 0.214471 0.586918
vt 0.857012 0.214122
vt 0.643064 0.408802
vt 0.428768 0.571931
vt 0.642715 0.377251
vt 0.214122 0.377250
vt 0.428768 0.199134
vt 0.642715 0.000175
vt 0.642715 0.199134
vt 0.857012 0.408802
vt 0.643064 0.586918
vt 0.428768 0.377250
vt 0.000175 0.377250
vt 0.214122 0.199134
vt 0.214471 0.999826
vt 0.428419 0.785878
vt 0.428419 0.999825
vt 0.000175 0.199134
vt 0.214122 0.000175
vt 0.214471 0.785878
vt 0.857012 0.586918
vt 0.643064 0.785878
vt 0.214122 0.999826
vt 0.428419 0.586918
vt 0.428768 0.000174
vt 0.000175 0.000174
vt 0.857012 0.785878
vn 0.0137 -0.9998 -0.0119
vn 0.0808 -0.0844 0.9932
vn 0.9999 -0.0063 -0.0129
vn 0.0126 -0.0567 0.9983
vn -0.9983 -0.0564 0.0139
vn -0.0785 0.0536 -0.9955
vn 0.1014 -0.1023 0.9896
vn 0.9942 0.0775 -0.0748
vn -0.9926 -0.0968 0.0734
vn -0.0793 0.0639 -0.9948
vn -0.9687 -0.1960 0.1525
vn 0.9880 0.1264 -0.0890
vn -0.9746 -0.2086 0.0820
vn -0.0941 0.0226 -0.9953
vn -0.1711 0.9823 0.0759
vn -0.1637 0.0401 -0.9857
vn 0.1755 -0.0494 0.9832
vn 0.9709 0.1840 -0.1535
vn 0.0137 -0.9998 -0.0120
vn 0.0978 -0.0623 0.9933
vn 0.9955 0.0571 -0.0762
vn 0.0738 0.0086 0.9972
vn -0.9967 0.0061 0.0804
vn -0.0134 -0.0035 -0.9999
vn 0.1590 -0.0122 0.9872
vn 0.9910 0.0982 -0.0913
vn -0.9926 -0.0784 0.0928
vn -0.0996 0.0826 -0.9916
vn -0.9689 -0.1855 0.1636
vn 0.9667 0.2064 -0.1516
vn -0.9790 -0.1298 0.1575
vn -0.1718 0.0907 -0.9810
vn -0.1754 0.0489 -0.9833
vn 0.1637 -0.0405 0.9857
vn 0.9671 0.1954 -0.1629
usemtl Material.001
s off
f 1/1/1 3/2/1 4/3/1
f 6/4/2 12/5/2 7/6/2
f 1/7/3 6/8/3 2/9/3
f 2/10/4 7/6/4 3/11/4
f 3/12/5 8/13/5 4/14/5
f 5/15/6 4/3/6 8/16/6
f 10/17/7 16/18/7 12/5/7
f 5/19/8 10/20/8 6/8/8
f 7/21/9 11/22/9 8/13/9
f 8/16/10 9/23/10 5/15/10
f 16/24/11 19/25/11 15/26/11
f 9/27/12 14/28/12 10/20/12
f 12/29/13 15/26/13 11/22/13
f 11/30/14 13/31/14 9/23/14
f 19/32/15 18/33/15 17/34/15
f 15/35/16 17/36/16 13/31/16
f 16/18/17 18/33/17 20/37/17
f 13/38/18 18/39/18 14/28/18
f 1/1/19 2/40/19 3/2/19
f 6/4/20 10/17/20 12/5/20
f 1/7/21 5/19/21 6/8/21
f 2/10/22 6/4/22 7/6/22
f 3/12/23 7/21/23 8/13/23
f 5/15/24 1/1/24 4/3/24
f 10/17/25 14/41/25 16/18/25
f 5/19/26 9/27/26 10/20/26
f 7/21/27 12/29/27 11/22/27
f 8/16/28 11/30/28 9/23/28
f 16/24/29 20/42/29 19/25/29
f 9/27/30 13/38/30 14/28/30
f 12/29/31 16/24/31 15/26/31
f 11/30/32 15/35/32 13/31/32
f 19/32/15 20/37/15 18/33/15
f 15/35/33 19/43/33 17/36/33
f 16/18/34 14/41/34 18/33/34
f 13/38/35 17/44/35 18/39/35
