# Blender v3.0.0 OBJ File: 'wiggle.blend'
# www.blender.org
mtllib wiggle_000011.mtl
o Cube
v 1.237781 -0.031833 -1.646321
v 1.263498 -0.050869 0.354476
v -0.731783 -0.075353 0.378786
v -0.760573 -0.056516 -1.619258
v 1.121992 2.065496 -1.663285
v 1.280987 1.960727 0.326766
v -0.707312 1.821421 0.477524
v -0.866243 1.926194 -1.512584
v 0.968020 3.893924 -1.560337
v 1.163613 3.788301 0.426291
v -1.014238 3.721274 -1.373845
v -0.818645 3.615652 0.612784
v 0.647433 5.570304 -1.542695
v 0.976504 5.528485 0.428627
v -1.302686 5.272138 -1.222980
v -0.973599 5.230321 0.748345
v 0.334521 7.409535 -1.474796
v 0.683601 7.377273 0.494240
v -1.610768 7.092566 -1.135119
v -1.261688 7.060304 0.833917
vt 0.214122 0.785878
vt 0.000174 0.999826
vt 0.000175 0.785878
vt 0.428419 0.214122
vt 0.214471 0.408802
vt 0.214471 0.214122
vt 0.857012 0.000174
vt 0.643064 0.214122
vt 0.643064 0.000174
vt 0.428419 0.000174
vt 0.214471 0.000175
vt 0.428768 0.785878
vt 0.642715 0.571931
vt 0.642715 0.785878
vt 0.214122 0.571930
vt 0.000175 0.571930
vt 0.428419 0.408802
vt 0.214471 0.586918
vt 0.857012 0.214122
vt 0.643064 0.408802
vt 0.428768 0.571931
vt 0.642715 0.377251
vt 0.214122 0.377250
vt 0.428768 0.199134
vt 0.642715 0.000175
vt 0.642715 0.199134
vt 0.857012 0.408802
vt 0.643064 0.586918
vt 0.428768 0.377250
vt 0.000175 0.377250
vt 0.214122 0.199134
vt 0.214471 0.999826
vt 0.428419 0.785878
vt 0.428419 0.999825
vt 0.000175 0.199134
vt 0.214122 0.000175
vt 0.214471 0.785878
vt 0.857012 0.586918
vt 0.643064 0.785878
vt 0.214122 0.999826
vt 0.428419 0.586918
vt 0.428768 0.000174
vt 0.000175 0.000174
vt 0.857012 0.785878
vn 0.0122 -0.9999 -0.0096
vn 0.0803 -0.0700 0.9943
vn 0.9999 -0.0089 -0.0129
vn 0.0128 -0.0521 0.9986
vn -0.9984 -0.0540 0.0139
vn -0.0789 0.0494 -0.9957
vn 0.0998 -0.0737 0.9923
vn 0.9948 0.0680 -0.0759
vn -0.9933 -0.0877 0.0747
vn -0.9722 -0.1722 0.1586
vn 0.9901 0.1066 -0.0918
vn -0.9779 -0.1903 0.0862
vn -0.0930 -0.0073 -0.9956
vn -0.1533 0.9872 0.0434
vn -0.1631 0.0087 -0.9866
vn 0.1749 -0.0185 0.9844
vn 0.9742 0.1600 -0.1592
vn 0.0122 -0.9999 -0.0097
vn 0.0977 -0.0479 0.9941
vn 0.9956 0.0543 -0.0767
vn 0.0747 0.0131 0.9971
vn -0.9968 0.0087 0.0801
vn -0.0134 -0.0088 -0.9999
vn 0.1594 0.0158 0.9871
vn 0.9917 0.0887 -0.0929
vn -0.9932 -0.0687 0.0941
vn -0.0994 0.0685 -0.9927
vn -0.9723 -0.1610 0.1697
vn 0.9696 0.1871 -0.1579
vn -0.9810 -0.1077 0.1615
vn -0.1710 0.0638 -0.9832
vn -0.1748 0.0179 -0.9844
vn 0.1631 -0.0092 0.9866
vn 0.9706 0.1714 -0.1693
usemtl Material.001
s off
f 1/1/1 3/2/1 4/3/1
f 6/4/2 12/5/2 7/6/2
f 1/7/3 6/8/3 2/9/3
f 2/10/4 7/6/4 3/11/4
f 3/12/5 8/13/5 4/14/5
f 5/15/6 4/3/6 8/16/6
f 10/17/7 16/18/7 12/5/7
f 5/19/8 10/20/8 6/8/8
f 7/21/9 11/22/9 8/13/9
f 8/16/6 9/23/6 5/15/6
f 16/24/10 19/25/10 15/26/10
f 9/27/11 14/28/11 10/20/11
f 12/29/12 15/26/12 11/22/12
f 11/30/13 13/31/13 9/23/13
f 19/32/14 18/33/14 17/34/14
f 15/35/15 17/36/15 13/31/15
f 16/18/16 18/33/16 20/37/16
f 13/38/17 18/39/17 14/28/17
f 1/1/18 2/40/18 3/2/18
f 6/4/19 10/17/19 12/5/19
f 1/7/20 5/19/20 6/8/20
f 2/10/21 6/4/21 7/6/21
f 3/12/22 7/21/22 8/13/22
f 5/15/23 1/1/23 4/3/23
f 10/17/24 14/41/24 16/18/24
f 5/19/25 9/27/25 10/20/25
f 7/21/26 12/29/26 11/22/26
f 8/16/27 11/30/27 9/23/27
f 16/24/28 20/42/28 19/25/28
f 9/27/29 13/38/29 14/28/29
f 12/29/30 16/24/30 15/26/30
f 11/30/31 15/35/31 13/31/31
f 19/32/14 20/37/14 18/33/14
f 15/35/32 19/43/32 17/36/32
f 16/18/33 14/41/33 18/33/33
f 13/38/34 17/44/34 18/39/34
