# Blender v3.0.0 OBJ File: 'wiggle.blend'
# www.blender.org
mtllib wiggle_000019.mtl
o Cube
v 1.195909 -0.098177 -1.570442
v 1.229339 -0.032373 0.417447
v -0.768379 0.002707 0.447107
v -0.798281 -0.064282 -1.550161
v 1.166014 1.651780 -1.750178
v 1.350587 2.032271 0.200068
v -0.633701 2.217573 0.348244
v -0.818349 1.837107 -1.601805
v 1.283728 3.336352 -2.148025
v 1.525874 3.824025 -0.238110
v -0.689102 3.583745 -1.972654
v -0.446955 4.071418 -0.062740
v 1.388331 4.363003 -2.920382
v 1.883604 5.298512 -1.239732
v -0.518970 4.894295 -2.667047
v -0.023712 5.829833 -0.986338
v 1.696694 5.797004 -3.998793
v 2.229887 6.799644 -2.352458
v -0.200788 6.370868 -3.733750
v 0.332407 7.373507 -2.087416
vt 0.214122 0.785878
vt 0.000174 0.999826
vt 0.000175 0.785878
vt 0.428419 0.214122
vt 0.214471 0.408802
vt 0.214471 0.214122
vt 0.857012 0.214122
vt 0.643064 0.000174
vt 0.857012 0.000174
vt 0.428419 0.000174
vt 0.214471 0.000175
vt 0.428768 0.785878
vt 0.642715 0.571931
vt 0.642715 0.785878
vt 0.214122 0.571930
vt 0.000175 0.571930
vt 0.428419 0.408802
vt 0.214471 0.586918
vt 0.643064 0.408802
vt 0.643064 0.214122
vt 0.428768 0.571931
vt 0.642715 0.377251
vt 0.214122 0.377250
vt 0.642715 0.199134
vt 0.428768 0.000174
vt 0.642715 0.000175
vt 0.857012 0.408802
vt 0.643064 0.586918
vt 0.428768 0.199134
vt 0.000175 0.377250
vt 0.214122 0.199134
vt 0.214471 0.999826
vt 0.428419 0.785878
vt 0.428419 0.999825
vt 0.000175 0.000174
vt 0.214122 0.000175
vt 0.428419 0.586918
vt 0.214471 0.785878
vt 0.857012 0.586918
vt 0.643064 0.785878
vt 0.214122 0.999826
vt 0.428768 0.377250
vt 0.000175 0.199134
vt 0.857012 0.785878
vn -0.0166 -0.9993 0.0338
vn 0.0920 0.2067 0.9741
vn 0.9997 0.0153 -0.0173
vn 0.0156 0.0436 0.9989
vn -0.9998 -0.0101 0.0153
vn -0.0771 -0.0279 -0.9966
vn 0.1337 0.4354 0.8902
vn 0.9909 -0.1144 -0.0715
vn -0.9930 0.0897 0.0765
vn -0.0934 -0.2227 -0.9704
vn -0.9469 0.2956 0.1267
vn 0.9616 -0.2694 -0.0531
vn -0.9630 0.2127 0.1654
vn -0.1443 -0.5855 -0.7978
vn 0.1698 0.8163 -0.5521
vn -0.2744 -0.5396 -0.7960
vn 0.2537 0.5222 0.8142
vn 0.9471 -0.3011 -0.1115
vn -0.0171 -0.9993 0.0334
vn 0.1143 0.2254 0.9675
vn 0.9945 -0.0669 -0.0811
vn 0.0833 0.0995 0.9915
vn -0.9946 0.0641 0.0817
vn -0.0119 -0.1024 -0.9947
vn 0.2498 0.5019 0.8281
vn 0.9904 -0.0932 -0.1018
vn -0.9882 0.1205 0.0945
vn -0.1115 -0.1985 -0.9737
vn -0.9476 0.2990 0.1128
vn 0.9622 -0.2195 -0.1614
vn -0.9637 0.2611 0.0555
vn -0.2357 -0.4309 -0.8711
vn -0.2550 -0.5295 -0.8091
vn 0.2728 0.5315 0.8019
vn 0.9464 -0.2977 -0.1252
usemtl Material.001
s off
f 1/1/1 3/2/1 4/3/1
f 6/4/2 12/5/2 7/6/2
f 5/7/3 2/8/3 1/9/3
f 2/10/4 7/6/4 3/11/4
f 3/12/5 8/13/5 4/14/5
f 5/15/6 4/3/6 8/16/6
f 10/17/7 16/18/7 12/5/7
f 5/7/8 10/19/8 6/20/8
f 7/21/9 11/22/9 8/13/9
f 8/16/10 9/23/10 5/15/10
f 15/24/11 20/25/11 19/26/11
f 9/27/12 14/28/12 10/19/12
f 11/22/13 16/29/13 15/24/13
f 11/30/14 13/31/14 9/23/14
f 19/32/15 18/33/15 17/34/15
f 13/31/16 19/35/16 17/36/16
f 14/37/17 20/38/17 16/18/17
f 13/39/18 18/40/18 14/28/18
f 1/1/19 2/41/19 3/2/19
f 6/4/20 10/17/20 12/5/20
f 5/7/21 6/20/21 2/8/21
f 2/10/22 6/4/22 7/6/22
f 3/12/23 7/21/23 8/13/23
f 5/15/24 1/1/24 4/3/24
f 10/17/25 14/37/25 16/18/25
f 5/7/26 9/27/26 10/19/26
f 7/21/27 12/42/27 11/22/27
f 8/16/28 11/30/28 9/23/28
f 15/24/29 16/29/29 20/25/29
f 9/27/30 13/39/30 14/28/30
f 11/22/31 12/42/31 16/29/31
f 11/30/32 15/43/32 13/31/32
f 19/32/15 20/38/15 18/33/15
f 13/31/33 15/43/33 19/35/33
f 14/37/34 18/33/34 20/38/34
f 13/39/35 17/44/35 18/40/35
