# Blender v3.0.0 OBJ File: 'wiggle.blend'
# www.blender.org
mtllib wiggle_000006.mtl
o Cube
v 1.255556 0.014467 -1.678265
v 1.282629 -0.051012 0.319360
v -0.707573 -0.105914 0.333899
v -0.741252 -0.041958 -1.654508
v 1.072476 2.269231 -1.569399
v 1.248971 1.903989 0.384695
v -0.720737 1.594091 0.498817
v -0.897094 1.959364 -1.455470
v 0.757441 4.094978 -1.170861
v 0.976568 3.667075 0.767826
v -1.194974 3.704958 -1.042345
v -0.975847 3.277055 0.896341
v 0.120893 5.809956 -0.572707
v 0.501619 5.214890 1.295656
v -1.738400 5.101146 -0.425749
v -1.357642 4.506097 1.442587
v -0.541436 7.451215 0.133627
v -0.136474 6.831100 1.991438
v -2.386750 6.694642 0.283330
v -1.981789 6.074527 2.141141
vt 0.214122 0.785878
vt 0.000174 0.999826
vt 0.000175 0.785878
vt 0.428419 0.214122
vt 0.214471 0.408802
vt 0.214471 0.214122
vt 0.857012 0.000174
vt 0.643064 0.214122
vt 0.643064 0.000174
vt 0.428419 0.000174
vt 0.214471 0.000175
vt 0.428768 0.571931
vt 0.642715 0.785878
vt 0.428768 0.785878
vt 0.000175 0.571930
vt 0.214122 0.571930
vt 0.428419 0.586918
vt 0.214471 0.586918
vt 0.857012 0.214122
vt 0.643064 0.408802
vt 0.642715 0.377251
vt 0.642715 0.571931
vt 0.214122 0.377250
vt 0.428768 0.199134
vt 0.642715 0.000175
vt 0.642715 0.199134
vt 0.857012 0.586918
vt 0.643064 0.586918
vt 0.428768 0.377250
vt 0.000175 0.377250
vt 0.214122 0.199134
vt 0.214471 0.999826
vt 0.428419 0.785878
vt 0.428419 0.999825
vt 0.000175 0.199134
vt 0.214122 0.000175
vt 0.214471 0.785878
vt 0.857012 0.785878
vt 0.643064 0.785878
vt 0.214122 0.999826
vt 0.428419 0.408802
vt 0.857012 0.408802
vt 0.428768 0.000174
vt 0.000175 0.000174
vn 0.0278 -0.9991 -0.0326
vn 0.0903 -0.2160 0.9722
vn 0.9998 0.0176 -0.0130
vn 0.0099 -0.0965 0.9953
vn -0.9998 -0.0094 0.0166
vn -0.0644 0.0429 -0.9970
vn 0.2036 -0.3441 0.9166
vn 0.9846 0.1648 -0.0581
vn -0.9820 -0.1806 0.0549
vn -0.0876 0.1980 -0.9763
vn -0.9151 -0.3988 0.0595
vn 0.9431 0.3201 -0.0902
vn -0.9282 -0.3714 0.0229
vn -0.1199 0.2870 -0.9504
vn -0.3282 0.8722 0.3627
vn -0.1953 0.3201 -0.9270
vn 0.2089 -0.3273 0.9215
vn 0.9174 0.3920 -0.0691
vn 0.0273 -0.9991 -0.0331
vn 0.1033 -0.1959 0.9752
vn 0.9937 0.0843 -0.0740
vn 0.0629 -0.0323 0.9975
vn -0.9937 -0.0847 0.0738
vn -0.0146 0.0978 -0.9951
vn 0.1199 -0.2873 0.9503
vn 0.9803 0.1845 -0.0701
vn -0.9832 -0.1666 0.0744
vn -0.1063 0.2118 -0.9715
vn -0.9162 -0.3949 0.0679
vn 0.9341 0.3561 -0.0270
vn -0.9399 -0.3303 0.0863
vn -0.1988 0.3301 -0.9228
vn -0.2083 0.3256 -0.9223
vn 0.1958 -0.3215 0.9264
vn 0.9163 0.3959 -0.0606
usemtl Material.001
s off
f 1/1/1 3/2/1 4/3/1
f 6/4/2 12/5/2 7/6/2
f 1/7/3 6/8/3 2/9/3
f 2/10/4 7/6/4 3/11/4
f 7/12/5 4/13/5 3/14/5
f 1/1/6 8/15/6 5/16/6
f 12/5/7 14/17/7 16/18/7
f 5/19/8 10/20/8 6/8/8
f 7/12/9 11/21/9 8/22/9
f 8/15/10 9/23/10 5/16/10
f 16/24/11 19/25/11 15/26/11
f 10/20/12 13/27/12 14/28/12
f 12/29/13 15/26/13 11/21/13
f 11/30/14 13/31/14 9/23/14
f 19/32/15 18/33/15 17/34/15
f 15/35/16 17/36/16 13/31/16
f 16/18/17 18/33/17 20/37/17
f 14/28/18 17/38/18 18/39/18
f 1/1/19 2/40/19 3/2/19
f 6/4/20 10/41/20 12/5/20
f 1/7/21 5/19/21 6/8/21
f 2/10/22 6/4/22 7/6/22
f 7/12/23 8/22/23 4/13/23
f 1/1/24 4/3/24 8/15/24
f 12/5/25 10/41/25 14/17/25
f 5/19/26 9/42/26 10/20/26
f 7/12/27 12/29/27 11/21/27
f 8/15/28 11/30/28 9/23/28
f 16/24/29 20/43/29 19/25/29
f 10/20/30 9/42/30 13/27/30
f 12/29/31 16/24/31 15/26/31
f 11/30/32 15/35/32 13/31/32
f 19/32/15 20/37/15 18/33/15
f 15/35/33 19/44/33 17/36/33
f 16/18/34 14/17/34 18/33/34
f 14/28/35 13/27/35 17/38/35
