# Blender v3.0.0 OBJ File: 'wiggle.blend'
# www.blender.org
mtllib wiggle_000003.mtl
o Cube
v 1.260082 0.029408 -1.686351
v 1.288305 -0.049708 0.308961
v -0.699901 -0.113247 0.319708
v -0.735756 -0.036294 -1.664512
v 1.054510 2.325990 -1.535586
v 1.240390 1.884959 0.400165
v -0.721056 1.525926 0.498399
v -0.906778 1.967002 -1.437583
v 0.690634 4.138427 -1.047597
v 0.923223 3.617962 0.865016
v -1.248508 3.687615 -0.944339
v -1.015918 3.167150 0.968273
v -0.042579 5.814349 -0.272591
v 0.372118 5.067462 1.531183
v -1.861376 5.000939 -0.201504
v -1.446642 4.254079 1.602236
v -0.799519 7.342798 0.605740
v -0.357510 6.561985 2.393185
v -2.600255 6.475064 0.671983
v -2.158246 5.694252 2.459428
vt 0.214122 0.785878
vt 0.000174 0.999826
vt 0.000175 0.785878
vt 0.428419 0.214122
vt 0.214471 0.408802
vt 0.214471 0.214122
vt 0.857012 0.000174
vt 0.643064 0.214122
vt 0.643064 0.000174
vt 0.428419 0.000174
vt 0.214471 0.000175
vt 0.428768 0.571931
vt 0.642715 0.785878
vt 0.428768 0.785878
vt 0.000175 0.571930
vt 0.214122 0.571930
vt 0.428419 0.586918
vt 0.214471 0.586918
vt 0.857012 0.214122
vt 0.643064 0.408802
vt 0.642715 0.377251
vt 0.642715 0.571931
vt 0.214122 0.377250
vt 0.428768 0.199134
vt 0.642715 0.000175
vt 0.642715 0.199134
vt 0.857012 0.586918
vt 0.643064 0.586918
vt 0.428768 0.377250
vt 0.000175 0.377250
vt 0.214122 0.199134
vt 0.214471 0.999826
vt 0.428419 0.785878
vt 0.428419 0.999825
vt 0.000175 0.199134
vt 0.214122 0.000175
vt 0.214471 0.785878
vt 0.857012 0.785878
vt 0.643064 0.785878
vt 0.214122 0.999826
vt 0.428419 0.408802
vt 0.857012 0.408802
vt 0.428768 0.000174
vt 0.000175 0.000174
vn 0.0324 -0.9987 -0.0393
vn 0.0954 -0.2581 0.9614
vn 0.9996 0.0254 -0.0131
vn 0.0088 -0.1083 0.9941
vn -0.9997 -0.0148 0.0175
vn -0.0608 0.0600 -0.9963
vn 0.2237 -0.4234 0.8779
vn 0.9800 0.1928 -0.0502
vn -0.9772 -0.2074 0.0465
vn -0.0925 0.2415 -0.9660
vn -0.8900 -0.4556 0.0160
vn 0.9244 0.3773 -0.0563
vn -0.9071 -0.4209 -0.0042
vn -0.1343 0.3669 -0.9205
vn -0.3748 0.8120 0.4474
vn -0.2155 0.4041 -0.8890
vn 0.2305 -0.4111 0.8820
vn 0.8928 0.4498 -0.0243
vn 0.0317 -0.9987 -0.0400
vn 0.1070 -0.2393 0.9650
vn 0.9928 0.0937 -0.0740
vn 0.0583 -0.0456 0.9973
vn -0.9929 -0.0931 0.0740
vn -0.0145 0.1113 -0.9937
vn 0.1351 -0.3709 0.9188
vn 0.9753 0.2122 -0.0609
vn -0.9786 -0.1947 0.0660
vn -0.1101 0.2536 -0.9610
vn -0.8910 -0.4535 0.0222
vn 0.9158 0.4016 -0.0021
vn -0.9185 -0.3924 0.0487
vn -0.2150 0.4029 -0.8896
vn -0.2294 0.4085 -0.8835
vn 0.2164 -0.4064 0.8877
vn 0.8919 0.4520 -0.0179
usemtl Material.001
s off
f 1/1/1 3/2/1 4/3/1
f 6/4/2 12/5/2 7/6/2
f 1/7/3 6/8/3 2/9/3
f 2/10/4 7/6/4 3/11/4
f 7/12/5 4/13/5 3/14/5
f 1/1/6 8/15/6 5/16/6
f 12/5/7 14/17/7 16/18/7
f 5/19/8 10/20/8 6/8/8
f 7/12/9 11/21/9 8/22/9
f 8/15/10 9/23/10 5/16/10
f 16/24/11 19/25/11 15/26/11
f 10/20/12 13/27/12 14/28/12
f 12/29/13 15/26/13 11/21/13
f 11/30/14 13/31/14 9/23/14
f 19/32/15 18/33/15 17/34/15
f 15/35/16 17/36/16 13/31/16
f 16/18/17 18/33/17 20/37/17
f 14/28/18 17/38/18 18/39/18
f 1/1/19 2/40/19 3/2/19
f 6/4/20 10/41/20 12/5/20
f 1/7/21 5/19/21 6/8/21
f 2/10/22 6/4/22 7/6/22
f 7/12/23 8/22/23 4/13/23
f 1/1/24 4/3/24 8/15/24
f 12/5/25 10/41/25 14/17/25
f 5/19/26 9/42/26 10/20/26
f 7/12/27 12/29/27 11/21/27
f 8/15/28 11/30/28 9/23/28
f 16/24/29 20/43/29 19/25/29
f 10/20/30 9/42/30 13/27/30
f 12/29/31 16/24/31 15/26/31
f 11/30/32 15/35/32 13/31/32
f 19/32/15 20/37/15 18/33/15
f 15/35/33 19/44/33 17/36/33
f 16/18/34 14/17/34 18/33/34
f 14/28/35 13/27/35 17/38/35
