# Blender v3.0.0 OBJ File: 'wiggle.blend'
# www.blender.org
mtllib wiggle_000045.mtl
o Cube
v 1.255993 0.015837 -1.679046
v 1.283158 -0.050916 0.318389
v -0.706867 -0.106632 0.332592
v -0.740735 -0.041456 -1.655451
v 1.070864 2.274598 -1.566361
v 1.248153 1.902256 0.386172
v -0.720838 1.587745 0.498910
v -0.897987 1.960120 -1.453819
v 0.751290 4.099357 -1.159507
v 0.971549 3.662748 0.776974
v -1.199970 3.703586 -1.033196
v -0.979711 3.266977 0.903285
v 0.105729 5.811692 -0.544848
v 0.489276 5.202145 1.318125
v -1.750031 5.092732 -0.404524
v -1.366452 4.483202 1.458421
v -0.565657 7.443432 0.177972
v -0.157622 6.807969 2.029916
v -2.407083 6.676050 0.320377
v -1.999047 6.040587 2.172320
vt 0.214122 0.785878
vt 0.000174 0.999826
vt 0.000175 0.785878
vt 0.428419 0.214122
vt 0.214471 0.408802
vt 0.214471 0.214122
vt 0.857012 0.000174
vt 0.643064 0.214122
vt 0.643064 0.000174
vt 0.428419 0.000174
vt 0.214471 0.000175
vt 0.428768 0.571931
vt 0.642715 0.785878
vt 0.428768 0.785878
vt 0.000175 0.571930
vt 0.214122 0.571930
vt 0.428419 0.586918
vt 0.214471 0.586918
vt 0.857012 0.214122
vt 0.643064 0.408802
vt 0.642715 0.377251
vt 0.642715 0.571931
vt 0.214122 0.377250
vt 0.428768 0.199134
vt 0.642715 0.000175
vt 0.642715 0.199134
vt 0.857012 0.586918
vt 0.643064 0.586918
vt 0.428768 0.377250
vt 0.000175 0.377250
vt 0.214122 0.199134
vt 0.214471 0.999826
vt 0.428419 0.785878
vt 0.428419 0.999825
vt 0.000175 0.199134
vt 0.214122 0.000175
vt 0.214471 0.785878
vt 0.857012 0.785878
vt 0.643064 0.785878
vt 0.214122 0.999826
vt 0.428419 0.408802
vt 0.857012 0.408802
vt 0.428768 0.000174
vt 0.000175 0.000174
vn 0.0283 -0.9990 -0.0332
vn 0.0907 -0.2199 0.9713
vn 0.9997 0.0184 -0.0130
vn 0.0098 -0.0976 0.9952
vn -0.9998 -0.0099 0.0167
vn -0.0641 0.0445 -0.9970
vn 0.2053 -0.3516 0.9134
vn 0.9842 0.1674 -0.0574
vn -0.9816 -0.1831 0.0541
vn -0.0880 0.2021 -0.9754
vn -0.9129 -0.4043 0.0557
vn 0.9415 0.3256 -0.0873
vn -0.9263 -0.3761 0.0206
vn -0.1211 0.2946 -0.9479
vn -0.3327 0.8671 0.3708
vn -0.1970 0.3282 -0.9238
vn 0.2107 -0.3353 0.9182
vn 0.9152 0.3976 -0.0652
vn 0.0277 -0.9990 -0.0338
vn 0.1036 -0.2000 0.9743
vn 0.9936 0.0851 -0.0740
vn 0.0625 -0.0335 0.9975
vn -0.9936 -0.0855 0.0738
vn -0.0146 0.0991 -0.9950
vn 0.1212 -0.2952 0.9477
vn 0.9799 0.1871 -0.0693
vn -0.9828 -0.1692 0.0736
vn -0.1066 0.2157 -0.9706
vn -0.9140 -0.4006 0.0639
vn 0.9325 0.3604 -0.0248
vn -0.9381 -0.3362 0.0831
vn -0.2002 0.3371 -0.9200
vn -0.2101 0.3336 -0.9190
vn 0.1975 -0.3297 0.9232
vn 0.9142 0.4013 -0.0569
usemtl Material.001
s off
f 1/1/1 3/2/1 4/3/1
f 6/4/2 12/5/2 7/6/2
f 1/7/3 6/8/3 2/9/3
f 2/10/4 7/6/4 3/11/4
f 7/12/5 4/13/5 3/14/5
f 1/1/6 8/15/6 5/16/6
f 12/5/7 14/17/7 16/18/7
f 5/19/8 10/20/8 6/8/8
f 7/12/9 11/21/9 8/22/9
f 8/15/10 9/23/10 5/16/10
f 16/24/11 19/25/11 15/26/11
f 10/20/12 13/27/12 14/28/12
f 12/29/13 15/26/13 11/21/13
f 11/30/14 13/31/14 9/23/14
f 19/32/15 18/33/15 17/34/15
f 15/35/16 17/36/16 13/31/16
f 16/18/17 18/33/17 20/37/17
f 14/28/18 17/38/18 18/39/18
f 1/1/19 2/40/19 3/2/19
f 6/4/20 10/41/20 12/5/20
f 1/7/21 5/19/21 6/8/21
f 2/10/22 6/4/22 7/6/22
f 7/12/23 8/22/23 4/13/23
f 1/1/24 4/3/24 8/15/24
f 12/5/25 10/41/25 14/17/25
f 5/19/26 9/42/26 10/20/26
f 7/12/27 12/29/27 11/21/27
f 8/15/28 11/30/28 9/23/28
f 16/24/29 20/43/29 19/25/29
f 10/20/30 9/42/30 13/27/30
f 12/29/31 16/24/31 15/26/31
f 11/30/32 15/35/32 13/31/32
f 19/32/15 20/37/15 18/33/15
f 15/35/33 19/44/33 17/36/33
f 16/18/34 14/17/34 18/33/34
f 14/28/35 13/27/35 17/38/35
