# Blender v3.0.0 OBJ File: 'wiggle.blend'
# www.blender.org
mtllib wiggle_000018.mtl
o Cube
v 1.200391 -0.093009 -1.578592
v 1.232502 -0.035175 0.411600
v -0.765386 -0.005924 0.441487
v -0.794598 -0.064650 -1.556926
v 1.164587 1.693069 -1.746951
v 1.343400 2.027422 0.213188
v -0.643480 2.181473 0.365661
v -0.822355 1.847138 -1.594305
v 1.258014 3.398798 -2.099908
v 1.490700 3.831599 -0.173437
v -0.719430 3.606338 -1.916654
v -0.486744 4.039138 0.009817
v 1.335409 4.512232 -2.821047
v 1.800899 5.366392 -1.086928
v -0.588082 4.968108 -2.539105
v -0.122605 5.822290 -0.804931
v 1.592427 6.026250 -3.804037
v 2.092793 6.943567 -2.098704
v -0.322978 6.519365 -3.507285
v 0.177389 7.436683 -1.801952
vt 0.214122 0.785878
vt 0.000174 0.999826
vt 0.000175 0.785878
vt 0.428419 0.214122
vt 0.214471 0.408802
vt 0.214471 0.214122
vt 0.857012 0.214122
vt 0.643064 0.000174
vt 0.857012 0.000174
vt 0.428419 0.000174
vt 0.214471 0.000175
vt 0.428768 0.785878
vt 0.642715 0.571931
vt 0.642715 0.785878
vt 0.214122 0.571930
vt 0.000175 0.571930
vt 0.428419 0.408802
vt 0.214471 0.586918
vt 0.643064 0.408802
vt 0.643064 0.214122
vt 0.428768 0.571931
vt 0.642715 0.377251
vt 0.214122 0.377250
vt 0.642715 0.199134
vt 0.428768 0.000174
vt 0.642715 0.000175
vt 0.857012 0.408802
vt 0.643064 0.586918
vt 0.428768 0.199134
vt 0.000175 0.377250
vt 0.214122 0.199134
vt 0.214471 0.999826
vt 0.428419 0.785878
vt 0.428419 0.999825
vt 0.000175 0.000174
vt 0.214122 0.000175
vt 0.428419 0.586918
vt 0.214471 0.785878
vt 0.857012 0.586918
vt 0.643064 0.785878
vt 0.214122 0.999826
vt 0.428768 0.377250
vt 0.000175 0.199134
vt 0.857012 0.785878
vn -0.0139 -0.9995 0.0296
vn 0.0891 0.1801 0.9796
vn 0.9997 0.0185 -0.0167
vn 0.0154 0.0338 0.9993
vn -0.9998 -0.0142 0.0150
vn -0.0782 -0.0206 -0.9967
vn 0.1255 0.3910 0.9118
vn 0.9925 -0.0969 -0.0740
vn -0.9943 0.0725 0.0784
vn -0.0903 -0.1971 -0.9762
vn -0.9565 0.2535 0.1443
vn 0.9700 -0.2344 -0.0645
vn -0.9692 0.1734 0.1748
vn -0.1333 -0.5322 -0.8360
vn 0.1422 0.8537 -0.5009
vn -0.2561 -0.4954 -0.8300
vn 0.2373 0.4781 0.8456
vn 0.9570 -0.2598 -0.1289
vn -0.0142 -0.9995 0.0293
vn 0.1112 0.1996 0.9736
vn 0.9949 -0.0612 -0.0803
vn 0.0832 0.0910 0.9924
vn -0.9950 0.0583 0.0809
vn -0.0121 -0.0941 -0.9955
vn 0.2348 0.4617 0.8554
vn 0.9918 -0.0756 -0.1028
vn -0.9901 0.1021 0.0967
vn -0.1089 -0.1730 -0.9789
vn -0.9574 0.2581 0.1298
vn 0.9687 -0.1787 -0.1720
vn -0.9713 0.2285 0.0660
vn -0.2229 -0.3874 -0.8946
vn -0.2382 -0.4846 -0.8417
vn 0.2550 0.4882 0.8346
vn 0.9562 -0.2553 -0.1432
usemtl Material.001
s off
f 1/1/1 3/2/1 4/3/1
f 6/4/2 12/5/2 7/6/2
f 5/7/3 2/8/3 1/9/3
f 2/10/4 7/6/4 3/11/4
f 3/12/5 8/13/5 4/14/5
f 5/15/6 4/3/6 8/16/6
f 10/17/7 16/18/7 12/5/7
f 5/7/8 10/19/8 6/20/8
f 7/21/9 11/22/9 8/13/9
f 8/16/10 9/23/10 5/15/10
f 15/24/11 20/25/11 19/26/11
f 9/27/12 14/28/12 10/19/12
f 11/22/13 16/29/13 15/24/13
f 11/30/14 13/31/14 9/23/14
f 19/32/15 18/33/15 17/34/15
f 13/31/16 19/35/16 17/36/16
f 14/37/17 20/38/17 16/18/17
f 13/39/18 18/40/18 14/28/18
f 1/1/19 2/41/19 3/2/19
f 6/4/20 10/17/20 12/5/20
f 5/7/21 6/20/21 2/8/21
f 2/10/22 6/4/22 7/6/22
f 3/12/23 7/21/23 8/13/23
f 5/15/24 1/1/24 4/3/24
f 10/17/25 14/37/25 16/18/25
f 5/7/26 9/27/26 10/19/26
f 7/21/27 12/42/27 11/22/27
f 8/16/28 11/30/28 9/23/28
f 15/24/29 16/29/29 20/25/29
f 9/27/30 13/39/30 14/28/30
f 11/22/31 12/42/31 16/29/31
f 11/30/32 15/43/32 13/31/32
f 19/32/15 20/38/15 18/33/15
f 13/31/33 15/43/33 19/35/33
f 14/37/34 18/33/34 20/38/34
f 13/39/35 17/44/35 18/40/35
