# Blender v3.0.0 OBJ File: 'wiggle.blend'
# www.blender.org
mtllib wiggle_000008.mtl
o Cube
v 1.250034 -0.001738 -1.668368
v 1.276221 -0.051741 0.331111
v -0.715965 -0.096678 0.349438
v -0.747587 -0.047611 -1.642963
v 1.090954 2.203116 -1.604288
v 1.259165 1.924262 0.366283
v -0.718356 1.670653 0.495574
v -0.886454 1.949526 -1.475144
v 0.830514 4.036821 -1.305842
v 1.037984 3.715298 0.655807
v -1.134493 3.717613 -1.153172
v -0.927022 3.396090 0.808477
v 0.302435 5.767650 -0.906549
v 0.654849 5.352236 1.016426
v -1.595435 5.187478 -0.686890
v -1.242994 4.772073 1.236068
v -0.247059 7.507263 -0.405873
v 0.127091 7.077776 1.511300
v -2.134848 6.887991 -0.176187
v -1.760698 6.458505 1.740986
vt 0.214122 0.785878
vt 0.000174 0.999826
vt 0.000175 0.785878
vt 0.428419 0.214122
vt 0.214471 0.408802
vt 0.214471 0.214122
vt 0.857012 0.000174
vt 0.643064 0.214122
vt 0.643064 0.000174
vt 0.428419 0.000174
vt 0.214471 0.000175
vt 0.428768 0.571931
vt 0.642715 0.785878
vt 0.428768 0.785878
vt 0.000175 0.571930
vt 0.214122 0.571930
vt 0.428419 0.586918
vt 0.214471 0.586918
vt 0.857012 0.214122
vt 0.643064 0.408802
vt 0.642715 0.377251
vt 0.642715 0.571931
vt 0.214122 0.377250
vt 0.428768 0.199134
vt 0.642715 0.000175
vt 0.642715 0.199134
vt 0.857012 0.408802
vt 0.643064 0.586918
vt 0.428768 0.377250
vt 0.000175 0.377250
vt 0.214122 0.199134
vt 0.214471 0.999826
vt 0.428419 0.785878
vt 0.428419 0.999825
vt 0.000175 0.199134
vt 0.214122 0.000175
vt 0.214471 0.785878
vt 0.857012 0.785878
vt 0.643064 0.785878
vt 0.214122 0.999826
vt 0.428419 0.408802
vt 0.428768 0.000174
vt 0.857012 0.586918
vt 0.000175 0.000174
vn 0.0226 -0.9994 -0.0250
vn 0.0857 -0.1677 0.9821
vn 0.9999 0.0089 -0.0129
vn 0.0110 -0.0824 0.9965
vn -0.9999 -0.0027 0.0158
vn -0.0682 0.0241 -0.9974
vn 0.1870 -0.2521 0.9495
vn 0.9890 0.1327 -0.0656
vn -0.9867 -0.1499 0.0630
vn -0.0834 0.1485 -0.9854
vn -0.9391 -0.3283 0.1012
vn 0.9686 0.2406 -0.0630
vn -0.9485 -0.3130 0.0490
vn -0.1070 0.1924 -0.9755
vn -0.2722 0.9263 0.2606
vn -0.1782 0.2198 -0.9591
vn 0.1908 -0.2273 0.9549
vn 0.9408 0.3199 -0.1120
vn 0.0223 -0.9994 -0.0253
vn 0.1003 -0.1467 0.9841
vn 0.9945 0.0739 -0.0744
vn 0.0674 -0.0172 0.9976
vn -0.9944 -0.0754 0.0742
vn -0.0146 0.0827 -0.9965
vn 0.1067 -0.1900 0.9760
vn 0.9851 0.1528 -0.0791
vn -0.9875 -0.1344 0.0824
vn -0.1029 0.1642 -0.9810
vn -0.9402 -0.3220 0.1114
vn 0.9441 0.3124 -0.1055
vn -0.9588 -0.2575 0.1201
vn -0.1848 0.2441 -0.9520
vn -0.1905 0.2264 -0.9552
vn 0.1784 -0.2205 0.9589
vn 0.9398 0.3262 -0.1018
usemtl Material.001
s off
f 1/1/1 3/2/1 4/3/1
f 6/4/2 12/5/2 7/6/2
f 1/7/3 6/8/3 2/9/3
f 2/10/4 7/6/4 3/11/4
f 7/12/5 4/13/5 3/14/5
f 1/1/6 8/15/6 5/16/6
f 12/5/7 14/17/7 16/18/7
f 5/19/8 10/20/8 6/8/8
f 7/12/9 11/21/9 8/22/9
f 8/15/10 9/23/10 5/16/10
f 16/24/11 19/25/11 15/26/11
f 9/27/12 14/28/12 10/20/12
f 12/29/13 15/26/13 11/21/13
f 11/30/14 13/31/14 9/23/14
f 19/32/15 18/33/15 17/34/15
f 15/35/16 17/36/16 13/31/16
f 16/18/17 18/33/17 20/37/17
f 14/28/18 17/38/18 18/39/18
f 1/1/19 2/40/19 3/2/19
f 6/4/20 10/41/20 12/5/20
f 1/7/21 5/19/21 6/8/21
f 2/10/22 6/4/22 7/6/22
f 7/12/23 8/22/23 4/13/23
f 1/1/24 4/3/24 8/15/24
f 12/5/25 10/41/25 14/17/25
f 5/19/26 9/27/26 10/20/26
f 7/12/27 12/29/27 11/21/27
f 8/15/28 11/30/28 9/23/28
f 16/24/29 20/42/29 19/25/29
f 9/27/30 13/43/30 14/28/30
f 12/29/31 16/24/31 15/26/31
f 11/30/32 15/35/32 13/31/32
f 19/32/15 20/37/15 18/33/15
f 15/35/33 19/44/33 17/36/33
f 16/18/34 14/17/34 18/33/34
f 14/28/35 13/43/35 17/38/35
