# Blender v3.0.0 OBJ File: 'wiggle.blend'
# www.blender.org
mtllib wiggle_000005.mtl
o Cube
v 1.257539 0.020808 -1.681812
v 1.285063 -0.050529 0.314898
v -0.704310 -0.109158 0.327861
v -0.738881 -0.039605 -1.658825
v 1.064955 2.293785 -1.555233
v 1.245238 1.895950 0.391428
v -0.721081 1.564893 0.499019
v -0.901218 1.962765 -1.447851
v 0.729023 4.114559 -1.118411
v 0.953564 3.646748 0.809749
v -1.217941 3.698231 -1.000290
v -0.993399 3.230420 0.927871
v 0.051011 5.815691 -0.444356
v 0.445303 5.154561 1.398136
v -1.791616 5.060866 -0.328665
v -1.397291 4.399756 1.513797
v -0.652585 7.411460 0.337055
v -0.232835 6.721362 2.166693
v -2.479553 6.605920 0.452361
v -2.059803 5.915822 2.281999
vt 0.214122 0.785878
vt 0.000174 0.999826
vt 0.000175 0.785878
vt 0.428419 0.214122
vt 0.214471 0.408802
vt 0.214471 0.214122
vt 0.857012 0.000174
vt 0.643064 0.214122
vt 0.643064 0.000174
vt 0.428419 0.000174
vt 0.214471 0.000175
vt 0.428768 0.571931
vt 0.642715 0.785878
vt 0.428768 0.785878
vt 0.000175 0.571930
vt 0.214122 0.571930
vt 0.428419 0.586918
vt 0.214471 0.586918
vt 0.857012 0.214122
vt 0.643064 0.408802
vt 0.642715 0.377251
vt 0.642715 0.571931
vt 0.214122 0.377250
vt 0.428768 0.199134
vt 0.642715 0.000175
vt 0.642715 0.199134
vt 0.857012 0.586918
vt 0.643064 0.586918
vt 0.428768 0.377250
vt 0.000175 0.377250
vt 0.214122 0.199134
vt 0.214471 0.999826
vt 0.428419 0.785878
vt 0.428419 0.999825
vt 0.000175 0.199134
vt 0.214122 0.000175
vt 0.214471 0.785878
vt 0.857012 0.785878
vt 0.643064 0.785878
vt 0.214122 0.999826
vt 0.428419 0.408802
vt 0.857012 0.408802
vt 0.428768 0.000174
vt 0.000175 0.000174
vn 0.0298 -0.9989 -0.0355
vn 0.0924 -0.2341 0.9678
vn 0.9997 0.0210 -0.0130
vn 0.0095 -0.1016 0.9948
vn -0.9998 -0.0118 0.0170
vn -0.0629 0.0502 -0.9968
vn 0.2116 -0.3784 0.9011
vn 0.9827 0.1768 -0.0549
vn -0.9800 -0.1921 0.0514
vn -0.0896 0.2167 -0.9721
vn -0.9048 -0.4239 0.0416
vn 0.9354 0.3451 -0.0763
vn -0.9195 -0.3929 0.0118
vn -0.1257 0.3217 -0.9384
vn -0.3486 0.8478 0.3997
vn -0.2034 0.3568 -0.9118
vn 0.2176 -0.3638 0.9057
vn 0.9073 0.4175 -0.0507
vn 0.0292 -0.9989 -0.0361
vn 0.1048 -0.2146 0.9711
vn 0.9933 0.0883 -0.0740
vn 0.0610 -0.0380 0.9974
vn -0.9934 -0.0883 0.0739
vn -0.0146 0.1036 -0.9945
vn 0.1261 -0.3235 0.9378
vn 0.9783 0.1964 -0.0663
vn -0.9813 -0.1787 0.0709
vn -0.1078 0.2298 -0.9673
vn -0.9058 -0.4207 0.0491
vn 0.9265 0.3759 -0.0167
vn -0.9313 -0.3573 0.0711
vn -0.2053 0.3618 -0.9094
vn -0.2168 0.3618 -0.9067
vn 0.2040 -0.3585 0.9109
vn 0.9062 0.4206 -0.0430
usemtl Material.001
s off
f 1/1/1 3/2/1 4/3/1
f 6/4/2 12/5/2 7/6/2
f 1/7/3 6/8/3 2/9/3
f 2/10/4 7/6/4 3/11/4
f 7/12/5 4/13/5 3/14/5
f 1/1/6 8/15/6 5/16/6
f 12/5/7 14/17/7 16/18/7
f 5/19/8 10/20/8 6/8/8
f 7/12/9 11/21/9 8/22/9
f 8/15/10 9/23/10 5/16/10
f 16/24/11 19/25/11 15/26/11
f 10/20/12 13/27/12 14/28/12
f 12/29/13 15/26/13 11/21/13
f 11/30/14 13/31/14 9/23/14
f 19/32/15 18/33/15 17/34/15
f 15/35/16 17/36/16 13/31/16
f 16/18/17 18/33/17 20/37/17
f 14/28/18 17/38/18 18/39/18
f 1/1/19 2/40/19 3/2/19
f 6/4/20 10/41/20 12/5/20
f 1/7/21 5/19/21 6/8/21
f 2/10/22 6/4/22 7/6/22
f 7/12/23 8/22/23 4/13/23
f 1/1/24 4/3/24 8/15/24
f 12/5/25 10/41/25 14/17/25
f 5/19/26 9/42/26 10/20/26
f 7/12/27 12/29/27 11/21/27
f 8/15/28 11/30/28 9/23/28
f 16/24/29 20/43/29 19/25/29
f 10/20/30 9/42/30 13/27/30
f 12/29/31 16/24/31 15/26/31
f 11/30/32 15/35/32 13/31/32
f 19/32/15 20/37/15 18/33/15
f 15/35/33 19/44/33 17/36/33
f 16/18/34 14/17/34 18/33/34
f 14/28/35 13/27/35 17/38/35
