# Blender v3.0.0 OBJ File: 'wiggle.blend'
# www.blender.org
mtllib wiggle_000047.mtl
o Cube
v 1.259187 0.026318 -1.684755
v 1.287148 -0.050024 0.311079
v -0.701483 -0.111818 0.322633
v -0.736868 -0.037499 -1.662490
v 1.058294 2.314561 -1.542701
v 1.242105 1.888919 0.397076
v -0.721128 1.539845 0.498737
v -0.904784 1.965528 -1.441264
v 0.704406 4.130201 -1.072998
v 0.934014 3.628461 0.845364
v -1.237600 3.691623 -0.964302
v -1.007993 3.189884 0.954061
v -0.009117 5.816010 -0.333986
v 0.397993 5.099425 1.484161
v -1.836630 5.023147 -0.246597
v -1.429484 4.306584 1.571516
v -0.747241 7.369361 0.510175
v -0.313510 6.620583 2.313286
v -2.557571 6.523417 0.594348
v -2.123839 5.774639 2.397458
vt 0.214122 0.785878
vt 0.000174 0.999826
vt 0.000175 0.785878
vt 0.428419 0.214122
vt 0.214471 0.408802
vt 0.214471 0.214122
vt 0.857012 0.000174
vt 0.643064 0.214122
vt 0.643064 0.000174
vt 0.428419 0.000174
vt 0.214471 0.000175
vt 0.428768 0.571931
vt 0.642715 0.785878
vt 0.428768 0.785878
vt 0.000175 0.571930
vt 0.214122 0.571930
vt 0.428419 0.586918
vt 0.214471 0.586918
vt 0.857012 0.214122
vt 0.643064 0.408802
vt 0.642715 0.377251
vt 0.642715 0.571931
vt 0.214122 0.377250
vt 0.428768 0.199134
vt 0.642715 0.000175
vt 0.642715 0.199134
vt 0.857012 0.586918
vt 0.643064 0.586918
vt 0.428768 0.377250
vt 0.000175 0.377250
vt 0.214122 0.199134
vt 0.428419 0.999825
vt 0.214471 0.785878
vt 0.428419 0.785878
vt 0.000175 0.199134
vt 0.214122 0.000175
vt 0.857012 0.785878
vt 0.643064 0.785878
vt 0.214122 0.999826
vt 0.428419 0.408802
vt 0.857012 0.408802
vt 0.428768 0.000174
vt 0.214471 0.999826
vt 0.000175 0.000174
vn 0.0315 -0.9988 -0.0380
vn 0.0943 -0.2496 0.9638
vn 0.9996 0.0238 -0.0131
vn 0.0091 -0.1059 0.9943
vn -0.9998 -0.0137 0.0173
vn -0.0615 0.0565 -0.9965
vn 0.2192 -0.4075 0.8865
vn 0.9810 0.1871 -0.0519
vn -0.9782 -0.2020 0.0483
vn -0.0914 0.2327 -0.9683
vn -0.8954 -0.4445 0.0253
vn 0.9284 0.3660 -0.0637
vn -0.9116 -0.4110 0.0016
vn -0.1311 0.3509 -0.9272
vn -0.3656 0.8252 0.4306
vn -0.2110 0.3874 -0.8974
vn 0.2257 -0.3944 0.8908
vn 0.8981 0.4385 -0.0339
vn 0.0308 -0.9988 -0.0386
vn 0.1062 -0.2305 0.9673
vn 0.9930 0.0918 -0.0740
vn 0.0593 -0.0429 0.9973
vn -0.9931 -0.0914 0.0740
vn -0.0146 0.1086 -0.9940
vn 0.1318 -0.3541 0.9259
vn 0.9764 0.2066 -0.0628
vn -0.9796 -0.1890 0.0678
vn -0.1093 0.2451 -0.9633
vn -0.8964 -0.4420 0.0321
vn 0.9197 0.3925 -0.0074
vn -0.9232 -0.3800 0.0570
vn -0.2114 0.3884 -0.8969
vn -0.2247 0.3921 -0.8921
vn 0.2118 -0.3895 0.8963
vn 0.8971 0.4410 -0.0271
usemtl Material.001
s off
f 1/1/1 3/2/1 4/3/1
f 6/4/2 12/5/2 7/6/2
f 1/7/3 6/8/3 2/9/3
f 2/10/4 7/6/4 3/11/4
f 7/12/5 4/13/5 3/14/5
f 1/1/6 8/15/6 5/16/6
f 12/5/7 14/17/7 16/18/7
f 5/19/8 10/20/8 6/8/8
f 7/12/9 11/21/9 8/22/9
f 8/15/10 9/23/10 5/16/10
f 16/24/11 19/25/11 15/26/11
f 10/20/12 13/27/12 14/28/12
f 12/29/13 15/26/13 11/21/13
f 11/30/14 13/31/14 9/23/14
f 17/32/15 20/33/15 18/34/15
f 15/35/16 17/36/16 13/31/16
f 16/18/17 18/34/17 20/33/17
f 14/28/18 17/37/18 18/38/18
f 1/1/19 2/39/19 3/2/19
f 6/4/20 10/40/20 12/5/20
f 1/7/21 5/19/21 6/8/21
f 2/10/22 6/4/22 7/6/22
f 7/12/23 8/22/23 4/13/23
f 1/1/24 4/3/24 8/15/24
f 12/5/25 10/40/25 14/17/25
f 5/19/26 9/41/26 10/20/26
f 7/12/27 12/29/27 11/21/27
f 8/15/28 11/30/28 9/23/28
f 16/24/29 20/42/29 19/25/29
f 10/20/30 9/41/30 13/27/30
f 12/29/31 16/24/31 15/26/31
f 11/30/32 15/35/32 13/31/32
f 17/32/15 19/43/15 20/33/15
f 15/35/33 19/44/33 17/36/33
f 16/18/34 14/17/34 18/34/34
f 14/28/35 13/27/35 17/37/35
