# Blender 3.2.1
# www.blender.org
mtllib building.001.mtl
o Building.001
v 1.108241 0.728818 10.000000
v -1.000000 1.000000 11.000000
v 0.000000 0.728818 8.891760
v -1.108241 0.728818 10.000000
v -1.000000 1.000000 9.000000
v 0.000000 0.728818 11.108240
v 1.108241 0.671096 10.252896
v 0.252896 0.671096 8.891760
v 1.000000 1.000000 11.000000
v -1.108241 0.671096 10.252896
v 0.252896 0.671096 11.108240
v 1.000000 1.000000 9.000000
v 1.108241 0.509363 10.455703
v 0.455703 0.509363 8.891760
v -1.108241 0.509363 10.455703
v 0.455703 0.509363 11.108240
v 1.108241 0.275652 10.568253
v 0.568253 0.275652 8.891760
v -1.108241 0.275652 10.568253
v 0.568253 0.275652 11.108240
v 1.108241 0.275652 9.431747
v -0.568253 0.275652 8.891760
v -1.108241 0.275652 9.431747
v -0.568253 0.275652 11.108240
v 1.108241 0.509363 9.544296
v -0.455703 0.509363 8.891760
v -0.455703 0.509363 11.108240
v -1.108241 0.509363 9.544296
v 1.108241 0.671096 9.747104
v -0.252896 0.671096 8.891760
v -1.108241 0.671096 9.747104
v -0.252896 0.671096 11.108240
v -1.108241 0.766585 10.298882
v 0.298881 0.766585 11.108240
v 0.000000 0.834803 11.108240
v -1.108241 0.834803 10.000000
v 0.538566 0.575443 11.108240
v -1.108241 0.575443 10.538566
v 0.671580 0.299236 11.108240
v -1.108241 0.299236 10.671580
v -0.671580 0.299236 11.108240
v -1.108241 0.299236 9.328420
v -1.108241 0.575443 9.461434
v -0.538566 0.575443 11.108240
v -1.108241 0.766585 9.701118
v -0.298881 0.766585 11.108240
v 1.108241 0.834803 10.000000
v 0.000000 0.834803 8.891760
v 0.298881 0.766585 8.891760
v 1.108241 0.766585 10.298882
v 0.538566 0.575443 8.891760
v 1.108241 0.575443 10.538566
v 0.671580 0.299235 8.891760
v 1.108241 0.299235 10.671580
v 1.108241 0.299235 9.328420
v -0.671580 0.299235 8.891760
v 1.108241 0.575443 9.461434
v -0.538566 0.575443 8.891760
v 1.108241 0.766585 9.701118
v -0.298881 0.766585 8.891760
v -1.000000 0.299236 10.671580
v -1.000000 0.509363 10.455703
v -1.000000 0.575443 10.538566
v -1.000000 0.275652 10.568253
v -1.000000 0.728818 10.000000
v -1.000000 0.834803 10.000000
v -1.000000 0.671096 10.252896
v -1.000000 0.766585 10.298882
v -1.000000 0.766585 9.701118
v -1.000000 0.671096 9.747104
v -1.000000 0.575443 9.461434
v -1.000000 0.509363 9.544296
v -1.000000 0.299236 9.328420
v -1.000000 0.275652 9.431747
v -0.671580 0.299235 9.000000
v -0.455703 0.509363 9.000000
v -0.538566 0.575443 9.000000
v -0.568253 0.275652 9.000000
v -0.344422 0.730267 9.000000
v -0.039971 0.825680 9.000000
v 0.000000 0.728818 9.000000
v 0.000000 0.834803 9.000000
v -0.298881 0.766585 9.000000
v 0.252896 0.671096 9.000000
v 0.298881 0.766585 9.000000
v -0.252896 0.671096 9.000000
v 0.455703 0.509363 9.000000
v 0.671580 0.299235 9.000000
v 0.568253 0.275652 9.000000
v 0.538566 0.575443 9.000000
v 1.000000 0.671096 10.252896
v 1.000000 0.766585 10.298882
v 1.000000 0.728818 10.000000
v 1.000000 0.766585 9.701118
v 1.000000 0.834803 10.000000
v 1.000000 0.509363 9.544296
v 1.000000 0.575443 9.461434
v 1.000000 0.299235 9.328420
v 1.000000 0.275652 9.431747
v 1.000000 0.730267 9.655578
v 1.000000 0.671096 9.747104
v 1.000000 0.299235 10.671580
v 1.000000 0.275652 10.568253
v 1.000000 0.575443 10.538566
v 1.000000 0.509363 10.455703
v -0.252896 0.671096 11.000000
v -0.298881 0.766585 11.000000
v 0.000000 0.834803 11.000000
v 0.000000 0.728818 11.000000
v 0.298881 0.766585 11.000000
v 0.455703 0.509363 11.000000
v 0.538566 0.575443 11.000000
v 0.671580 0.299236 11.000000
v 0.568253 0.275652 11.000000
v 0.252896 0.671096 11.000000
v -0.671580 0.299236 11.000000
v -0.568253 0.275652 11.000000
v -0.538566 0.575443 11.000000
v -0.455703 0.509363 11.000000
v -1.000000 0.000000 10.671580
v -1.000000 0.000000 11.000000
v -1.000000 0.000000 9.328420
v -1.000000 0.000000 9.000000
v -1.000000 0.000000 9.431747
v -1.000000 0.000000 10.568253
v -0.671580 0.000000 9.000000
v 1.000000 0.000000 9.000000
v 0.671580 0.000000 9.000000
v 0.568253 0.000000 9.000000
v -0.568253 0.000000 9.000000
v 1.000000 0.000000 10.671580
v 1.000000 0.000000 11.000000
v 1.000000 0.000000 9.328420
v 1.000000 0.000000 10.568253
v 1.000000 0.000000 9.431747
v -0.671580 0.000000 11.000000
v 0.671580 0.000000 11.000000
v -0.568253 0.000000 11.000000
v 0.568253 0.000000 11.000000
v 0.671580 0.000000 11.108240
v 0.671580 0.000000 8.891760
v -0.671580 0.000000 11.108240
v -0.671580 0.000000 8.891760
v 0.568253 0.000000 11.108240
v -0.568253 0.000000 11.108240
v 0.568253 0.000000 8.891760
v -0.568253 0.000000 8.891760
v -1.108241 0.000000 10.671580
v 1.108241 0.000000 10.671580
v -1.108241 0.000000 9.328420
v 1.108241 0.000000 9.328420
v -1.108241 0.000000 10.568253
v -1.108241 0.000000 9.431747
v 1.108241 0.000000 10.568253
v 1.108241 0.000000 9.431747
vn -1.0000 -0.0000 -0.0000
vn -0.0000 -0.0000 -1.0000
vn 1.0000 -0.0000 -0.0000
vn -0.0000 -0.0000 1.0000
vn -0.0000 1.0000 -0.0000
vn 0.2225 0.9749 -0.0000
vn 0.6235 0.7818 -0.0000
vn 0.9010 0.4339 -0.0000
vn -0.9010 0.4339 -0.0000
vn -0.6235 -0.7818 -0.0000
vn -0.6235 0.7818 -0.0000
vn -0.2225 0.9749 -0.0000
vn -0.9010 -0.4339 -0.0000
vn 0.9010 -0.4339 -0.0000
vn 0.6235 -0.7818 -0.0000
vn 0.2225 -0.9749 -0.0000
vn -0.2225 -0.9749 -0.0000
vn -0.0000 0.9749 0.2225
vn -0.0000 0.7818 0.6235
vn -0.0000 0.4339 0.9010
vn -0.0000 0.4339 -0.9010
vn -0.0000 -0.7818 -0.6235
vn -0.0000 0.7818 -0.6235
vn -0.0000 0.9749 -0.2225
vn -0.0000 -0.4339 -0.9010
vn -0.0000 -0.4339 0.9010
vn -0.0000 -0.7818 0.6235
vn -0.0000 -0.9749 0.2225
vn -0.0000 -0.9749 -0.2225
vn -0.0000 -1.0000 -0.0000
vt 0.768785 0.790273
vt 0.417345 0.497955
vt 0.708674 0.529770
vt 0.893314 0.811855
vt 0.417345 0.305176
vt 0.843560 0.511969
vt 0.772859 0.762521
vt 0.712478 0.501496
vt 0.224566 0.497955
vt 0.896657 0.840017
vt 0.846287 0.541157
vt 0.224566 0.305176
vt 0.785744 0.731398
vt 0.726339 0.468691
vt 0.908928 0.873110
vt 0.858251 0.575936
vt 0.805961 0.697497
vt 0.747291 0.433053
vt 0.929105 0.910062
vt 0.878395 0.614946
vt 0.802614 0.903487
vt 0.744299 0.637889
vt 0.928008 0.703722
vt 0.879124 0.407351
vt 0.782213 0.858753
vt 0.722993 0.595511
vt 0.858924 0.447329
vt 0.907667 0.745988
vt 0.770484 0.819998
vt 0.710387 0.558991
vt 0.895899 0.782833
vt 0.846604 0.482815
vt 0.880198 0.836576
vt 0.829280 0.537173
vt 0.823726 0.511804
vt 0.873703 0.812367
vt 0.844788 0.573201
vt 0.895956 0.870784
vt 0.868709 0.617022
vt 0.919865 0.912268
vt 0.869309 0.405365
vt 0.917600 0.701883
vt 0.893507 0.749325
vt 0.845246 0.450245
vt 0.878759 0.787232
vt 0.829382 0.486608
vt 0.749361 0.788815
vt 0.688919 0.528572
vt 0.695877 0.504152
vt 0.756677 0.765107
vt 0.713307 0.470610
vt 0.773403 0.733164
vt 0.738403 0.430597
vt 0.797417 0.695125
vt 0.791741 0.905267
vt 0.733794 0.639969
vt 0.767460 0.855057
vt 0.708718 0.592444
vt 0.752671 0.814817
vt 0.692904 0.554695
vt 0.552438 0.466299
vt 0.911787 0.917246
vt 0.298145 0.891137
vt 0.917153 0.869411
vt 0.499191 0.453478
vt 0.887780 0.875047
vt 0.310608 0.839377
vt 0.937105 0.905175
vt 0.247683 0.939739
vt 0.903801 0.811965
vt 0.449192 0.401566
vt 0.865035 0.812672
vt 0.275687 0.926956
vt 0.906268 0.837971
vt 0.462343 0.430375
vt 0.870913 0.839761
vt 0.462343 0.372757
vt 0.868835 0.784488
vt 0.219679 0.926956
vt 0.906428 0.785064
vt 0.499191 0.349654
vt 0.884308 0.745216
vt 0.197221 0.891137
vt 0.917593 0.749865
vt 0.552438 0.336833
vt 0.908370 0.696943
vt 0.184758 0.839377
vt 0.937011 0.708428
vt 0.385689 0.170084
vt 0.724507 0.645206
vt 0.448922 0.826931
vt 0.732637 0.591422
vt 0.372868 0.223331
vt 0.699525 0.596783
vt 0.436459 0.878691
vt 0.753577 0.632762
vt 0.354154 0.253178
vt 0.686047 0.565082
vt 0.324808 0.271571
vt 0.499384 0.778329
vt 0.718668 0.530140
vt 0.320956 0.273330
vt 0.679394 0.527511
vt 0.349765 0.260179
vt 0.683672 0.557124
vt 0.527388 0.791112
vt 0.722595 0.504161
vt 0.292147 0.260179
vt 0.687349 0.500555
vt 0.471379 0.791112
vt 0.720884 0.556756
vt 0.549846 0.826931
vt 0.734658 0.472657
vt 0.256222 0.170084
vt 0.730985 0.425579
vt 0.562309 0.878691
vt 0.754731 0.437856
vt 0.269044 0.223331
vt 0.705263 0.465946
vt 0.149837 0.791112
vt 0.782153 0.764785
vt 0.748503 0.761550
vt 0.179569 0.430375
vt 0.779295 0.790408
vt 0.121833 0.778329
vt 0.179569 0.372757
vt 0.742488 0.816761
vt 0.192720 0.401566
vt 0.740212 0.787597
vt 0.071371 0.826931
vt 0.792432 0.854868
vt 0.142721 0.349654
vt 0.757562 0.859412
vt 0.089474 0.336833
vt 0.782302 0.910291
vt 0.058907 0.878691
vt 0.812353 0.898572
vt 0.172567 0.368367
vt 0.744686 0.825476
vt 0.093828 0.791112
vt 0.781408 0.817927
vt 0.089473 0.466299
vt 0.790076 0.690231
vt 0.184758 0.878691
vt 0.813100 0.702148
vt 0.142721 0.453478
vt 0.765871 0.728829
vt 0.172295 0.826931
vt 0.793603 0.735201
vt 0.401538 0.791112
vt 0.856988 0.485167
vt 0.349765 0.542953
vt 0.820372 0.483506
vt 0.320956 0.529802
vt 0.814304 0.511354
vt 0.373533 0.778329
vt 0.854223 0.512239
vt 0.292147 0.542953
vt 0.819431 0.540207
vt 0.323071 0.826931
vt 0.866913 0.572278
vt 0.269044 0.579801
vt 0.836156 0.577446
vt 0.256222 0.633048
vt 0.860167 0.622018
vt 0.310608 0.878691
vt 0.886853 0.610043
vt 0.345529 0.791112
vt 0.856309 0.539245
vt 0.385689 0.633048
vt 0.860927 0.400519
vt 0.436459 0.878691
vt 0.887551 0.411991
vt 0.372868 0.579801
vt 0.836376 0.445897
vt 0.423996 0.826931
vt 0.868400 0.451220
vt 0.940726 0.960144
vt 0.610124 0.466299
vt 0.718168 0.060042
vt 0.610124 0.497956
vt 0.417345 0.690734
vt 0.681801 0.060042
vt 0.610124 0.336833
vt 0.937224 0.647717
vt 0.866903 0.060042
vt 0.610124 0.305176
vt 0.417345 0.112397
vt 0.903270 0.060042
vt 0.963479 0.663198
vt 0.184758 0.778329
vt 0.855461 0.060042
vt 0.310608 0.778329
vt 0.963479 0.944907
vt 0.729610 0.060042
vt 0.755253 0.694669
vt 0.385689 0.112397
vt 0.903270 0.096410
vt 0.224566 0.112398
vt 0.031787 0.305176
vt 0.903270 0.281511
vt 0.256222 0.112398
vt 0.759866 0.385566
vt 0.903270 0.245144
vt 0.781217 0.401038
vt 0.562309 0.939739
vt 0.903270 0.233702
vt 0.436459 0.939739
vt 0.781217 0.678688
vt 0.903270 0.107851
vt 0.031787 0.466299
vt 0.818191 0.651402
vt 0.718168 0.281511
vt 0.031787 0.497955
vt 0.224566 0.690734
vt 0.681801 0.281511
vt 0.811875 0.961726
vt 0.031787 0.336833
vt 0.866903 0.281511
vt 0.838893 0.666474
vt 0.184758 0.939739
vt 0.729610 0.281511
vt 0.058907 0.939739
vt 0.838893 0.946360
vt 0.855461 0.281511
vt 0.385689 0.690734
vt 0.889110 0.355024
vt 0.681801 0.096409
vt 0.889305 0.667437
vt 0.256222 0.690734
vt 0.681801 0.245144
vt 0.913392 0.370129
vt 0.436459 0.939739
vt 0.681801 0.107851
vt 0.310608 0.939739
vt 0.913392 0.652100
vt 0.681801 0.233702
vt 0.897519 0.662167
vt 0.669815 0.245144
vt 0.767320 0.390989
vt 0.915256 0.245144
vt 0.897588 0.360320
vt 0.669815 0.096409
vt 0.764199 0.689108
vt 0.915256 0.096409
vt 0.905135 0.657311
vt 0.669815 0.233702
vt 0.905173 0.365055
vt 0.669815 0.107851
vt 0.773988 0.395838
vt 0.915256 0.233702
vt 0.772492 0.683984
vt 0.915256 0.107851
vt 0.948484 0.954910
vt 0.718168 0.048056
vt 0.825422 0.656686
vt 0.718168 0.293497
vt 0.946396 0.653147
vt 0.866903 0.048056
vt 0.821178 0.956377
vt 0.866903 0.293497
vt 0.955678 0.950086
vt 0.729610 0.048056
vt 0.954599 0.658002
vt 0.855461 0.048056
vt 0.831888 0.661410
vt 0.729610 0.293497
vt 0.829807 0.951450
vt 0.855461 0.293497
s 0
usemtl building.001
f 66/71/1 2/2/1 5/5/1
f 64/67/1 70/79/1 74/87/1
f 83/104/2 5/5/2 82/102/2
f 78/95/2 84/106/2 89/116/2
f 95/128/3 94/126/3 12/12/3
f 93/125/3 134/221/3 99/136/3
f 108/154/4 9/9/4 2/2/4
f 109/156/4 138/233/4 114/166/4
f 5/5/5 9/9/5 12/12/5
f 35/35/6 110/159/6 108/155/6
f 49/49/6 82/103/6 85/109/6
f 37/37/7 110/159/7 34/34/7
f 51/51/7 85/109/7 90/119/7
f 112/163/8 39/39/8 113/165/8
f 53/53/8 90/119/8 88/115/8
f 113/165/3 140/238/3 137/229/3
f 53/53/3 128/203/3 141/240/3
f 41/41/1 136/227/1 142/242/1
f 75/90/1 143/244/1 126/196/1
f 41/41/9 118/175/9 116/171/9
f 58/58/9 75/90/9 77/94/9
f 11/11/10 111/161/10 16/16/10
f 44/44/11 107/153/11 118/175/11
f 58/58/11 79/98/11 83/105/11
f 46/46/12 108/155/12 107/153/12
f 82/103/12 60/60/12 83/105/12
f 6/6/4 34/34/4 35/35/4
f 11/11/4 37/37/4 34/34/4
f 16/16/4 39/39/4 37/37/4
f 140/238/4 20/20/4 144/246/4
f 24/24/4 142/242/4 145/248/4
f 27/27/4 41/41/4 24/24/4
f 32/32/4 44/44/4 27/27/4
f 6/6/4 46/46/4 32/32/4
f 3/3/2 49/49/2 8/8/2
f 8/8/2 51/51/2 14/14/2
f 14/14/2 53/53/2 18/18/2
f 18/18/2 141/240/2 146/250/2
f 22/22/2 143/244/2 56/56/2
f 26/26/2 56/56/2 58/58/2
f 30/30/2 58/58/2 60/60/2
f 3/3/2 60/60/2 48/48/2
f 8/8/10 87/113/10 84/107/10
f 14/14/13 89/117/13 87/113/13
f 22/22/3 130/209/3 147/252/3
f 89/117/1 146/250/1 129/205/1
f 22/22/14 76/92/14 78/96/14
f 26/26/15 86/111/15 76/92/15
f 86/111/16 3/3/16 81/101/16
f 8/8/17 81/101/17 3/3/17
f 20/20/13 111/161/13 114/167/13
f 117/173/3 145/248/3 138/232/3
f 114/167/1 144/246/1 20/20/1
f 27/27/14 117/173/14 119/177/14
f 27/27/15 106/151/15 32/32/15
f 32/32/16 109/157/16 6/6/16
f 6/6/17 115/169/17 11/11/17
f 36/36/18 68/76/18 66/72/18
f 50/50/18 95/129/18 92/122/18
f 38/38/19 68/76/19 33/33/19
f 104/147/19 50/50/19 92/122/19
f 63/66/20 40/40/20 61/62/20
f 52/52/20 102/143/20 54/54/20
f 61/62/4 148/254/4 120/178/4
f 54/54/4 131/212/4 149/256/4
f 42/42/2 122/185/2 150/258/2
f 98/135/2 151/260/2 133/217/2
f 71/82/21 42/42/21 43/43/21
f 55/55/21 97/133/21 57/57/21
f 10/10/22 62/64/22 15/15/22
f 43/43/23 69/78/23 71/82/23
f 57/57/23 100/139/23 94/127/23
f 36/36/24 69/78/24 45/45/24
f 47/47/24 94/127/24 95/129/24
f 4/4/1 33/33/1 36/36/1
f 10/10/1 38/38/1 33/33/1
f 15/15/1 40/40/1 38/38/1
f 19/19/1 148/254/1 40/40/1
f 23/23/1 150/258/1 153/264/1
f 28/28/1 42/42/1 23/23/1
f 31/31/1 43/43/1 28/28/1
f 4/4/1 45/45/1 31/31/1
f 1/1/3 50/50/3 7/7/3
f 7/7/3 52/52/3 13/13/3
f 13/13/3 54/54/3 17/17/3
f 17/17/3 149/256/3 154/266/3
f 151/260/3 21/21/3 155/268/3
f 25/25/3 55/55/3 57/57/3
f 29/29/3 57/57/3 59/59/3
f 1/1/3 59/59/3 47/47/3
f 7/7/22 105/149/22 91/121/22
f 13/13/25 103/145/25 105/149/25
f 21/21/4 135/224/4 155/268/4
f 103/145/2 154/266/2 134/220/2
f 21/21/26 96/131/26 99/137/26
f 25/25/27 101/141/27 96/131/27
f 101/141/28 1/1/28 93/124/28
f 1/1/29 91/121/29 93/124/29
f 19/19/25 62/64/25 64/68/25
f 74/88/4 153/264/4 124/190/4
f 64/68/2 152/262/2 19/19/2
f 28/28/26 74/88/26 72/84/26
f 28/28/27 70/80/27 31/31/27
f 31/31/28 65/70/28 4/4/28
f 4/4/29 67/74/29 10/10/29
f 128/204/30 133/219/30 135/225/30
f 123/187/1 122/184/1 73/85/1
f 123/187/1 73/85/1 71/81/1
f 120/179/1 121/181/1 2/2/1
f 61/61/1 120/179/1 2/2/1
f 5/5/1 123/187/1 71/81/1
f 5/5/1 71/81/1 69/77/1
f 63/65/1 61/61/1 2/2/1
f 68/75/1 63/65/1 2/2/1
f 5/5/1 69/77/1 66/71/1
f 66/71/1 68/75/1 2/2/1
f 124/191/1 125/193/1 64/67/1
f 64/67/1 62/63/1 67/73/1
f 67/73/1 65/69/1 70/79/1
f 70/79/1 72/83/1 74/87/1
f 74/87/1 124/191/1 64/67/1
f 64/67/1 67/73/1 70/79/1
f 82/102/5 80/99/5 83/104/5
f 127/199/2 128/202/2 88/114/2
f 126/197/2 123/188/2 5/5/2
f 75/89/2 126/197/2 5/5/2
f 12/12/2 127/199/2 88/114/2
f 12/12/2 88/114/2 90/118/2
f 77/93/2 75/89/2 5/5/2
f 79/97/2 77/93/2 5/5/2
f 12/12/2 90/118/2 85/108/2
f 12/12/2 85/108/2 82/102/2
f 83/104/2 79/97/2 5/5/2
f 5/5/2 12/12/2 82/102/2
f 129/206/2 130/208/2 78/95/2
f 78/95/2 76/91/2 86/110/2
f 86/110/2 81/100/2 84/106/2
f 84/106/2 87/112/2 89/116/2
f 89/116/2 129/206/2 78/95/2
f 78/95/2 86/110/2 84/106/2
f 132/214/3 131/211/3 102/142/3
f 132/214/3 102/142/3 104/146/3
f 133/218/3 127/200/3 12/12/3
f 98/134/3 133/218/3 12/12/3
f 9/9/3 132/214/3 104/146/3
f 9/9/3 104/146/3 92/123/3
f 97/132/3 98/134/3 12/12/3
f 94/126/5 100/138/5 97/132/5
f 9/9/3 92/123/3 95/128/3
f 94/126/3 97/132/3 12/12/3
f 12/12/3 9/9/3 95/128/3
f 96/130/3 101/140/3 93/125/3
f 93/125/3 91/120/3 105/148/3
f 105/148/3 103/144/3 134/221/3
f 134/221/3 135/223/3 99/136/3
f 99/136/3 96/130/3 93/125/3
f 93/125/3 105/148/3 134/221/3
f 121/182/4 136/226/4 116/170/4
f 121/182/4 116/170/4 118/174/4
f 137/230/4 132/215/4 9/9/4
f 113/164/4 137/230/4 9/9/4
f 2/2/4 121/182/4 118/174/4
f 2/2/4 118/174/4 107/152/4
f 112/162/4 113/164/4 9/9/4
f 110/158/4 112/162/4 9/9/4
f 2/2/4 107/152/4 108/154/4
f 108/154/4 110/158/4 9/9/4
f 111/160/4 115/168/4 109/156/4
f 109/156/4 106/150/4 119/176/4
f 119/176/4 117/172/4 138/233/4
f 138/233/4 139/235/4 114/166/4
f 114/166/4 111/160/4 109/156/4
f 109/156/4 119/176/4 138/233/4
f 5/5/5 2/2/5 9/9/5
f 35/35/6 34/34/6 110/159/6
f 49/49/6 48/48/6 82/103/6
f 37/37/7 112/163/7 110/159/7
f 51/51/7 49/49/7 85/109/7
f 112/163/8 37/37/8 39/39/8
f 53/53/8 51/51/8 90/119/8
f 113/165/3 39/39/3 140/238/3
f 53/53/3 88/115/3 128/203/3
f 41/41/1 116/171/1 136/227/1
f 75/90/1 56/56/1 143/244/1
f 41/41/9 44/44/9 118/175/9
f 58/58/9 56/56/9 75/90/9
f 11/11/10 115/169/10 111/161/10
f 44/44/11 46/46/11 107/153/11
f 83/105/11 60/60/11 58/58/11
f 58/58/11 77/94/11 79/98/11
f 46/46/12 35/35/12 108/155/12
f 82/103/12 48/48/12 60/60/12
f 6/6/4 11/11/4 34/34/4
f 11/11/4 16/16/4 37/37/4
f 16/16/4 20/20/4 39/39/4
f 140/238/4 39/39/4 20/20/4
f 24/24/4 41/41/4 142/242/4
f 27/27/4 44/44/4 41/41/4
f 32/32/4 46/46/4 44/44/4
f 6/6/4 35/35/4 46/46/4
f 3/3/2 48/48/2 49/49/2
f 8/8/2 49/49/2 51/51/2
f 14/14/2 51/51/2 53/53/2
f 18/18/2 53/53/2 141/240/2
f 22/22/2 147/252/2 143/244/2
f 26/26/2 22/22/2 56/56/2
f 30/30/2 26/26/2 58/58/2
f 3/3/2 30/30/2 60/60/2
f 8/8/10 14/14/10 87/113/10
f 14/14/13 18/18/13 89/117/13
f 22/22/3 78/96/3 130/209/3
f 89/117/1 18/18/1 146/250/1
f 22/22/14 26/26/14 76/92/14
f 26/26/15 30/30/15 86/111/15
f 86/111/16 30/30/16 3/3/16
f 8/8/17 84/107/17 81/101/17
f 20/20/13 16/16/13 111/161/13
f 117/173/3 24/24/3 145/248/3
f 114/167/1 139/236/1 144/246/1
f 27/27/14 24/24/14 117/173/14
f 27/27/15 119/177/15 106/151/15
f 32/32/16 106/151/16 109/157/16
f 6/6/17 109/157/17 115/169/17
f 36/36/18 33/33/18 68/76/18
f 50/50/18 47/47/18 95/129/18
f 38/38/19 63/66/19 68/76/19
f 104/147/19 52/52/19 50/50/19
f 63/66/20 38/38/20 40/40/20
f 52/52/20 104/147/20 102/143/20
f 61/62/4 40/40/4 148/254/4
f 54/54/4 102/143/4 131/212/4
f 42/42/2 73/86/2 122/185/2
f 98/135/2 55/55/2 151/260/2
f 71/82/21 73/86/21 42/42/21
f 55/55/21 98/135/21 97/133/21
f 10/10/22 67/74/22 62/64/22
f 43/43/23 45/45/23 69/78/23
f 94/127/23 59/59/23 57/57/23
f 57/57/23 97/133/23 100/139/23
f 36/36/24 66/72/24 69/78/24
f 47/47/24 59/59/24 94/127/24
f 4/4/1 10/10/1 33/33/1
f 10/10/1 15/15/1 38/38/1
f 15/15/1 19/19/1 40/40/1
f 19/19/1 152/262/1 148/254/1
f 23/23/1 42/42/1 150/258/1
f 28/28/1 43/43/1 42/42/1
f 31/31/1 45/45/1 43/43/1
f 4/4/1 36/36/1 45/45/1
f 1/1/3 47/47/3 50/50/3
f 7/7/3 50/50/3 52/52/3
f 13/13/3 52/52/3 54/54/3
f 17/17/3 54/54/3 149/256/3
f 151/260/3 55/55/3 21/21/3
f 25/25/3 21/21/3 55/55/3
f 29/29/3 25/25/3 57/57/3
f 1/1/3 29/29/3 59/59/3
f 7/7/22 13/13/22 105/149/22
f 13/13/25 17/17/25 103/145/25
f 21/21/4 99/137/4 135/224/4
f 103/145/2 17/17/2 154/266/2
f 21/21/26 25/25/26 96/131/26
f 25/25/27 29/29/27 101/141/27
f 101/141/28 29/29/28 1/1/28
f 1/1/29 7/7/29 91/121/29
f 19/19/25 15/15/25 62/64/25
f 74/88/4 23/23/4 153/264/4
f 64/68/2 125/194/2 152/262/2
f 28/28/26 23/23/26 74/88/26
f 28/28/27 72/84/27 70/80/27
f 31/31/28 70/80/28 65/70/28
f 4/4/29 65/70/29 67/74/29
f 136/228/30 121/183/30 120/180/30
f 120/180/30 148/255/30 152/263/30
f 120/180/30 152/263/30 125/195/30
f 145/249/30 142/243/30 136/228/30
f 136/228/30 120/180/30 125/195/30
f 124/192/30 153/265/30 150/259/30
f 136/228/30 125/195/30 124/192/30
f 138/234/30 145/249/30 136/228/30
f 140/239/30 144/247/30 139/237/30
f 138/234/30 136/228/30 124/192/30
f 137/231/30 140/239/30 139/237/30
f 139/237/30 138/234/30 124/192/30
f 124/192/30 150/259/30 122/186/30
f 122/186/30 123/189/30 126/198/30
f 126/198/30 143/245/30 147/253/30
f 126/198/30 147/253/30 130/210/30
f 124/192/30 122/186/30 126/198/30
f 137/231/30 139/237/30 124/192/30
f 131/213/30 132/216/30 137/231/30
f 154/267/30 149/257/30 131/213/30
f 134/222/30 154/267/30 131/213/30
f 131/213/30 137/231/30 124/192/30
f 124/192/30 126/198/30 130/210/30
f 129/207/30 146/251/30 141/241/30
f 124/192/30 130/210/30 129/207/30
f 134/222/30 131/213/30 124/192/30
f 151/261/30 155/269/30 135/225/30
f 135/225/30 134/222/30 124/192/30
f 129/207/30 141/241/30 128/204/30
f 135/225/30 124/192/30 129/207/30
f 133/219/30 151/261/30 135/225/30
f 128/204/30 127/201/30 133/219/30
f 135/225/30 129/207/30 128/204/30
