# Blender 3.2.1
# www.blender.org
mtllib building.004.mtl
o Building.004
v -15.000000 0.000000 11.000000
v -15.000000 0.960000 11.000000
v -15.000000 0.000000 9.000000
v -15.000000 0.960000 9.000000
v -15.150000 0.000000 9.000000
v -15.150000 0.960000 9.000000
v -15.150000 0.000000 11.000000
v -15.150000 0.960000 11.000000
v -15.150000 0.000000 10.925000
v -15.150000 0.960000 10.925000
v -15.000000 0.000000 10.850000
v -15.000000 0.960000 10.850000
v -15.150000 0.960000 9.069375
v -15.000000 0.000000 9.138750
v -15.150000 0.000000 9.069375
v -15.000000 0.960000 9.138750
v -15.075000 0.960000 10.850000
v -15.075000 0.000000 10.850000
v -15.075000 0.000000 9.138750
v -15.075000 0.960000 9.138750
v -17.000000 0.000000 11.000000
v -17.000000 0.960000 11.000000
v -17.000000 0.000000 9.000000
v -17.000000 0.960000 9.000000
v -16.850000 0.000000 9.000000
v -16.850000 0.960000 9.000000
v -16.850000 0.000000 11.000000
v -16.850000 0.960000 11.000000
v -17.000000 0.000000 10.850000
v -17.000000 0.960000 10.850000
v -16.850000 0.960000 10.925000
v -16.850000 0.000000 10.925000
v -17.000000 0.000000 9.138750
v -17.000000 0.960000 9.138750
v -16.850000 0.960000 9.069375
v -16.850000 0.000000 9.069375
v -16.924999 0.960000 10.850000
v -16.924999 0.000000 10.850000
v -16.924999 0.000000 9.138750
v -16.924999 0.960000 9.138750
vn -0.0000 1.0000 -0.0000
vn -0.0000 -0.0000 1.0000
vn -1.0000 -0.0000 -0.0000
vn 1.0000 -0.0000 -0.0000
vn -0.0000 -1.0000 -0.0000
vn -0.0000 -0.0000 -1.0000
vt 0.697779 0.322657
vt 0.716874 0.303562
vt 0.697779 0.029873
vt 0.716874 0.048968
vt 0.955693 0.022543
vt 0.917504 0.060732
vt 0.955694 0.353516
vt 0.917504 0.315327
vt 0.955693 0.060732
vt 0.955694 0.315327
vt 0.659590 0.322657
vt 0.755063 0.303562
vt 0.659590 0.029873
vt 0.755063 0.048968
vt 0.659590 0.313110
vt 0.764610 0.303562
vt 0.492921 0.281138
vt 0.748975 0.618453
vt 0.659590 0.039421
vt 0.764610 0.048968
vt 0.516154 0.316499
vt 0.946802 0.618453
vt 0.697779 0.303562
vt 0.697779 0.048968
vt 0.964525 0.315327
vt 0.516154 0.552715
vt 0.496636 0.616660
vt 0.973356 0.022543
vt 0.899842 0.060732
vt 0.964525 0.060732
vt 0.492921 0.044922
vt 0.695140 0.616660
vt 0.973356 0.353516
vt 0.899842 0.315327
vt 0.678685 0.048968
vt 0.535249 0.326046
vt 0.226936 0.948560
vt 0.066273 0.948560
vt 0.678685 0.303562
vt 0.512016 0.271591
vt 0.880747 0.060732
vt 0.066273 0.811093
vt 0.973356 0.041637
vt 0.512016 0.053753
vt 0.535249 0.543884
vt 0.973356 0.334421
vt 0.880747 0.315327
vt 0.226936 0.811093
vt 0.855339 0.018155
vt 0.817150 0.056344
vt 0.855339 0.349128
vt 0.817150 0.310938
vt 0.610305 0.028402
vt 0.592642 0.046065
vt 0.610305 0.318322
vt 0.592642 0.300659
vt 0.648494 0.028402
vt 0.554453 0.046065
vt 0.648494 0.318322
vt 0.554453 0.300660
vt 0.855339 0.056344
vt 0.855339 0.310938
vt 0.874434 0.018155
vt 0.798055 0.056344
vt 0.874434 0.349128
vt 0.798055 0.310938
vt 0.083343 0.316499
vt 0.864886 0.310938
vt 0.946802 0.954759
vt 0.748975 0.954759
vt 0.060110 0.281138
vt 0.864886 0.056344
vt 0.610305 0.046065
vt 0.610305 0.300659
vt 0.648494 0.309491
vt 0.545622 0.300660
vt 0.083343 0.552715
vt 0.496636 0.954117
vt 0.695140 0.954116
vt 0.648494 0.037233
vt 0.545622 0.046065
vt 0.060110 0.044922
vt 0.778961 0.310938
vt 0.874434 0.330033
vt 0.064249 0.326046
vt 0.254952 0.950506
vt 0.874434 0.037249
vt 0.441643 0.950506
vt 0.778961 0.056344
vt 0.041016 0.271591
vt 0.441643 0.790769
vt 0.629399 0.046065
vt 0.041016 0.053753
vt 0.064249 0.543884
vt 0.629399 0.300659
vt 0.254952 0.790769
s 0
usemtl building.004
f 2/3/1 10/19/1 8/13/1
f 2/4/2 7/12/2 1/2/2
f 5/9/3 13/25/3 6/10/3
f 13/26/1 17/36/1 20/45/1
f 14/29/2 20/47/2 19/41/2
f 4/8/4 14/29/4 3/6/4
f 3/5/5 14/28/5 19/43/5
f 4/7/1 13/25/1 20/46/1
f 20/48/4 18/38/4 19/42/4
f 4/7/1 6/10/1 13/25/1
f 12/24/6 18/39/6 17/35/6
f 5/9/5 3/5/5 15/30/5
f 4/7/1 20/46/1 16/33/1
f 15/30/5 3/5/5 19/43/5
f 15/31/5 18/40/5 9/17/5
f 10/20/3 7/12/3 8/14/3
f 9/15/5 1/1/5 7/11/5
f 6/10/6 3/6/6 5/9/6
f 9/15/5 18/39/5 1/1/5
f 12/24/1 17/35/1 2/3/1
f 17/35/1 10/19/1 2/3/1
f 18/39/5 11/23/5 1/1/5
f 12/24/4 1/2/4 11/23/4
f 22/51/1 28/62/1 31/68/1
f 27/61/2 22/52/2 21/50/2
f 35/76/4 25/58/4 26/60/4
f 9/17/5 36/82/5 15/31/5
f 37/85/1 35/77/1 40/94/1
f 31/67/1 13/26/1 35/77/1
f 35/78/6 15/32/6 36/79/6
f 40/95/2 33/73/2 39/92/2
f 33/73/3 24/56/3 23/54/3
f 23/53/5 39/92/5 33/73/5
f 24/55/1 40/95/1 35/75/1
f 38/88/3 40/96/3 39/91/3
f 24/55/1 35/75/1 26/59/1
f 38/89/6 30/66/6 37/83/6
f 25/57/5 36/80/5 23/53/5
f 24/55/1 34/74/1 40/95/1
f 36/80/5 39/92/5 23/53/5
f 36/82/5 38/90/5 39/93/5
f 27/61/4 31/68/4 28/62/4
f 32/72/5 27/61/5 21/49/5
f 23/54/6 26/60/6 25/58/6
f 32/72/5 21/49/5 38/87/5
f 30/65/1 22/51/1 37/84/1
f 9/18/2 31/69/2 32/70/2
f 37/84/1 22/51/1 31/68/1
f 38/87/5 21/49/5 29/63/5
f 21/50/3 30/66/3 29/64/3
f 2/4/2 8/14/2 7/12/2
f 5/9/3 15/30/3 13/25/3
f 13/26/1 10/21/1 17/36/1
f 14/29/2 16/34/2 20/47/2
f 4/8/4 16/34/4 14/29/4
f 20/48/4 17/37/4 18/38/4
f 12/24/6 11/23/6 18/39/6
f 15/31/5 19/44/5 18/40/5
f 10/20/3 9/16/3 7/12/3
f 6/10/6 4/8/6 3/6/6
f 12/24/4 2/4/4 1/2/4
f 27/61/2 28/62/2 22/52/2
f 35/76/4 36/81/4 25/58/4
f 9/17/5 32/71/5 36/82/5
f 37/85/1 31/67/1 35/77/1
f 31/67/1 10/21/1 13/26/1
f 35/78/6 13/27/6 15/32/6
f 40/95/2 34/74/2 33/73/2
f 33/73/3 34/74/3 24/56/3
f 38/88/3 37/86/3 40/96/3
f 38/89/6 29/64/6 30/66/6
f 36/82/5 32/71/5 38/90/5
f 27/61/4 32/72/4 31/68/4
f 23/54/6 24/56/6 26/60/6
f 9/18/2 10/22/2 31/69/2
f 21/50/3 22/52/3 30/66/3
