# Blender 3.2.1
# www.blender.org
mtllib house.002.mtl
o House.002
v 5.708893 1.007919 0.819175
v 5.318467 1.195498 0.819175
v 4.998472 0.440166 0.442385
v 4.998472 0.440166 0.753723
v 4.919458 1.011460 0.819175
v 5.708893 0.941017 0.819175
v 5.318467 1.128597 0.819175
v 4.919458 0.944558 0.819175
v 4.999962 0.000000 -0.442385
v 5.636971 0.000000 0.442385
v 5.508737 0.000000 0.753723
v 4.998472 0.000000 0.442385
v 4.998472 0.000000 0.753723
v 4.998472 0.440166 -0.440135
v 5.592703 0.366003 0.753723
v 5.592703 0.000000 0.753723
v 5.408735 0.000000 0.753723
v 5.508737 0.366003 0.725129
v 5.508737 0.000000 0.725129
v 5.408735 0.366003 0.725129
v 5.592703 0.366003 0.725129
v 5.592703 0.000000 0.725129
v 5.408735 0.000000 0.725129
v 5.365091 0.000000 1.000000
v 5.365091 0.039286 1.000000
v 5.614801 0.000000 1.000000
v 5.614801 0.039286 1.000000
v 5.614801 0.000000 0.608704
v 5.614801 0.039286 0.608393
v 5.365091 0.039286 0.608393
v 5.365091 0.000000 0.608393
v 4.998472 0.981174 0.753723
v 5.318467 1.195498 -0.487345
v 5.318467 1.128597 -0.487345
v 4.919458 1.011460 -0.487345
v 5.708893 1.007919 -0.487345
v 5.708893 0.941017 -0.487345
v 4.919458 0.944558 -0.487345
v 5.408735 0.366003 0.753723
v 5.318467 1.128597 0.753723
v 5.636971 0.000000 0.753723
v 5.636971 0.977633 0.753723
v 5.508737 0.366003 0.753723
v 5.636971 0.000000 -0.440135
v 5.636971 0.977633 -0.440135
v 4.998472 0.981174 -0.440135
v 5.318467 1.128597 -0.440135
v 5.241293 0.883502 0.746119
v 5.241293 0.690645 0.746119
v 5.417661 0.883502 0.746119
v 5.417661 0.690645 0.746119
v 5.260062 0.864733 0.766581
v 5.260062 0.709413 0.766581
v 5.398892 0.864733 0.766581
v 5.417661 0.883502 0.766581
v 5.398892 0.709413 0.766581
v 5.241293 0.883502 0.766581
v 5.241293 0.690645 0.766581
v 5.417661 0.690645 0.766581
v 5.635103 0.883502 0.513473
v 5.635103 0.538319 0.513473
v 5.635103 0.883502 0.337105
v 5.635103 0.538319 0.337105
v 5.655565 0.864733 0.494704
v 5.655565 0.557088 0.494704
v 5.655565 0.864733 0.355874
v 5.655565 0.883502 0.337105
v 5.655565 0.557088 0.355874
v 5.655565 0.883502 0.513473
v 5.655565 0.538319 0.513473
v 5.655565 0.538319 0.337105
v 5.635103 0.883502 -0.024173
v 5.635103 0.538319 -0.024173
v 5.635103 0.883502 -0.200541
v 5.635103 0.538319 -0.200541
v 5.655565 0.864733 -0.042941
v 5.655565 0.557088 -0.042941
v 5.655565 0.864733 -0.181772
v 5.655565 0.883502 -0.200541
v 5.655565 0.557088 -0.181772
v 5.655565 0.883502 -0.024173
v 5.655565 0.538319 -0.024173
v 5.655565 0.538319 -0.200541
v 5.417146 0.883977 -0.437521
v 5.418177 0.691122 -0.437436
v 5.240780 0.883034 -0.437492
v 5.241812 0.690179 -0.437407
v 5.398474 0.865099 -0.457971
v 5.399305 0.709781 -0.457903
v 5.259646 0.864356 -0.457948
v 5.240777 0.883024 -0.457954
v 5.260477 0.709039 -0.457880
v 5.417142 0.883968 -0.457983
v 5.418174 0.691113 -0.457898
v 5.241808 0.690170 -0.457869
v 5.099888 0.521416 0.752398
v 5.099888 0.176234 0.752398
v 5.276257 0.521416 0.752398
v 5.276257 0.176234 0.752398
v 5.118658 0.502648 0.772860
v 5.118658 0.195003 0.772860
v 5.257488 0.502648 0.772860
v 5.276257 0.521416 0.772860
v 5.257488 0.195003 0.772860
v 5.099888 0.521416 0.772860
v 5.099888 0.176234 0.772860
v 5.276257 0.176234 0.772860
vn -0.0000 -0.0000 -1.0000
vn 1.0000 -0.0000 -0.0000
vn 0.4188 -0.9081 -0.0024
vn -0.0000 -1.0000 -0.0000
vn -1.0000 -0.0000 -0.0000
vn -0.0000 -0.0000 1.0000
vn -0.0000 1.0000 -0.0000
vn -0.4283 -0.9036 -0.0000
vn 0.0035 0.0051 -1.0000
vn 0.4188 -0.9081 -0.0000
vn 0.4331 0.9014 -0.0000
vn -0.4331 -0.9014 -0.0000
vn -0.4188 0.9081 -0.0000
vn 0.4184 -0.9082 -0.0000
vn -0.0053 1.0000 -0.0004
vn 1.0000 0.0053 -0.0002
vn -0.0002 -0.0004 -1.0000
vn 0.0053 -1.0000 0.0004
vn -1.0000 -0.0053 0.0002
vn -1.0000 -0.0034 -0.0017
vn -0.4329 -0.9010 -0.0284
vt 0.052418 0.648698
vt 0.065829 0.616102
vt 0.514268 0.010868
vt 0.444759 0.010868
vt 0.756723 0.514422
vt 0.854282 0.005220
vt 0.047113 0.585582
vt 0.459128 0.128683
vt 0.047340 0.650917
vt 0.034099 0.685932
vt 0.905641 0.453737
vt 0.459128 0.225388
vt 0.019402 0.551021
vt 0.059011 0.616692
vt 0.905641 0.355635
vt 0.041986 0.584572
vt 0.582585 0.321460
vt 0.919261 0.244619
vt 0.974882 0.448769
vt 0.724804 0.518994
vt 0.831988 0.615445
vt 0.653695 0.588503
vt 0.582253 0.518994
vt 0.514268 0.109140
vt 0.582253 0.588503
vt 0.444759 0.109140
vt 0.755167 0.603119
vt 0.919593 0.342892
vt 0.854282 0.271761
vt 0.879666 0.453803
vt 0.891507 0.501624
vt 0.714921 0.588503
vt 0.893616 0.590232
vt 0.592874 0.588503
vt 0.764753 0.603287
vt 0.928243 0.994910
vt 0.830723 0.502895
vt 0.928243 0.896639
vt 0.831671 0.607355
vt 0.867422 0.994910
vt 0.772810 0.519210
vt 0.989469 0.994910
vt 0.884811 0.507167
vt 0.989469 0.896639
vt 0.888460 0.585926
vt 0.771939 0.597826
vt 0.867422 0.896639
vt 0.066805 0.810770
vt 0.075534 0.804307
vt 0.075067 0.813349
vt 0.212977 0.811400
vt 0.212511 0.820442
vt 0.000000 0.000000
vt 0.212331 0.830866
vt 0.072031 0.824919
vt 0.063519 0.821300
vt 0.733496 0.005220
vt 0.920254 0.375078
vt 0.763090 0.218266
vt 0.744957 0.383791
vt 0.152798 0.719569
vt 0.152798 0.511545
vt 0.140721 0.501641
vt 0.139717 0.725869
vt 0.087890 0.540336
vt 0.100149 0.680193
vt 0.097238 0.682561
vt 0.085398 0.538040
vt 0.767161 0.514142
vt 0.444515 0.225389
vt 0.920254 0.453737
vt 0.684431 0.218266
vt 0.821134 0.341613
vt 0.724804 0.588503
vt 0.673877 0.023563
vt 0.900918 0.590179
vt 0.605738 0.218266
vt 0.444509 0.146697
vt 0.673877 0.132696
vt 0.900918 0.376377
vt 0.830404 0.496098
vt 0.777042 0.244621
vt 0.724804 0.321962
vt 0.540607 0.023563
vt 0.777042 0.462887
vt 0.605738 0.484806
vt 0.540607 0.132696
vt 0.919593 0.463677
vt 0.733496 0.271761
vt 0.763090 0.484806
vt 0.848151 0.496591
vt 0.684431 0.484806
vt 0.681605 0.989915
vt 0.681605 0.938701
vt 0.729415 0.989874
vt 0.729415 0.938660
vt 0.263973 0.375573
vt 0.691271 0.979651
vt 0.263973 0.410249
vt 0.691798 0.948411
vt 0.232978 0.375573
vt 0.719222 0.980164
vt 0.723381 0.984829
vt 0.232978 0.410249
vt 0.719748 0.948924
vt 0.686615 0.983820
vt 0.687639 0.943746
vt 0.724405 0.944755
vt 0.733149 0.836861
vt 0.733149 0.921069
vt 0.684479 0.837055
vt 0.684479 0.921263
vt 0.029897 0.402701
vt 0.723451 0.847424
vt 0.098582 0.402701
vt 0.722983 0.911125
vt 0.029897 0.433696
vt 0.694644 0.846999
vt 0.690370 0.842164
vt 0.098582 0.433696
vt 0.694176 0.910700
vt 0.728236 0.843096
vt 0.727258 0.915960
vt 0.689392 0.915028
vt 0.668041 0.899560
vt 0.668041 0.983768
vt 0.619371 0.899753
vt 0.619371 0.983961
vt 0.161538 0.114403
vt 0.658343 0.910122
vt 0.161538 0.183088
vt 0.657875 0.973823
vt 0.130543 0.114403
vt 0.629536 0.909698
vt 0.625262 0.904863
vt 0.130543 0.183088
vt 0.629068 0.973399
vt 0.663128 0.905795
vt 0.662149 0.978658
vt 0.624284 0.977726
vt 0.743612 0.988266
vt 0.743612 0.937051
vt 0.791423 0.988224
vt 0.791423 0.937009
vt 0.068299 0.072190
vt 0.753279 0.978002
vt 0.033622 0.072190
vt 0.753806 0.946761
vt 0.068299 0.041195
vt 0.781229 0.978514
vt 0.785388 0.983179
vt 0.033622 0.041195
vt 0.781756 0.947273
vt 0.748623 0.982171
vt 0.749647 0.942096
vt 0.786412 0.943104
vt 0.733149 0.836861
vt 0.733149 0.921069
vt 0.684479 0.837055
vt 0.684479 0.921263
vt 0.029897 0.402701
vt 0.723451 0.847424
vt 0.098582 0.402701
vt 0.722983 0.911125
vt 0.029897 0.433696
vt 0.694644 0.846999
vt 0.690370 0.842164
vt 0.098582 0.433696
vt 0.694176 0.910700
vt 0.728236 0.843096
vt 0.727258 0.915960
vt 0.689392 0.915028
s 0
usemtl house.002
f 45/85/1 44/82/1 14/28/1
f 37/67/2 1/1/2 6/9/2
f 32/58/3 7/11/3 8/15/3
f 10/20/4 41/74/4 16/32/4
f 12/23/4 17/34/4 13/25/4
f 3/3/5 13/26/5 4/4/5
f 39/69/6 13/27/6 17/35/6
f 11/21/7 23/46/7 17/35/7
f 17/35/2 20/41/2 39/69/2
f 41/76/6 15/31/6 16/33/6
f 10/20/4 11/22/4 12/23/4
f 44/83/4 12/23/4 9/17/4
f 42/78/8 7/12/8 40/70/8
f 15/31/5 22/45/5 16/33/5
f 12/23/4 11/22/4 17/34/4
f 35/65/5 8/16/5 5/7/5
f 18/36/6 22/44/6 21/42/6
f 20/40/6 19/38/6 18/36/6
f 16/33/7 19/39/7 11/21/7
f 39/69/4 18/37/4 43/81/4
f 43/81/4 21/43/4 15/31/4
f 27/52/6 24/49/6 26/51/6
f 28/53/2 27/52/2 26/51/2
f 30/55/7 27/52/7 29/54/7
f 25/50/5 31/56/5 24/48/5
f 14/28/9 44/82/9 9/18/9
f 40/72/8 45/86/8 42/77/8
f 45/85/1 14/28/1 46/88/1
f 44/84/2 42/79/2 41/75/2
f 34/64/1 36/66/1 37/67/1
f 34/63/1 35/65/1 33/62/1
f 38/68/10 7/13/10 8/16/10
f 36/66/11 2/2/11 1/1/11
f 34/64/12 6/9/12 7/10/12
f 33/62/13 5/7/13 2/2/13
f 46/88/1 47/91/1 45/85/1
f 46/89/5 4/6/5 32/57/5
f 32/59/14 47/92/14 40/72/14
f 5/7/6 7/14/6 2/2/6
f 7/14/6 1/1/6 2/2/6
f 40/73/6 39/69/6 43/81/6
f 4/5/6 39/69/6 32/60/6
f 43/81/6 42/80/6 40/73/6
f 15/31/6 41/76/6 42/80/6
f 48/93/7 55/103/7 50/95/7
f 49/94/5 57/106/5 48/93/5
f 52/97/6 56/104/6 54/101/6
f 51/96/4 58/107/4 49/94/4
f 50/95/2 59/108/2 51/96/2
f 52/98/6 58/107/6 53/100/6
f 54/102/6 57/106/6 52/98/6
f 53/100/6 59/108/6 56/105/6
f 56/105/6 55/103/6 54/102/6
f 60/109/7 67/119/7 62/111/7
f 61/110/6 69/122/6 60/109/6
f 64/113/2 68/120/2 66/117/2
f 63/112/4 70/123/4 61/110/4
f 62/111/1 71/124/1 63/112/1
f 65/116/2 69/122/2 70/123/2
f 64/114/2 67/119/2 69/122/2
f 65/116/2 71/124/2 68/121/2
f 68/121/2 67/119/2 66/118/2
f 72/125/7 79/135/7 74/127/7
f 73/126/6 81/138/6 72/125/6
f 76/129/2 80/136/2 78/133/2
f 75/128/4 82/139/4 73/126/4
f 74/127/1 83/140/1 75/128/1
f 77/132/2 81/138/2 82/139/2
f 78/134/2 81/138/2 76/130/2
f 77/132/2 83/140/2 80/137/2
f 80/137/2 79/135/2 78/134/2
f 84/141/15 91/151/15 86/143/15
f 85/142/16 93/154/16 84/141/16
f 88/145/17 92/152/17 90/149/17
f 85/142/18 95/156/18 94/155/18
f 86/143/19 95/156/19 87/144/19
f 88/146/17 94/155/17 89/148/17
f 90/150/17 93/154/17 88/146/17
f 92/153/17 94/155/17 95/156/17
f 92/153/17 91/151/17 90/150/17
f 96/157/7 103/167/7 98/159/7
f 97/158/5 105/170/5 96/157/5
f 100/161/6 104/168/6 102/165/6
f 99/160/4 106/171/4 97/158/4
f 98/159/2 107/172/2 99/160/2
f 101/164/6 105/170/6 106/171/6
f 100/162/6 103/167/6 105/170/6
f 101/164/6 107/172/6 104/169/6
f 104/169/6 103/167/6 102/166/6
f 12/24/20 14/30/20 9/19/20
f 37/67/2 36/66/2 1/1/2
f 32/58/14 40/71/14 7/11/14
f 3/3/5 12/24/5 13/26/5
f 39/69/6 4/5/6 13/27/6
f 11/21/7 19/39/7 23/46/7
f 17/35/2 23/46/2 20/41/2
f 10/20/4 16/32/4 11/22/4
f 44/83/4 10/20/4 12/23/4
f 42/78/21 6/8/21 7/12/21
f 15/31/5 21/43/5 22/45/5
f 35/65/5 38/68/5 8/16/5
f 18/36/6 19/38/6 22/44/6
f 20/40/6 23/47/6 19/38/6
f 16/33/7 22/45/7 19/39/7
f 39/69/4 20/41/4 18/37/4
f 43/81/4 18/37/4 21/43/4
f 27/52/6 25/50/6 24/49/6
f 28/53/2 29/54/2 27/52/2
f 30/55/7 25/50/7 27/52/7
f 25/50/5 30/55/5 31/56/5
f 40/72/8 47/92/8 45/86/8
f 44/84/2 45/87/2 42/79/2
f 34/64/1 33/61/1 36/66/1
f 34/63/1 38/68/1 35/65/1
f 38/68/10 34/63/10 7/13/10
f 36/66/11 33/61/11 2/2/11
f 34/64/12 37/67/12 6/9/12
f 33/62/13 35/65/13 5/7/13
f 46/89/5 14/29/5 4/6/5
f 32/59/14 46/90/14 47/92/14
f 5/7/6 8/16/6 7/14/6
f 7/14/6 6/9/6 1/1/6
f 40/73/6 32/60/6 39/69/6
f 43/81/6 15/31/6 42/80/6
f 48/93/7 57/106/7 55/103/7
f 49/94/5 58/107/5 57/106/5
f 52/97/6 53/99/6 56/104/6
f 51/96/4 59/108/4 58/107/4
f 50/95/2 55/103/2 59/108/2
f 52/98/6 57/106/6 58/107/6
f 54/102/6 55/103/6 57/106/6
f 53/100/6 58/107/6 59/108/6
f 56/105/6 59/108/6 55/103/6
f 60/109/7 69/122/7 67/119/7
f 61/110/6 70/123/6 69/122/6
f 64/113/2 65/115/2 68/120/2
f 63/112/4 71/124/4 70/123/4
f 62/111/1 67/119/1 71/124/1
f 65/116/2 64/114/2 69/122/2
f 64/114/2 66/118/2 67/119/2
f 65/116/2 70/123/2 71/124/2
f 68/121/2 71/124/2 67/119/2
f 72/125/7 81/138/7 79/135/7
f 73/126/6 82/139/6 81/138/6
f 76/129/2 77/131/2 80/136/2
f 75/128/4 83/140/4 82/139/4
f 74/127/1 79/135/1 83/140/1
f 77/132/2 76/130/2 81/138/2
f 78/134/2 79/135/2 81/138/2
f 77/132/2 82/139/2 83/140/2
f 80/137/2 83/140/2 79/135/2
f 84/141/15 93/154/15 91/151/15
f 85/142/16 94/155/16 93/154/16
f 88/145/17 89/147/17 92/152/17
f 85/142/18 87/144/18 95/156/18
f 86/143/19 91/151/19 95/156/19
f 88/146/17 93/154/17 94/155/17
f 90/150/17 91/151/17 93/154/17
f 92/153/17 89/148/17 94/155/17
f 92/153/17 95/156/17 91/151/17
f 96/157/7 105/170/7 103/167/7
f 97/158/5 106/171/5 105/170/5
f 100/161/6 101/163/6 104/168/6
f 99/160/4 107/172/4 106/171/4
f 98/159/2 103/167/2 107/172/2
f 101/164/6 100/162/6 105/170/6
f 100/162/6 102/166/6 103/167/6
f 101/164/6 106/171/6 107/172/6
f 104/169/6 107/172/6 103/167/6
f 12/24/5 3/3/5 14/30/5
