# Blender 3.2.0
# www.blender.org
mtllib road.004.mtl
o Road.004
v 11.000000 0.000000 -5.000000
v 11.000000 0.039286 -5.000000
v 11.000000 0.000000 -7.000000
v 11.000000 0.039286 -7.000000
v 13.000000 0.000000 -5.000000
v 13.000000 0.039286 -5.000000
v 13.000000 0.000000 -7.000000
v 13.000000 0.039286 -7.000000
v 12.740157 0.000000 -7.000000
v 11.259843 0.039286 -7.000000
v 11.259843 0.000000 -5.000000
v 11.259843 0.039286 -5.000000
v 11.259843 0.000000 -7.000000
v 11.250000 0.000000 -7.000000
v 11.250000 0.039286 -5.000000
v 11.250000 0.039286 -7.000000
v 11.250000 0.000000 -5.000000
v 12.740157 0.039286 -7.000000
v 12.740157 0.000000 -5.000000
v 12.740157 0.039286 -5.000000
v 12.750000 0.039286 -7.000000
v 12.750000 0.000000 -5.000000
v 12.750000 0.000000 -7.000000
v 12.750000 0.039286 -5.000000
v 11.000000 0.000000 -6.739481
v 11.000000 0.015460 -6.739481
v 13.000000 0.000000 -5.260519
v 13.000000 0.015460 -6.739481
v 11.259843 0.015460 -6.739481
v 11.250000 0.015460 -6.739481
v 12.740157 0.015460 -6.739481
v 12.750000 0.015460 -6.739481
v 11.000000 0.000000 -5.260519
v 13.000000 0.015460 -5.260519
v 11.259843 0.015460 -5.260519
v 11.250000 0.015460 -5.260519
v 12.740157 0.015460 -5.260519
v 12.750000 0.015460 -5.260519
v 11.000000 0.015460 -5.260519
v 11.000000 0.000000 -5.250000
v 13.000000 0.039286 -5.250000
v 11.259843 0.039286 -5.250000
v 11.250000 0.039286 -5.250000
v 12.740157 0.039286 -5.250000
v 12.750000 0.039286 -5.250000
v 11.000000 0.039286 -5.250000
v 13.000000 0.000000 -5.250000
v 13.000000 0.000000 -6.739481
v 11.000000 0.039286 -6.750000
v 13.000000 0.000000 -6.750000
v 11.000000 0.000000 -6.750000
v 13.000000 0.039286 -6.750000
v 11.259843 0.039286 -6.750000
v 11.250000 0.039286 -6.750000
v 12.740157 0.039286 -6.750000
v 12.750000 0.039286 -6.750000
vn -1.0000 -0.0000 -0.0000
vn -0.0000 -0.0000 -1.0000
vn 1.0000 -0.0000 -0.0000
vn -0.0000 -0.0000 1.0000
vn -0.0000 1.0000 -0.0000
vn -0.0000 0.4039 -0.9148
vn -0.0000 0.4038 -0.9148
vn -0.0000 0.4039 0.9148
vn -0.0000 0.4038 0.9148
vn -0.0000 0.4040 0.9148
vt 0.818186 0.040950
vt 0.804952 0.054231
vt 0.961069 0.928172
vt 0.950609 0.915320
vt 0.814638 0.928174
vt 0.804178 0.915323
vt 0.964618 0.040950
vt 0.951385 0.054229
vt 0.988699 0.154957
vt 0.970485 0.831027
vt 0.842267 0.154964
vt 0.824396 0.156470
vt 0.988699 0.832846
vt 0.988212 0.837488
vt 0.824213 0.151977
vt 0.970260 0.835383
vt 0.841867 0.150414
vt 0.970829 0.156462
vt 0.842267 0.832853
vt 0.824054 0.831034
vt 0.970645 0.151970
vt 0.841780 0.837495
vt 0.988299 0.150409
vt 0.823830 0.835388
vt 0.871624 0.941536
vt 0.650955 0.917058
vt 0.651027 0.906281
vt 0.873924 0.934882
vt 0.033573 0.047227
vt 0.725199 0.941537
vt 0.651041 0.057846
vt 0.862693 0.046353
vt 0.651114 0.791116
vt 0.848779 0.834331
vt 0.651000 0.801893
vt 0.849265 0.839018
vt 0.650955 0.173011
vt 0.842267 0.155522
vt 0.651068 0.162233
vt 0.842625 0.151014
vt 0.033413 0.917217
vt 0.712521 0.037580
vt 0.033501 0.058005
vt 0.727499 0.934883
vt 0.033573 0.791275
vt 0.695828 0.155530
vt 0.033459 0.802052
vt 0.696186 0.151022
vt 0.033414 0.173170
vt 0.702355 0.834340
vt 0.033527 0.162393
vt 0.702841 0.839026
vt 0.033486 0.906439
vt 0.716255 0.046354
vt 0.718491 0.035039
vt 0.734934 0.928912
vt 0.707540 0.156321
vt 0.707677 0.151877
vt 0.714501 0.833176
vt 0.714822 0.837536
vt 0.726097 0.053617
vt 0.729726 0.943102
vt 0.651114 0.047069
vt 0.858959 0.037579
vt 0.881361 0.928912
vt 0.864929 0.035039
vt 0.876152 0.943102
vt 0.872535 0.053616
vt 0.860926 0.833168
vt 0.861247 0.837528
vt 0.853978 0.156313
vt 0.854115 0.151868
s 0
usemtl road.004
f 49/65/1 3/3/1 51/67/1
f 21/21/2 7/7/2 23/23/2
f 41/56/3 5/5/3 47/62/3
f 15/15/4 1/1/4 17/17/4
f 46/61/5 15/15/5 43/58/5
f 42/57/5 20/20/5 44/59/5
f 20/20/4 11/11/4 19/19/4
f 13/13/2 10/10/2 9/9/2
f 16/16/2 13/13/2 14/14/2
f 4/4/2 14/14/2 3/3/2
f 43/58/5 12/12/5 42/57/5
f 12/12/4 17/17/4 11/11/4
f 24/24/4 19/19/4 22/22/4
f 44/59/5 24/24/5 45/60/5
f 9/9/2 10/10/2 18/18/2
f 45/60/5 6/6/5 41/56/5
f 6/6/4 22/22/4 5/5/4
f 18/18/2 23/23/2 9/9/2
f 48/63/3 28/31/3 27/29/3
f 39/53/1 25/26/1 33/41/1
f 40/55/1 39/54/1 33/42/1
f 32/39/5 34/43/5 28/31/5
f 31/37/5 38/51/5 32/39/5
f 30/35/5 35/45/5 29/33/5
f 29/33/5 37/49/5 31/37/5
f 26/27/5 36/47/5 30/35/5
f 27/29/3 28/31/3 34/43/3
f 2/2/1 40/55/1 1/1/1
f 38/52/6 41/56/6 34/44/6
f 37/50/6 45/60/6 38/52/6
f 36/48/7 42/57/7 35/46/7
f 35/46/6 44/59/6 37/50/6
f 39/54/6 43/58/6 36/48/6
f 34/44/3 47/62/3 27/30/3
f 50/66/3 28/32/3 48/64/3
f 49/65/8 30/36/8 54/70/8
f 53/69/8 31/38/8 55/71/8
f 54/70/9 29/34/9 53/69/9
f 55/71/8 32/40/8 56/72/8
f 56/72/8 28/32/8 52/68/8
f 21/21/5 52/68/5 8/8/5
f 18/18/5 56/72/5 21/21/5
f 16/16/5 53/69/5 10/10/5
f 10/10/5 55/71/5 18/18/5
f 4/4/5 54/70/5 16/16/5
f 8/8/3 50/66/3 7/7/3
f 26/28/1 51/67/1 25/25/1
f 49/65/1 4/4/1 3/3/1
f 21/21/2 8/8/2 7/7/2
f 41/56/3 6/6/3 5/5/3
f 15/15/4 2/2/4 1/1/4
f 46/61/5 2/2/5 15/15/5
f 42/57/5 12/12/5 20/20/5
f 20/20/4 12/12/4 11/11/4
f 16/16/2 10/10/2 13/13/2
f 4/4/2 16/16/2 14/14/2
f 43/58/5 15/15/5 12/12/5
f 12/12/4 15/15/4 17/17/4
f 24/24/4 20/20/4 19/19/4
f 44/59/5 20/20/5 24/24/5
f 45/60/5 24/24/5 6/6/5
f 6/6/4 24/24/4 22/22/4
f 18/18/2 21/21/2 23/23/2
f 39/53/1 26/27/1 25/26/1
f 40/55/1 46/61/1 39/54/1
f 32/39/5 38/51/5 34/43/5
f 31/37/5 37/49/5 38/51/5
f 30/35/5 36/47/5 35/45/5
f 29/33/5 35/45/5 37/49/5
f 26/27/5 39/53/5 36/47/5
f 2/2/1 46/61/1 40/55/1
f 38/52/6 45/60/6 41/56/6
f 37/50/6 44/59/6 45/60/6
f 36/48/6 43/58/6 42/57/6
f 35/46/6 42/57/6 44/59/6
f 39/54/6 46/61/6 43/58/6
f 34/44/3 41/56/3 47/62/3
f 50/66/3 52/68/3 28/32/3
f 49/65/8 26/28/8 30/36/8
f 53/69/8 29/34/8 31/38/8
f 54/70/10 30/36/10 29/34/10
f 55/71/8 31/38/8 32/40/8
f 56/72/8 32/40/8 28/32/8
f 21/21/5 56/72/5 52/68/5
f 18/18/5 55/71/5 56/72/5
f 16/16/5 54/70/5 53/69/5
f 10/10/5 53/69/5 55/71/5
f 4/4/5 49/65/5 54/70/5
f 8/8/3 52/68/3 50/66/3
f 26/28/1 49/65/1 51/67/1
