# Blender 3.2.0
# www.blender.org
mtllib road.005.mtl
o Road.005
v 11.000000 0.000000 -8.000000
v 11.000000 0.039286 -8.000000
v 11.000000 0.000000 -10.000000
v 11.000000 0.039286 -10.000000
v 13.000000 0.000000 -8.000000
v 13.000000 0.039286 -8.000000
v 13.000000 0.000000 -10.000000
v 13.000000 0.039286 -10.000000
v 12.740157 0.000000 -10.000000
v 11.259843 0.039286 -10.000000
v 11.259843 0.000000 -8.000000
v 11.259843 0.039286 -8.000000
v 11.259843 0.000000 -10.000000
v 11.250000 0.000000 -10.000000
v 11.250000 0.039286 -8.000000
v 11.250000 0.039286 -10.000000
v 11.250000 0.000000 -8.000000
v 12.740157 0.039286 -10.000000
v 12.740157 0.000000 -8.000000
v 12.740157 0.039286 -8.000000
v 12.750000 0.039286 -10.000000
v 12.750000 0.000000 -8.000000
v 12.750000 0.000000 -10.000000
v 12.750000 0.039286 -8.000000
v 11.000000 0.000000 -9.739481
v 11.000000 0.039286 -9.739481
v 13.000000 0.000000 -8.260519
v 13.000000 0.039286 -9.739481
v 11.259843 0.039286 -9.739481
v 11.250000 0.039286 -9.739481
v 12.740157 0.039286 -9.739481
v 12.750000 0.039286 -9.739481
v 11.000000 0.000000 -8.260519
v 13.000000 0.039286 -8.260519
v 11.259843 0.039286 -8.260519
v 11.250000 0.039286 -8.260519
v 12.740157 0.039286 -8.260519
v 12.750000 0.039286 -8.260519
v 11.000000 0.039286 -8.260519
v 11.000000 0.000000 -8.250000
v 13.000000 0.039286 -8.250000
v 11.259843 0.039286 -8.250000
v 11.250000 0.039286 -8.250000
v 12.740157 0.039286 -8.250000
v 12.750000 0.039286 -8.250000
v 11.000000 0.039286 -8.250000
v 13.000000 0.000000 -8.250000
v 13.000000 0.000000 -9.739481
v 11.000000 0.039286 -9.750000
v 13.000000 0.000000 -9.750000
v 11.000000 0.000000 -9.750000
v 13.000000 0.039286 -9.750000
v 11.259843 0.039286 -9.750000
v 11.250000 0.039286 -9.750000
v 12.740157 0.039286 -9.750000
v 12.750000 0.039286 -9.750000
vn -1.0000 -0.0000 -0.0000
vn -0.0000 -0.0000 -1.0000
vn 1.0000 -0.0000 -0.0000
vn -0.0000 -0.0000 1.0000
vn -0.0000 1.0000 -0.0000
vt 0.000000 0.490178
vt 0.000000 0.000000
vt 0.000000 0.509822
vt 0.000000 0.490178
vt 1.000000 0.490178
vt 1.000000 0.509822
vt 0.000000 0.509822
vt 0.000000 1.000000
vt 1.000000 0.490178
vt 0.000000 0.490178
vt 0.000000 0.509822
vt 1.000000 0.000000
vt 1.000000 0.509822
vt 1.000000 0.490178
vt 1.000000 1.000000
vt 1.000000 0.509822
vt 0.870079 0.490178
vt 0.129921 0.509822
vt 0.129921 1.000000
vt 0.129921 0.490178
vt 0.129921 0.000000
vt 0.129921 0.509822
vt 0.129921 0.490178
vt 0.125000 0.490178
vt 0.125000 0.000000
vt 0.125000 0.509822
vt 0.125000 0.509822
vt 0.125000 1.000000
vt 0.125000 0.490178
vt 0.870079 0.509822
vt 0.870079 1.000000
vt 0.870079 0.490178
vt 0.870079 0.509822
vt 0.870079 0.000000
vt 0.875000 0.509822
vt 0.875000 1.000000
vt 0.875000 0.490178
vt 0.875000 0.490178
vt 0.875000 0.000000
vt 0.875000 0.509822
vt 0.869740 0.490178
vt 0.000000 0.869740
vt 0.869740 0.509822
vt 0.130260 0.490178
vt 0.869740 0.509822
vt 1.000000 0.869740
vt 0.129921 0.869740
vt 0.125000 0.869740
vt 0.870079 0.869740
vt 0.875000 0.869740
vt 0.130260 0.490178
vt 1.000000 0.130260
vt 0.130260 0.509822
vt 0.129921 0.130260
vt 0.125000 0.130260
vt 0.870079 0.130260
vt 0.875000 0.130260
vt 0.130260 0.509822
vt 0.000000 0.130260
vt 0.125000 0.490178
vt 1.000000 0.125000
vt 0.125000 0.509822
vt 0.129921 0.125000
vt 0.125000 0.125000
vt 0.870079 0.125000
vt 0.875000 0.125000
vt 0.125000 0.509822
vt 0.000000 0.125000
vt 0.125000 0.490178
vt 0.869740 0.490178
vt 0.000000 0.875000
vt 0.875000 0.509822
vt 0.875000 0.490178
vt 0.875000 0.490178
vt 1.000000 0.875000
vt 0.875000 0.509822
vt 0.129921 0.875000
vt 0.125000 0.875000
vt 0.870079 0.875000
vt 0.875000 0.875000
s 0
usemtl road.005
f 49/72/1 3/5/1 51/74/1
f 21/35/2 7/14/2 23/38/2
f 41/62/3 5/10/3 47/69/3
f 15/26/4 1/1/4 17/29/4
f 46/68/5 15/25/5 43/64/5
f 42/63/5 20/34/5 44/65/5
f 20/33/4 11/20/4 19/32/4
f 13/23/2 10/18/2 9/17/2
f 16/27/2 13/23/2 14/24/2
f 4/7/2 14/24/2 3/4/2
f 43/64/5 12/21/5 42/63/5
f 12/22/4 17/29/4 11/20/4
f 24/40/4 19/32/4 22/37/4
f 44/65/5 24/39/5 45/66/5
f 9/17/2 10/18/2 18/30/2
f 45/66/5 6/12/5 41/61/5
f 6/13/4 22/37/4 5/9/4
f 18/30/2 23/38/2 9/17/2
f 48/70/3 28/45/3 27/44/3
f 39/58/1 25/41/1 33/51/1
f 46/67/1 33/51/1 40/60/1
f 32/50/5 34/52/5 28/46/5
f 31/49/5 38/57/5 32/50/5
f 30/48/5 35/54/5 29/47/5
f 29/47/5 37/56/5 31/49/5
f 26/42/5 36/55/5 30/48/5
f 27/44/3 28/45/3 34/53/3
f 2/3/1 40/60/1 1/1/1
f 38/57/5 41/61/5 34/52/5
f 37/56/5 45/66/5 38/57/5
f 36/55/5 42/63/5 35/54/5
f 35/54/5 44/65/5 37/56/5
f 39/59/5 43/64/5 36/55/5
f 34/53/3 47/69/3 27/44/3
f 52/76/3 48/70/3 50/73/3
f 49/71/5 30/48/5 54/78/5
f 53/77/5 31/49/5 55/79/5
f 54/78/5 29/47/5 53/77/5
f 55/79/5 32/50/5 56/80/5
f 56/80/5 28/46/5 52/75/5
f 21/36/5 52/75/5 8/15/5
f 18/31/5 56/80/5 21/36/5
f 16/28/5 53/77/5 10/19/5
f 10/19/5 55/79/5 18/31/5
f 4/8/5 54/78/5 16/28/5
f 8/16/3 50/73/3 7/14/3
f 26/43/1 51/74/1 25/41/1
f 49/72/1 4/6/1 3/5/1
f 21/35/2 8/16/2 7/14/2
f 41/62/3 6/11/3 5/10/3
f 15/26/4 2/3/4 1/1/4
f 46/68/5 2/2/5 15/25/5
f 42/63/5 12/21/5 20/34/5
f 20/33/4 12/22/4 11/20/4
f 16/27/2 10/18/2 13/23/2
f 4/7/2 16/27/2 14/24/2
f 43/64/5 15/25/5 12/21/5
f 12/22/4 15/26/4 17/29/4
f 24/40/4 20/33/4 19/32/4
f 44/65/5 20/34/5 24/39/5
f 45/66/5 24/39/5 6/12/5
f 6/13/4 24/40/4 22/37/4
f 18/30/2 21/35/2 23/38/2
f 39/58/1 26/43/1 25/41/1
f 46/67/1 39/58/1 33/51/1
f 32/50/5 38/57/5 34/52/5
f 31/49/5 37/56/5 38/57/5
f 30/48/5 36/55/5 35/54/5
f 29/47/5 35/54/5 37/56/5
f 26/42/5 39/59/5 36/55/5
f 2/3/1 46/67/1 40/60/1
f 38/57/5 45/66/5 41/61/5
f 37/56/5 44/65/5 45/66/5
f 36/55/5 43/64/5 42/63/5
f 35/54/5 42/63/5 44/65/5
f 39/59/5 46/68/5 43/64/5
f 34/53/3 41/62/3 47/69/3
f 52/76/3 28/45/3 48/70/3
f 49/71/5 26/42/5 30/48/5
f 53/77/5 29/47/5 31/49/5
f 54/78/5 30/48/5 29/47/5
f 55/79/5 31/49/5 32/50/5
f 56/80/5 32/50/5 28/46/5
f 21/36/5 56/80/5 52/75/5
f 18/31/5 55/79/5 56/80/5
f 16/28/5 54/78/5 53/77/5
f 10/19/5 53/77/5 55/79/5
f 4/8/5 49/71/5 54/78/5
f 8/16/3 52/76/3 50/73/3
f 26/43/1 49/72/1 51/74/1
