# Blender 3.2.1
# www.blender.org
mtllib dynamite.000.mtl
o Dynamite.001
v -0.000001 0.004680 -0.022639
v -0.000001 0.003469 0.022639
v 0.002339 0.004053 -0.022639
v 0.001734 0.003004 0.022639
v 0.004052 0.002340 -0.022639
v 0.003003 0.001735 0.022639
v 0.004679 -0.000000 -0.022639
v 0.003468 0.000000 0.022639
v 0.004052 -0.002340 -0.022639
v 0.003003 -0.001735 0.022639
v 0.002339 -0.004053 -0.022639
v 0.001734 -0.003004 0.022639
v -0.000001 -0.004680 -0.022639
v -0.000001 -0.003469 0.022639
v -0.002341 -0.004053 -0.022639
v -0.001735 -0.003004 0.022639
v -0.004054 -0.002340 -0.022639
v -0.003005 -0.001735 0.022639
v -0.004681 -0.000000 -0.022639
v -0.003470 0.000000 0.022639
v -0.004054 0.002340 -0.022639
v -0.003005 0.001735 0.022639
v -0.002341 0.004053 -0.022639
v -0.001735 0.003004 0.022639
v 0.002339 0.004053 0.022639
v -0.000001 0.004680 0.022639
v 0.004052 0.002340 0.022639
v 0.004679 0.000000 0.022639
v 0.004052 -0.002340 0.022639
v 0.002339 -0.004053 0.022639
v -0.000001 -0.004680 0.022639
v -0.002341 -0.004053 0.022639
v -0.004054 -0.002340 0.022639
v -0.004681 0.000000 0.022639
v -0.004054 0.002340 0.022639
v -0.002341 0.004053 0.022639
v 0.001734 0.003004 0.021937
v -0.000001 0.003469 0.021937
v 0.003003 0.001735 0.021937
v 0.003468 0.000000 0.021937
v 0.003003 -0.001735 0.021937
v 0.001734 -0.003004 0.021937
v -0.000001 -0.003469 0.021937
v -0.001735 -0.003004 0.021937
v -0.003005 -0.001735 0.021937
v -0.003470 0.000000 0.021937
v -0.003005 0.001735 0.021937
v -0.001735 0.003004 0.021937
vn 0.2588 0.9659 -0.0000
vn 0.7072 0.7071 -0.0000
vn 0.9660 0.2587 -0.0000
vn 0.9659 -0.2589 -0.0000
vn 0.7070 -0.7072 -0.0000
vn 0.2588 -0.9659 -0.0000
vn -0.2588 -0.9659 -0.0000
vn -0.7072 -0.7071 -0.0000
vn -0.9660 -0.2587 -0.0000
vn -0.9659 0.2589 -0.0000
vn -0.2588 0.9659 -0.0000
vn -0.7070 0.7072 -0.0000
vn -0.0000 -0.0000 -1.0000
vn -0.0000 -0.0000 1.0000
vn -0.9659 -0.2590 -0.0000
vn 0.9659 -0.2587 -0.0000
vn -0.9659 0.2587 -0.0000
vn 0.7072 -0.7070 -0.0000
vn 0.7070 0.7072 -0.0000
vn -0.7072 0.7070 -0.0000
vn 0.2589 -0.9659 -0.0000
vn -0.7070 -0.7072 -0.0000
vn 0.9659 0.2590 -0.0000
vn 0.9659 0.2589 -0.0000
vn 0.9660 -0.2587 -0.0000
vn 0.7072 -0.7071 -0.0000
vn -0.9659 -0.2589 -0.0000
vn -0.9660 0.2587 -0.0000
vn -0.7072 0.7071 -0.0000
vn -0.9659 -0.2587 -0.0000
vn 0.9659 -0.2590 -0.0000
vn 0.2589 0.9659 -0.0000
vn -0.9659 0.2590 -0.0000
vn 0.7072 0.7070 -0.0000
vn -0.7072 -0.7070 -0.0000
vn 0.9659 0.2587 -0.0000
vt 0.340559 0.918093
vt 0.340559 0.081907
vt 0.525051 0.799734
vt 0.491619 0.825335
vt 0.875855 0.814272
vt 0.340559 0.848411
vt 0.525051 0.716401
vt 0.887227 0.755458
vt 0.340559 0.778729
vt 0.566718 0.644232
vt 0.880505 0.692354
vt 0.340559 0.709047
vt 0.638886 0.602566
vt 0.854157 0.634095
vt 0.340559 0.639364
vt 0.722220 0.602566
vt 0.810238 0.586842
vt 0.340559 0.569682
vt 0.794389 0.644232
vt 0.753041 0.555793
vt 0.340559 0.500000
vt 0.836055 0.716401
vt 0.688365 0.544511
vt 0.340559 0.430318
vt 0.836055 0.799734
vt 0.622898 0.554534
vt 0.340559 0.360636
vt 0.794389 0.871903
vt 0.563529 0.585183
vt 0.340559 0.290954
vt 0.722220 0.913570
vt 0.516632 0.633591
vt 0.340559 0.221271
vt 0.638887 0.913570
vt 0.487429 0.694950
vt 0.340559 0.151589
vt 0.566718 0.871903
vt 0.479575 0.762455
vt 0.071328 0.848411
vt 0.925551 0.759668
vt 0.907135 0.831034
vt 0.071328 0.918093
vt 0.071328 0.081907
vt 0.454441 0.844832
vt 0.071328 0.778729
vt 0.919104 0.683904
vt 0.071328 0.709047
vt 0.888367 0.613549
vt 0.071328 0.639364
vt 0.836333 0.556188
vt 0.071328 0.569682
vt 0.768127 0.518088
vt 0.071328 0.500000
vt 0.690657 0.503608
vt 0.071328 0.430318
vt 0.611928 0.514689
vt 0.071328 0.360636
vt 0.540221 0.550615
vt 0.071328 0.290953
vt 0.483219 0.608030
vt 0.071328 0.221271
vt 0.447149 0.681223
vt 0.071328 0.151589
vt 0.436021 0.762918
vt 0.810364 0.064648
vt 0.882236 0.755256
vt 0.872129 0.064648
vt 0.871157 0.813377
vt 0.496280 0.824452
vt 0.756874 0.095530
vt 0.875722 0.693678
vt 0.725991 0.149020
vt 0.850006 0.636888
vt 0.725991 0.210785
vt 0.807166 0.590848
vt 0.756874 0.264276
vt 0.751393 0.560611
vt 0.810364 0.295158
vt 0.688340 0.549648
vt 0.872129 0.295158
vt 0.624527 0.559454
vt 0.925619 0.264275
vt 0.566670 0.589362
vt 0.956502 0.210785
vt 0.520980 0.636575
vt 0.956502 0.149020
vt 0.492528 0.696394
vt 0.925619 0.095530
vt 0.484736 0.762275
s 0
usemtl dynamite.000
f 26/42/1 3/6/1 1/1/1
f 25/39/2 5/9/2 3/6/2
f 27/45/3 7/12/3 5/9/3
f 28/47/4 9/15/4 7/12/4
f 29/49/5 11/18/5 9/15/5
f 30/51/6 13/21/6 11/18/6
f 31/53/7 15/24/7 13/21/7
f 32/55/8 17/27/8 15/24/8
f 33/57/9 19/30/9 17/27/9
f 34/59/10 21/33/10 19/30/10
f 12/20/11 43/79/11 14/23/11
f 35/61/12 23/36/12 21/33/12
f 36/63/11 1/2/11 23/36/11
f 7/13/13 15/25/13 23/37/13
f 2/5/14 25/40/14 26/41/14
f 4/8/14 27/46/14 25/40/14
f 6/11/14 28/48/14 27/46/14
f 10/17/14 28/48/14 8/14/14
f 12/20/14 29/50/14 10/17/14
f 14/23/14 30/52/14 12/20/14
f 14/23/14 32/56/14 31/54/14
f 16/26/14 33/58/14 32/56/14
f 18/29/14 34/60/14 33/58/14
f 22/35/14 34/60/14 20/32/14
f 24/38/14 35/62/14 22/35/14
f 2/4/14 36/64/14 24/38/14
f 47/86/14 43/78/14 39/70/14
f 6/11/15 40/73/15 8/14/15
f 20/32/16 47/87/16 22/35/16
f 14/23/1 44/81/1 16/26/1
f 8/14/17 41/75/17 10/17/17
f 22/35/18 48/89/18 24/38/18
f 2/5/7 37/66/7 4/8/7
f 16/26/19 45/83/19 18/29/19
f 10/17/20 42/77/20 12/20/20
f 24/38/21 38/69/21 2/4/21
f 4/8/22 39/71/22 6/11/22
f 18/29/23 46/85/23 20/32/23
f 26/42/1 25/39/1 3/6/1
f 25/39/19 27/45/19 5/9/19
f 27/45/24 28/47/24 7/12/24
f 28/47/25 29/49/25 9/15/25
f 29/49/26 30/51/26 11/18/26
f 30/51/6 31/53/6 13/21/6
f 31/53/7 32/55/7 15/24/7
f 32/55/22 33/57/22 17/27/22
f 33/57/27 34/59/27 19/30/27
f 34/59/28 35/61/28 21/33/28
f 12/20/11 42/77/11 43/79/11
f 35/61/29 36/63/29 23/36/29
f 36/63/11 26/43/11 1/2/11
f 23/37/13 1/3/13 3/7/13
f 3/7/13 5/10/13 7/13/13
f 7/13/13 9/16/13 11/19/13
f 11/19/13 13/22/13 15/25/13
f 15/25/13 17/28/13 19/31/13
f 19/31/13 21/34/13 23/37/13
f 23/37/13 3/7/13 7/13/13
f 7/13/13 11/19/13 15/25/13
f 15/25/13 19/31/13 23/37/13
f 2/5/14 4/8/14 25/40/14
f 4/8/14 6/11/14 27/46/14
f 6/11/14 8/14/14 28/48/14
f 10/17/14 29/50/14 28/48/14
f 12/20/14 30/52/14 29/50/14
f 14/23/14 31/54/14 30/52/14
f 14/23/14 16/26/14 32/56/14
f 16/26/14 18/29/14 33/58/14
f 18/29/14 20/32/14 34/60/14
f 22/35/14 35/62/14 34/60/14
f 24/38/14 36/64/14 35/62/14
f 2/4/14 26/44/14 36/64/14
f 39/70/14 37/65/14 38/67/14
f 38/67/14 48/88/14 47/86/14
f 47/86/14 46/84/14 45/82/14
f 45/82/14 44/80/14 43/78/14
f 43/78/14 42/76/14 41/74/14
f 41/74/14 40/72/14 39/70/14
f 39/70/14 38/67/14 47/86/14
f 47/86/14 45/82/14 43/78/14
f 43/78/14 41/74/14 39/70/14
f 6/11/30 39/71/30 40/73/30
f 20/32/31 46/85/31 47/87/31
f 14/23/32 43/79/32 44/81/32
f 8/14/33 40/73/33 41/75/33
f 22/35/5 47/87/5 48/89/5
f 2/5/7 38/68/7 37/66/7
f 16/26/34 44/81/34 45/83/34
f 10/17/12 41/75/12 42/77/12
f 24/38/6 48/89/6 38/69/6
f 4/8/35 37/66/35 39/71/35
f 18/29/36 45/83/36 46/85/36
