# Blender 3.2.1
# www.blender.org
mtllib building.002.mtl
o Building.002
v -1.000000 0.000000 7.000000
v -0.621587 0.810793 7.000000
v -1.000000 0.000000 5.000000
v -1.000000 0.810793 5.378413
v 1.000000 0.000000 7.000000
v 1.000000 0.000000 5.000000
v 0.621587 0.810793 5.000000
v 0.000000 0.000000 5.000000
v -0.378413 0.810793 5.000000
v 0.000000 0.000000 7.000000
v 0.378413 0.810793 7.000000
v -1.000000 0.000000 6.000000
v -1.000000 0.810793 6.378413
v 1.000000 0.000000 6.000000
v 1.000000 0.810793 5.621587
v 0.000000 1.000000 6.000000
v 0.000000 0.000000 6.000000
v -0.621587 0.396150 7.000000
v -1.000000 0.396150 5.378413
v 0.621587 0.396150 5.000000
v -0.378413 0.396150 5.000000
v 1.000000 0.396150 5.621587
v -1.000000 0.396150 6.378413
v 1.000000 0.810793 6.621587
v -0.378413 0.810793 7.000000
v 1.000000 0.396150 6.621587
v -0.378413 0.396150 7.000000
v -1.000000 0.396150 6.621587
v -1.000000 0.810793 6.621587
v 0.000000 1.000000 7.000000
v 0.000000 0.206943 7.000000
v -1.000000 0.206943 7.000000
v -1.000000 1.000000 7.000000
v -1.000000 0.810793 5.621587
v -1.000000 0.396150 5.621587
v -1.000000 1.000000 6.000000
v -0.621587 0.810793 5.000000
v -0.621587 0.396150 5.000000
v -1.000000 0.206943 6.000000
v -1.000000 1.000000 5.000000
v 0.378413 0.810793 5.000000
v -1.000000 0.206943 5.000000
v 0.378413 0.396150 5.000000
v 0.000000 1.000000 5.000000
v 1.000000 0.810793 5.378413
v 1.000000 0.396150 5.378413
v 0.000000 0.206943 5.000000
v 1.000000 1.000000 5.000000
v 1.000000 0.810793 6.378413
v 1.000000 0.206943 5.000000
v 1.000000 0.396150 6.378413
v 1.000000 1.000000 6.000000
v 1.000000 1.000000 7.000000
v 1.000000 0.206943 7.000000
v 1.000000 0.206943 6.000000
v 0.646447 0.823223 7.000000
v -0.646447 0.383720 7.000000
v -0.646447 0.823223 7.000000
v -0.353553 0.823223 7.000000
v -0.353553 0.383720 7.000000
v -1.000000 0.383720 6.646447
v -1.000000 0.823223 6.646447
v -1.000000 0.823223 6.353553
v -1.000000 0.383720 6.353553
v -1.000000 0.823223 5.646447
v -1.000000 0.823223 5.353553
v -1.000000 0.383720 5.353553
v -1.000000 0.383720 5.646447
v -0.646447 0.823223 5.000000
v -0.353553 0.823223 5.000000
v -0.646447 0.383720 5.000000
v -0.353553 0.383720 5.000000
v 0.353553 0.823223 5.000000
v 0.646447 0.823223 5.000000
v 0.646447 0.383720 5.000000
v 0.353553 0.383720 5.000000
v 1.000000 0.823223 5.353553
v 1.000000 0.823223 5.646447
v 1.000000 0.383720 5.353553
v 1.000000 0.383720 5.646447
v 1.000000 0.823223 6.353553
v 1.000000 0.823223 6.646447
v 1.000000 0.383720 6.646447
v 1.000000 0.383720 6.353553
v 0.353553 0.823223 7.000000
v 0.646447 0.383720 7.000000
v 0.353553 0.383720 7.000000
v 0.621587 0.810793 7.000000
v 0.621587 0.396150 7.000000
v 0.378413 0.396150 7.000000
v 0.646447 0.823223 7.000247
v 0.353553 0.823223 7.000247
v 0.646447 0.383720 7.000247
v 0.353553 0.383720 7.000247
v 0.621587 0.810793 7.000247
v 0.378413 0.810793 7.000247
v 0.621587 0.396150 7.000247
v 0.378413 0.396150 7.000247
v 0.646447 0.823223 7.030247
v 0.353553 0.823223 7.030247
v 0.646447 0.383720 7.030247
v 0.353553 0.383720 7.030247
v 0.621587 0.810793 7.030247
v 0.378413 0.810793 7.030247
v 0.621587 0.396150 7.030247
v 0.378413 0.396150 7.030247
v -0.646447 0.383720 7.030000
v -0.646447 0.823223 7.030000
v -0.353553 0.823223 7.030000
v -0.353553 0.383720 7.030000
v -0.621587 0.396150 7.030000
v -0.621587 0.810793 7.030000
v -0.378413 0.810793 7.030000
v -0.378413 0.396150 7.030000
v -1.030000 0.383720 6.646447
v -1.030000 0.823223 6.646447
v -1.030000 0.823223 6.353553
v -1.030000 0.383720 6.353553
v -1.030000 0.396150 6.621587
v -1.030000 0.810793 6.621587
v -1.030000 0.810793 6.378413
v -1.030000 0.396150 6.378413
v -1.030000 0.823223 5.646447
v -1.030000 0.823223 5.353553
v -1.030000 0.383720 5.353553
v -1.030000 0.383720 5.646447
v -1.030000 0.810793 5.621587
v -1.030000 0.810793 5.378413
v -1.030000 0.396150 5.378413
v -1.030000 0.396150 5.621587
v -0.646447 0.823223 4.970000
v -0.353553 0.823223 4.970000
v -0.646447 0.383720 4.970000
v -0.353553 0.383720 4.970000
v -0.621587 0.810793 4.970000
v -0.378413 0.810793 4.970000
v -0.621587 0.396150 4.970000
v -0.378413 0.396150 4.970000
v 0.353553 0.823223 4.970000
v 0.646447 0.823223 4.970000
v 0.646447 0.383720 4.970000
v 0.353553 0.383720 4.970000
v 0.378413 0.810793 4.970000
v 0.621587 0.810793 4.970000
v 0.621587 0.396150 4.970000
v 0.378413 0.396150 4.970000
v 1.030000 0.823223 5.353553
v 1.030000 0.823223 5.646447
v 1.030000 0.383720 5.353553
v 1.030000 0.383720 5.646447
v 1.030000 0.810793 5.378413
v 1.030000 0.810793 5.621587
v 1.030000 0.396150 5.378413
v 1.030000 0.396150 5.621587
v 1.030000 0.823223 6.353553
v 1.030000 0.823223 6.646447
v 1.030000 0.383720 6.646447
v 1.030000 0.383720 6.353553
v 1.030000 0.810793 6.378413
v 1.030000 0.810793 6.621587
v 1.030000 0.396150 6.621587
v 1.030000 0.396150 6.378413
vn -1.0000 -0.0000 -0.0000
vn -0.0000 -0.0000 -1.0000
vn 1.0000 -0.0000 -0.0000
vn -0.0000 -0.0000 1.0000
vn -0.0000 -1.0000 -0.0000
vn -0.0000 1.0000 -0.0000
vt 0.261610 0.726781
vt 0.916398 0.571145
vt 0.791775 0.293594
vt 0.261610 0.500000
vt 0.034829 0.726781
vt 0.946795 0.260163
vt 0.791775 0.174051
vt 0.488390 0.726780
vt 0.715171 0.726780
vt 0.488390 0.500000
vt 0.916398 0.882128
vt 0.791775 0.413136
vt 0.375000 0.500000
vt 0.946795 0.571145
vt 0.791775 0.652221
vt 0.375000 0.726780
vt 0.916398 0.778467
vt 0.877291 0.084108
vt 0.261610 0.613390
vt 0.148219 0.726780
vt 0.977192 0.156502
vt 0.791775 0.891305
vt 0.488390 0.613390
vt 0.601781 0.726780
vt 0.916398 0.467485
vt 0.791775 0.771763
vt 0.375000 0.159829
vt 0.375000 0.613390
vt 0.916398 0.467485
vt 0.793057 0.202577
vt 0.946795 0.363824
vt 0.793057 0.083035
vt 0.916398 0.778467
vt 0.793057 0.322119
vt 0.946795 0.674806
vt 0.793057 0.561204
vt 0.916398 0.363824
vt 0.793057 0.680746
vt 0.977192 0.260163
vt 0.793057 0.800288
vt 0.946795 0.156502
vt 0.791774 0.532678
vt 0.946795 0.571145
vt 0.820603 0.293854
vt 0.946795 0.260163
vt 0.793057 0.441661
vt 0.946795 0.467485
vt 0.821886 0.202837
vt 0.946795 0.260163
vt 0.821886 0.800548
vt 0.946795 0.156502
vt 0.820603 0.891565
vt 0.375000 0.046439
vt 0.375000 0.953561
vt 0.375000 0.773711
vt 0.261610 0.773711
vt 0.261610 0.046439
vt 0.261610 0.953561
vt 0.916398 0.260163
vt 0.820603 0.174312
vt 0.916398 0.363824
vt 0.821886 0.083295
vt 0.261610 0.159829
vt 0.148219 0.953561
vt 0.916398 0.571145
vt 0.820603 0.652481
vt 0.916398 0.674806
vt 0.821886 0.561464
vt 0.148219 0.773711
vt 0.034829 0.953561
vt 0.261610 0.273219
vt 0.946795 0.882128
vt 0.820603 0.413396
vt 0.034829 0.773711
vt 0.261610 0.453069
vt 0.946795 0.778467
vt 0.821886 0.322379
vt 0.375000 0.273219
vt 0.946795 0.467484
vt 0.820603 0.772023
vt 0.946795 0.363824
vt 0.821886 0.681006
vt 0.375000 0.453069
vt 0.488390 0.273219
vt 0.715171 0.953561
vt 0.916398 0.156502
vt 0.820603 0.532938
vt 0.488390 0.453069
vt 0.715171 0.773711
vt 0.916398 0.260163
vt 0.821886 0.441922
vt 0.488390 0.159829
vt 0.601781 0.953561
vt 0.488390 0.046439
vt 0.488390 0.953561
vt 0.488390 0.773711
vt 0.601781 0.773711
vt 0.448301 0.913472
vt 0.832900 0.068902
vt 0.301699 0.813801
vt 0.780760 0.190481
vt 0.301699 0.913472
vt 0.780760 0.307986
vt 0.334910 0.913472
vt 0.832900 0.305950
vt 0.334910 0.813801
vt 0.832900 0.188444
vt 0.221520 0.813801
vt 0.832900 0.786156
vt 0.221520 0.913472
vt 0.832900 0.903661
vt 0.188309 0.913472
vt 0.780760 0.905698
vt 0.188309 0.813801
vt 0.780760 0.788192
vt 0.108130 0.913472
vt 0.832900 0.186408
vt 0.074919 0.913472
vt 0.780760 0.188444
vt 0.074919 0.813801
vt 0.780760 0.070938
vt 0.108130 0.813801
vt 0.832900 0.068902
vt 0.301699 0.313309
vt 0.832900 0.664577
vt 0.334910 0.313309
vt 0.780760 0.666613
vt 0.301699 0.412980
vt 0.832900 0.547071
vt 0.334910 0.412980
vt 0.780760 0.549108
vt 0.415090 0.313309
vt 0.832900 0.425492
vt 0.448301 0.313309
vt 0.780760 0.427529
vt 0.448301 0.412980
vt 0.780760 0.310023
vt 0.415089 0.412980
vt 0.832900 0.307986
vt 0.675081 0.913472
vt 0.832900 0.784119
vt 0.641870 0.913472
vt 0.780760 0.786156
vt 0.675081 0.813801
vt 0.832900 0.666613
vt 0.641870 0.813801
vt 0.780760 0.668650
vt 0.561691 0.913472
vt 0.832900 0.545035
vt 0.528480 0.913472
vt 0.780760 0.547071
vt 0.528480 0.813801
vt 0.780760 0.429565
vt 0.561691 0.813801
vt 0.832900 0.427529
vt 0.415089 0.913472
vt 0.890043 0.069051
vt 0.448301 0.813801
vt 0.832900 0.176426
vt 0.415089 0.813801
vt 0.890043 0.176576
vt 0.946795 0.778467
vt 0.846461 0.083074
vt 0.946795 0.674806
vt 0.845652 0.161369
vt 0.916398 0.674806
vt 0.876482 0.162403
vt 0.834473 0.069986
vt 0.888489 0.070138
vt 0.834454 0.175339
vt 0.888470 0.175492
vt 0.844908 0.082372
vt 0.878424 0.083348
vt 0.844519 0.162129
vt 0.878035 0.163105
vt 0.839041 0.074803
vt 0.884636 0.076140
vt 0.838307 0.169337
vt 0.883902 0.170674
vt 0.841871 0.078893
vt 0.881205 0.079428
vt 0.841738 0.166050
vt 0.881072 0.166584
vt 0.785741 0.195129
vt 0.784918 0.301868
vt 0.827919 0.301302
vt 0.828742 0.194562
vt 0.788827 0.199090
vt 0.788603 0.298407
vt 0.824833 0.297341
vt 0.825057 0.198024
vt 0.828742 0.792274
vt 0.827919 0.899014
vt 0.784918 0.899580
vt 0.785741 0.792840
vt 0.825057 0.795735
vt 0.824833 0.895052
vt 0.788603 0.896118
vt 0.788827 0.796801
vt 0.827919 0.181760
vt 0.784918 0.182326
vt 0.785741 0.075586
vt 0.828742 0.075020
vt 0.824833 0.177799
vt 0.788603 0.178864
vt 0.788827 0.079547
vt 0.825057 0.078482
vt 0.827919 0.659929
vt 0.784918 0.660495
vt 0.828742 0.553189
vt 0.785741 0.553755
vt 0.824833 0.655968
vt 0.788603 0.657033
vt 0.825057 0.556651
vt 0.788827 0.557717
vt 0.827919 0.420844
vt 0.784918 0.421411
vt 0.785741 0.314671
vt 0.828742 0.314105
vt 0.824833 0.416883
vt 0.788603 0.417949
vt 0.788827 0.318632
vt 0.825057 0.317566
vt 0.827919 0.779471
vt 0.784918 0.780038
vt 0.828742 0.672731
vt 0.785741 0.673298
vt 0.824833 0.775510
vt 0.788603 0.776576
vt 0.825057 0.676193
vt 0.788827 0.677259
vt 0.827919 0.540387
vt 0.784918 0.540953
vt 0.785741 0.434213
vt 0.828742 0.433647
vt 0.824833 0.536426
vt 0.788603 0.537491
vt 0.788827 0.438174
vt 0.825057 0.437109
s 0
usemtl building.002
f 34/59/1 19/31/1 35/61/1
f 41/72/2 20/33/2 43/76/2
f 49/86/3 26/45/3 51/90/3
f 25/43/4 18/29/4 27/47/4
f 14/23/5 10/16/5 17/28/5
f 36/63/6 30/53/6 16/27/6
f 16/27/6 53/94/6 52/92/6
f 17/28/5 1/1/5 12/19/5
f 88/162/4 90/166/4 89/164/4
f 37/65/2 21/35/2 38/67/2
f 8/13/5 12/19/5 3/4/5
f 44/78/6 52/92/6 48/84/6
f 40/71/6 16/27/6 44/78/6
f 6/10/5 17/28/5 8/13/5
f 45/79/3 22/37/3 46/81/3
f 29/51/1 23/39/1 28/49/1
f 32/56/1 12/20/1 1/1/1
f 50/89/3 14/24/3 6/9/3
f 42/75/2 8/13/2 3/4/2
f 54/96/4 10/16/4 5/8/4
f 31/55/4 1/1/4 10/16/4
f 55/97/3 5/8/3 14/24/3
f 47/83/2 6/10/2 8/13/2
f 39/69/1 3/5/1 12/20/1
f 56/98/4 30/54/4 85/156/4
f 86/158/4 53/95/4 56/98/4
f 85/156/4 31/55/4 87/160/4
f 87/160/4 54/96/4 86/158/4
f 58/102/4 32/56/4 57/100/4
f 59/104/4 33/58/4 58/102/4
f 60/106/4 30/54/4 59/104/4
f 57/100/4 31/55/4 60/106/4
f 61/108/1 33/58/1 62/110/1
f 62/110/1 36/64/1 63/112/1
f 63/112/1 39/69/1 64/114/1
f 64/114/1 32/56/1 61/108/1
f 65/116/1 40/70/1 66/118/1
f 66/118/1 42/74/1 67/120/1
f 68/122/1 36/64/1 65/116/1
f 67/120/1 39/69/1 68/122/1
f 69/124/2 44/78/2 70/126/2
f 71/128/2 40/71/2 69/124/2
f 70/126/2 47/83/2 72/130/2
f 72/130/2 42/75/2 71/128/2
f 73/132/2 48/84/2 74/134/2
f 74/134/2 50/88/2 75/136/2
f 76/138/2 44/78/2 73/132/2
f 75/136/2 47/83/2 76/138/2
f 77/140/3 52/93/3 78/142/3
f 79/144/3 48/85/3 77/140/3
f 78/142/3 55/97/3 80/146/3
f 80/146/3 50/89/3 79/144/3
f 81/148/3 53/95/3 82/150/3
f 82/150/3 54/96/3 83/152/3
f 84/154/3 52/93/3 81/148/3
f 83/152/3 55/97/3 84/154/3
f 60/107/5 107/184/5 57/101/5
f 2/3/3 111/188/3 18/30/3
f 57/101/1 108/185/1 58/103/1
f 27/48/1 113/190/1 25/44/1
f 29/52/5 121/198/5 13/22/5
f 63/113/6 116/193/6 62/111/6
f 23/40/6 119/196/6 28/50/6
f 61/109/5 118/195/5 64/115/5
f 4/7/4 129/206/4 19/32/4
f 67/121/2 124/201/2 66/119/2
f 19/32/6 130/207/6 35/62/6
f 68/123/5 125/202/5 67/121/5
f 38/68/3 135/212/3 37/66/3
f 69/125/1 133/210/1 71/129/1
f 21/36/6 137/214/6 38/68/6
f 71/129/5 134/211/5 72/131/5
f 75/137/3 140/217/3 74/135/3
f 20/34/6 146/223/6 43/77/6
f 76/139/5 141/218/5 75/137/5
f 41/73/5 144/221/5 7/12/5
f 80/147/4 148/225/4 78/143/4
f 46/82/4 151/228/4 45/80/4
f 77/141/2 149/226/2 79/145/2
f 22/38/6 153/230/6 46/82/6
f 49/87/5 160/237/5 24/42/5
f 82/151/6 155/232/6 81/149/6
f 51/91/4 159/236/4 49/87/4
f 81/149/2 158/235/2 84/155/2
f 85/157/6 91/168/6 56/99/6
f 87/161/1 92/169/1 85/157/1
f 88/163/5 96/173/5 11/18/5
f 11/18/3 98/175/3 90/167/3
f 96/173/3 106/183/3 98/175/3
f 91/168/3 101/178/3 93/170/3
f 93/170/5 102/179/5 94/171/5
f 97/174/1 103/180/1 95/172/1
f 90/167/6 97/174/6 89/165/6
f 89/165/1 95/172/1 88/163/1
f 86/159/5 94/171/5 87/161/5
f 56/99/3 93/170/3 86/159/3
f 103/180/4 100/177/4 104/181/4
f 105/182/4 99/176/4 103/180/4
f 104/181/4 102/179/4 106/183/4
f 105/182/4 102/179/4 101/178/4
f 95/172/5 104/181/5 96/173/5
f 94/171/1 100/177/1 92/169/1
f 92/169/6 99/176/6 91/168/6
f 98/175/6 105/182/6 97/174/6
f 112/189/4 107/184/4 111/188/4
f 113/190/4 108/185/4 112/189/4
f 113/190/4 110/187/4 109/186/4
f 111/188/4 110/187/4 114/191/4
f 18/30/6 114/191/6 27/48/6
f 58/103/6 109/186/6 59/105/6
f 25/44/5 112/189/5 2/3/5
f 59/105/3 110/187/3 60/107/3
f 119/196/1 116/193/1 120/197/1
f 120/197/1 117/194/1 121/198/1
f 121/198/1 118/195/1 122/199/1
f 119/196/1 118/195/1 115/192/1
f 64/115/2 117/194/2 63/113/2
f 13/22/4 122/199/4 23/40/4
f 62/111/4 115/192/4 61/109/4
f 28/50/2 120/197/2 29/52/2
f 127/204/1 124/201/1 128/205/1
f 128/205/1 125/202/1 129/206/1
f 127/204/1 126/203/1 123/200/1
f 129/206/1 126/203/1 130/207/1
f 65/117/4 126/203/4 68/123/4
f 35/62/2 127/204/2 34/60/2
f 66/119/6 123/200/6 65/117/6
f 34/60/5 128/205/5 4/7/5
f 135/212/2 132/209/2 136/213/2
f 137/214/2 131/208/2 135/212/2
f 136/213/2 134/211/2 138/215/2
f 137/214/2 134/211/2 133/210/2
f 72/131/3 132/209/3 70/127/3
f 9/15/1 138/215/1 21/36/1
f 70/127/6 131/208/6 69/125/6
f 37/66/5 136/213/5 9/15/5
f 143/220/2 140/217/2 144/221/2
f 144/221/2 141/218/2 145/222/2
f 143/220/2 142/219/2 139/216/2
f 145/222/2 142/219/2 146/223/2
f 7/12/1 145/222/1 20/34/1
f 73/133/1 142/219/1 76/139/1
f 43/77/3 143/220/3 41/73/3
f 74/135/6 139/216/6 73/133/6
f 151/228/3 148/225/3 152/229/3
f 153/230/3 147/224/3 151/228/3
f 152/229/3 150/227/3 154/231/3
f 153/230/3 150/227/3 149/226/3
f 15/26/2 154/231/2 22/38/2
f 78/143/6 147/224/6 77/141/6
f 45/80/5 152/229/5 15/26/5
f 79/145/5 150/227/5 80/147/5
f 159/236/3 156/233/3 160/237/3
f 160/237/3 157/234/3 161/238/3
f 159/236/3 158/235/3 155/232/3
f 161/238/3 158/235/3 162/239/3
f 84/155/5 157/234/5 83/153/5
f 26/46/6 162/239/6 51/91/6
f 83/153/4 156/233/4 82/151/4
f 24/42/2 161/238/2 26/46/2
f 34/59/1 4/6/1 19/31/1
f 41/72/2 7/11/2 20/33/2
f 49/86/3 24/41/3 26/45/3
f 25/43/4 2/2/4 18/29/4
f 14/23/5 5/8/5 10/16/5
f 36/63/6 33/57/6 30/53/6
f 16/27/6 30/53/6 53/94/6
f 17/28/5 10/16/5 1/1/5
f 88/162/4 11/17/4 90/166/4
f 37/65/2 9/14/2 21/35/2
f 8/13/5 17/28/5 12/19/5
f 44/78/6 16/27/6 52/92/6
f 40/71/6 36/63/6 16/27/6
f 6/10/5 14/23/5 17/28/5
f 45/79/3 15/25/3 22/37/3
f 29/51/1 13/21/1 23/39/1
f 32/56/1 39/69/1 12/20/1
f 50/89/3 55/97/3 14/24/3
f 42/75/2 47/83/2 8/13/2
f 54/96/4 31/55/4 10/16/4
f 31/55/4 32/56/4 1/1/4
f 55/97/3 54/96/3 5/8/3
f 47/83/2 50/88/2 6/10/2
f 39/69/1 42/74/1 3/5/1
f 56/98/4 53/95/4 30/54/4
f 86/158/4 54/96/4 53/95/4
f 85/156/4 30/54/4 31/55/4
f 87/160/4 31/55/4 54/96/4
f 58/102/4 33/58/4 32/56/4
f 59/104/4 30/54/4 33/58/4
f 60/106/4 31/55/4 30/54/4
f 57/100/4 32/56/4 31/55/4
f 61/108/1 32/56/1 33/58/1
f 62/110/1 33/58/1 36/64/1
f 63/112/1 36/64/1 39/69/1
f 64/114/1 39/69/1 32/56/1
f 65/116/1 36/64/1 40/70/1
f 66/118/1 40/70/1 42/74/1
f 68/122/1 39/69/1 36/64/1
f 67/120/1 42/74/1 39/69/1
f 69/124/2 40/71/2 44/78/2
f 71/128/2 42/75/2 40/71/2
f 70/126/2 44/78/2 47/83/2
f 72/130/2 47/83/2 42/75/2
f 73/132/2 44/78/2 48/84/2
f 74/134/2 48/84/2 50/88/2
f 76/138/2 47/83/2 44/78/2
f 75/136/2 50/88/2 47/83/2
f 77/140/3 48/85/3 52/93/3
f 79/144/3 50/89/3 48/85/3
f 78/142/3 52/93/3 55/97/3
f 80/146/3 55/97/3 50/89/3
f 81/148/3 52/93/3 53/95/3
f 82/150/3 53/95/3 54/96/3
f 84/154/3 55/97/3 52/93/3
f 83/152/3 54/96/3 55/97/3
f 60/107/5 110/187/5 107/184/5
f 2/3/3 112/189/3 111/188/3
f 57/101/1 107/184/1 108/185/1
f 27/48/1 114/191/1 113/190/1
f 29/52/5 120/197/5 121/198/5
f 63/113/6 117/194/6 116/193/6
f 23/40/6 122/199/6 119/196/6
f 61/109/5 115/192/5 118/195/5
f 4/7/4 128/205/4 129/206/4
f 67/121/2 125/202/2 124/201/2
f 19/32/6 129/206/6 130/207/6
f 68/123/5 126/203/5 125/202/5
f 38/68/3 137/214/3 135/212/3
f 69/125/1 131/208/1 133/210/1
f 21/36/6 138/215/6 137/214/6
f 71/129/5 133/210/5 134/211/5
f 75/137/3 141/218/3 140/217/3
f 20/34/6 145/222/6 146/223/6
f 76/139/5 142/219/5 141/218/5
f 41/73/5 143/220/5 144/221/5
f 80/147/4 150/227/4 148/225/4
f 46/82/4 153/230/4 151/228/4
f 77/141/2 147/224/2 149/226/2
f 22/38/6 154/231/6 153/230/6
f 49/87/5 159/236/5 160/237/5
f 82/151/6 156/233/6 155/232/6
f 51/91/4 162/239/4 159/236/4
f 81/149/2 155/232/2 158/235/2
f 85/157/6 92/169/6 91/168/6
f 87/161/1 94/171/1 92/169/1
f 88/163/5 95/172/5 96/173/5
f 11/18/3 96/173/3 98/175/3
f 96/173/3 104/181/3 106/183/3
f 91/168/3 99/176/3 101/178/3
f 93/170/5 101/178/5 102/179/5
f 97/174/1 105/182/1 103/180/1
f 90/167/6 98/175/6 97/174/6
f 89/165/1 97/174/1 95/172/1
f 86/159/5 93/170/5 94/171/5
f 56/99/3 91/168/3 93/170/3
f 103/180/4 99/176/4 100/177/4
f 105/182/4 101/178/4 99/176/4
f 104/181/4 100/177/4 102/179/4
f 105/182/4 106/183/4 102/179/4
f 95/172/5 103/180/5 104/181/5
f 94/171/1 102/179/1 100/177/1
f 92/169/6 100/177/6 99/176/6
f 98/175/6 106/183/6 105/182/6
f 112/189/4 108/185/4 107/184/4
f 113/190/4 109/186/4 108/185/4
f 113/190/4 114/191/4 110/187/4
f 111/188/4 107/184/4 110/187/4
f 18/30/6 111/188/6 114/191/6
f 58/103/6 108/185/6 109/186/6
f 25/44/5 113/190/5 112/189/5
f 59/105/3 109/186/3 110/187/3
f 119/196/1 115/192/1 116/193/1
f 120/197/1 116/193/1 117/194/1
f 121/198/1 117/194/1 118/195/1
f 119/196/1 122/199/1 118/195/1
f 64/115/2 118/195/2 117/194/2
f 13/22/4 121/198/4 122/199/4
f 62/111/4 116/193/4 115/192/4
f 28/50/2 119/196/2 120/197/2
f 127/204/1 123/200/1 124/201/1
f 128/205/1 124/201/1 125/202/1
f 127/204/1 130/207/1 126/203/1
f 129/206/1 125/202/1 126/203/1
f 65/117/4 123/200/4 126/203/4
f 35/62/2 130/207/2 127/204/2
f 66/119/6 124/201/6 123/200/6
f 34/60/5 127/204/5 128/205/5
f 135/212/2 131/208/2 132/209/2
f 137/214/2 133/210/2 131/208/2
f 136/213/2 132/209/2 134/211/2
f 137/214/2 138/215/2 134/211/2
f 72/131/3 134/211/3 132/209/3
f 9/15/1 136/213/1 138/215/1
f 70/127/6 132/209/6 131/208/6
f 37/66/5 135/212/5 136/213/5
f 143/220/2 139/216/2 140/217/2
f 144/221/2 140/217/2 141/218/2
f 143/220/2 146/223/2 142/219/2
f 145/222/2 141/218/2 142/219/2
f 7/12/1 144/221/1 145/222/1
f 73/133/1 139/216/1 142/219/1
f 43/77/3 146/223/3 143/220/3
f 74/135/6 140/217/6 139/216/6
f 151/228/3 147/224/3 148/225/3
f 153/230/3 149/226/3 147/224/3
f 152/229/3 148/225/3 150/227/3
f 153/230/3 154/231/3 150/227/3
f 15/26/2 152/229/2 154/231/2
f 78/143/6 148/225/6 147/224/6
f 45/80/5 151/228/5 152/229/5
f 79/145/5 149/226/5 150/227/5
f 159/236/3 155/232/3 156/233/3
f 160/237/3 156/233/3 157/234/3
f 159/236/3 162/239/3 158/235/3
f 161/238/3 157/234/3 158/235/3
f 84/155/5 158/235/5 157/234/5
f 26/46/6 161/238/6 162/239/6
f 83/153/4 157/234/4 156/233/4
f 24/42/2 160/237/2 161/238/2
