# Blender v3.0.0 OBJ File: 'wiggle.blend'
# www.blender.org
mtllib wiggle_000027.mtl
o Cube
v 1.184225 -0.109950 -1.549170
v 1.221528 -0.024348 0.431901
v -0.775367 0.025445 0.460268
v -0.807571 -0.062264 -1.533080
v 1.166842 1.546787 -1.753243
v 1.369090 2.042435 0.166256
v -0.606538 2.306127 0.299691
v -0.808894 1.810523 -1.619551
v 1.343849 3.171909 -2.260799
v 1.614335 3.794211 -0.400919
v -0.613908 3.517947 -2.111640
v -0.343421 4.140249 -0.251761
v 1.501355 3.965835 -3.133684
v 2.082843 5.086832 -1.608549
v -0.354516 4.676332 -2.972109
v 0.226951 5.797372 -1.446905
v 1.925895 5.164831 -4.428798
v 2.553974 6.360590 -2.953780
v 0.085290 5.929982 -4.265335
v 0.713370 7.125740 -2.790318
vt 0.214122 0.785878
vt 0.000174 0.999826
vt 0.000175 0.785878
vt 0.428419 0.214122
vt 0.214471 0.408802
vt 0.214471 0.214122
vt 0.857012 0.214122
vt 0.643064 0.000174
vt 0.857012 0.000174
vt 0.214471 0.000175
vt 0.428419 0.000174
vt 0.428768 0.785878
vt 0.642715 0.571931
vt 0.642715 0.785878
vt 0.214122 0.571930
vt 0.000175 0.571930
vt 0.428419 0.408802
vt 0.214471 0.586918
vt 0.643064 0.408802
vt 0.643064 0.214122
vt 0.428768 0.571931
vt 0.642715 0.377251
vt 0.214122 0.377250
vt 0.642715 0.199134
vt 0.428768 0.000174
vt 0.642715 0.000175
vt 0.857012 0.408802
vt 0.643064 0.586918
vt 0.428768 0.199134
vt 0.000175 0.199134
vt 0.214122 0.199134
vt 0.214471 0.999826
vt 0.428419 0.785878
vt 0.428419 0.999825
vt 0.000175 0.000174
vt 0.214122 0.000175
vt 0.428419 0.586918
vt 0.214471 0.785878
vt 0.857012 0.586918
vt 0.643064 0.785878
vt 0.214122 0.999826
vt 0.428768 0.377250
vt 0.000175 0.377250
vt 0.857012 0.785878
vn -0.0236 -0.9987 0.0443
vn 0.1011 0.2731 0.9567
vn 0.9998 0.0081 -0.0192
vn 0.0172 0.1263 0.9918
vn -0.9999 0.0000 0.0162
vn -0.0736 -0.0461 -0.9962
vn 0.1586 0.5411 0.8259
vn 0.9854 -0.1583 -0.0629
vn -0.9886 0.1330 0.0699
vn -0.1027 -0.2863 -0.9526
vn -0.9163 0.3942 0.0706
vn 0.9348 -0.3549 -0.0172
vn -0.9419 0.3090 0.1320
vn -0.3158 -0.6728 -0.6690
vn 0.2333 0.7044 -0.6704
vn -0.3270 -0.6376 -0.6975
vn 0.3009 0.6214 0.7234
vn 0.9156 -0.3982 -0.0564
vn -0.0243 -0.9988 0.0436
vn 0.1236 0.2900 0.9490
vn 0.9932 -0.0816 -0.0836
vn 0.0758 0.0644 0.9950
vn -0.9933 0.0795 0.0842
vn -0.0109 -0.1224 -0.9924
vn 0.2927 0.5940 0.7493
vn 0.9857 -0.1377 -0.0973
vn -0.9821 0.1670 0.0869
vn -0.1193 -0.2623 -0.9576
vn -0.9167 0.3953 0.0589
vn 0.9392 -0.3208 -0.1223
vn -0.9401 0.3401 0.0229
vn -0.1615 -0.5649 -0.8092
vn -0.3036 -0.6305 -0.7144
vn 0.3238 0.6278 0.7078
vn 0.9152 -0.3972 -0.0677
usemtl Material.001
s off
f 1/1/1 3/2/1 4/3/1
f 6/4/2 12/5/2 7/6/2
f 5/7/3 2/8/3 1/9/3
f 6/4/4 3/10/4 2/11/4
f 3/12/5 8/13/5 4/14/5
f 5/15/6 4/3/6 8/16/6
f 10/17/7 16/18/7 12/5/7
f 5/7/8 10/19/8 6/20/8
f 7/21/9 11/22/9 8/13/9
f 8/16/10 9/23/10 5/15/10
f 15/24/11 20/25/11 19/26/11
f 9/27/12 14/28/12 10/19/12
f 11/22/13 16/29/13 15/24/13
f 9/23/14 15/30/14 13/31/14
f 19/32/15 18/33/15 17/34/15
f 13/31/16 19/35/16 17/36/16
f 14/37/17 20/38/17 16/18/17
f 13/39/18 18/40/18 14/28/18
f 1/1/19 2/41/19 3/2/19
f 6/4/20 10/17/20 12/5/20
f 5/7/21 6/20/21 2/8/21
f 6/4/22 7/6/22 3/10/22
f 3/12/23 7/21/23 8/13/23
f 5/15/24 1/1/24 4/3/24
f 10/17/25 14/37/25 16/18/25
f 5/7/26 9/27/26 10/19/26
f 7/21/27 12/42/27 11/22/27
f 8/16/28 11/43/28 9/23/28
f 15/24/29 16/29/29 20/25/29
f 9/27/30 13/39/30 14/28/30
f 11/22/31 12/42/31 16/29/31
f 9/23/32 11/43/32 15/30/32
f 19/32/15 20/38/15 18/33/15
f 13/31/33 15/30/33 19/35/33
f 14/37/34 18/33/34 20/38/34
f 13/39/35 17/44/35 18/40/35
