# Blender v3.0.0 OBJ File: 'wiggle.blend'
# www.blender.org
mtllib wiggle_000030.mtl
o Cube
v 1.191297 -0.103109 -1.562049
v 1.226183 -0.029326 0.423284
v -0.771274 0.011642 0.452552
v -0.802000 -0.063662 -1.543325
v 1.166825 1.609892 -1.752282
v 1.357930 2.036697 0.186655
v -0.623258 2.253459 0.329605
v -0.814452 1.826686 -1.609112
v 1.308610 3.271698 -2.194648
v 1.561337 3.813942 -0.303350
v -0.658774 3.558927 -2.028687
v -0.406046 4.101171 -0.137389
v 1.437139 4.207315 -3.012261
v 1.965079 5.220632 -1.390426
v -0.451362 4.812395 -2.792346
v 0.076560 5.825746 -1.170447
v 1.794417 5.552762 -4.181759
v 2.363586 6.636694 -2.600261
v -0.082265 6.205506 -3.953734
v 0.486906 7.289437 -2.372236
vt 0.214122 0.785878
vt 0.000174 0.999826
vt 0.000175 0.785878
vt 0.428419 0.214122
vt 0.214471 0.408802
vt 0.214471 0.214122
vt 0.857012 0.214122
vt 0.643064 0.000174
vt 0.857012 0.000174
vt 0.428419 0.000174
vt 0.214471 0.000175
vt 0.428768 0.785878
vt 0.642715 0.571931
vt 0.642715 0.785878
vt 0.214122 0.571930
vt 0.000175 0.571930
vt 0.428419 0.408802
vt 0.214471 0.586918
vt 0.643064 0.408802
vt 0.643064 0.214122
vt 0.428768 0.571931
vt 0.642715 0.377251
vt 0.214122 0.377250
vt 0.642715 0.199134
vt 0.428768 0.000174
vt 0.642715 0.000175
vt 0.857012 0.408802
vt 0.643064 0.586918
vt 0.428768 0.199134
vt 0.000175 0.377250
vt 0.214122 0.199134
vt 0.214471 0.999826
vt 0.428419 0.785878
vt 0.428419 0.999825
vt 0.000175 0.000174
vt 0.214122 0.000175
vt 0.428419 0.586918
vt 0.214471 0.785878
vt 0.857012 0.586918
vt 0.643064 0.785878
vt 0.214122 0.999826
vt 0.428768 0.377250
vt 0.000175 0.199134
vt 0.857012 0.785878
vn -0.0194 -0.9991 0.0380
vn 0.0954 0.2334 0.9677
vn 0.9998 0.0123 -0.0180
vn 0.0157 0.0537 0.9984
vn -0.9999 -0.0060 0.0156
vn -0.0759 -0.0352 -0.9965
vn 0.1430 0.4788 0.8662
vn 0.9889 -0.1320 -0.0684
vn -0.9915 0.1071 0.0742
vn -0.0968 -0.2483 -0.9638
vn -0.9357 0.3364 0.1062
vn 0.9518 -0.3041 -0.0400
vn -0.9555 0.2518 0.1537
vn -0.1567 -0.6376 -0.7543
vn 0.1963 0.7744 -0.6014
vn -0.2943 -0.5813 -0.7586
vn 0.2716 0.5641 0.7798
vn 0.9355 -0.3413 -0.0913
vn -0.0199 -0.9991 0.0375
vn 0.1177 0.2514 0.9607
vn 0.9940 -0.0728 -0.0819
vn 0.0833 0.1081 0.9906
vn -0.9941 0.0702 0.0826
vn -0.0115 -0.1105 -0.9938
vn 0.2661 0.5404 0.7982
vn 0.9887 -0.1111 -0.1003
vn -0.9860 0.1391 0.0919
vn -0.1144 -0.2241 -0.9678
vn -0.9362 0.3389 0.0930
vn 0.9541 -0.2603 -0.1479
vn -0.9550 0.2933 0.0435
vn -0.2500 -0.4733 -0.8447
vn -0.2734 -0.5722 -0.7732
vn 0.2922 0.5724 0.7662
vn 0.9350 -0.3389 -0.1042
usemtl Material.001
s off
f 1/1/1 3/2/1 4/3/1
f 6/4/2 12/5/2 7/6/2
f 5/7/3 2/8/3 1/9/3
f 2/10/4 7/6/4 3/11/4
f 3/12/5 8/13/5 4/14/5
f 5/15/6 4/3/6 8/16/6
f 10/17/7 16/18/7 12/5/7
f 5/7/8 10/19/8 6/20/8
f 7/21/9 11/22/9 8/13/9
f 8/16/10 9/23/10 5/15/10
f 15/24/11 20/25/11 19/26/11
f 9/27/12 14/28/12 10/19/12
f 11/22/13 16/29/13 15/24/13
f 11/30/14 13/31/14 9/23/14
f 19/32/15 18/33/15 17/34/15
f 13/31/16 19/35/16 17/36/16
f 14/37/17 20/38/17 16/18/17
f 13/39/18 18/40/18 14/28/18
f 1/1/19 2/41/19 3/2/19
f 6/4/20 10/17/20 12/5/20
f 5/7/21 6/20/21 2/8/21
f 2/10/22 6/4/22 7/6/22
f 3/12/23 7/21/23 8/13/23
f 5/15/24 1/1/24 4/3/24
f 10/17/25 14/37/25 16/18/25
f 5/7/26 9/27/26 10/19/26
f 7/21/27 12/42/27 11/22/27
f 8/16/28 11/30/28 9/23/28
f 15/24/29 16/29/29 20/25/29
f 9/27/30 13/39/30 14/28/30
f 11/22/31 12/42/31 16/29/31
f 11/30/32 15/43/32 13/31/32
f 19/32/15 20/38/15 18/33/15
f 13/31/33 15/43/33 19/35/33
f 14/37/34 18/33/34 20/38/34
f 13/39/35 17/44/35 18/40/35
