# Blender v3.0.0 OBJ File: 'wiggle.blend'
# www.blender.org
mtllib wiggle_000050.mtl
o Cube
v 1.260894 0.032282 -1.687801
v 1.289372 -0.049393 0.307005
v -0.698432 -0.114537 0.316993
v -0.734735 -0.035159 -1.666371
v 1.050959 2.336478 -1.528915
v 1.238823 1.881264 0.402986
v -0.720926 1.513063 0.497972
v -0.908627 1.968325 -1.434169
v 0.677847 4.145732 -1.024021
v 0.913298 3.608045 0.883087
v -1.258578 3.683699 -0.925915
v -1.023126 3.146012 0.981192
v -0.073523 5.811643 -0.215834
v 0.348477 5.037096 1.574130
v -1.884067 4.979633 -0.160167
v -1.462030 4.205113 1.629760
v -0.847607 7.316248 0.693614
v -0.397629 6.506212 2.466002
v -2.639261 6.428809 0.742896
v -2.189283 5.618773 2.515285
vt 0.214122 0.785878
vt 0.000174 0.999826
vt 0.000175 0.785878
vt 0.428419 0.214122
vt 0.214471 0.408802
vt 0.214471 0.214122
vt 0.857012 0.000174
vt 0.643064 0.214122
vt 0.643064 0.000174
vt 0.428419 0.000174
vt 0.214471 0.000175
vt 0.428768 0.571931
vt 0.642715 0.785878
vt 0.428768 0.785878
vt 0.000175 0.571930
vt 0.214122 0.571930
vt 0.428419 0.586918
vt 0.214471 0.586918
vt 0.857012 0.214122
vt 0.643064 0.408802
vt 0.642715 0.377251
vt 0.642715 0.571931
vt 0.214122 0.377250
vt 0.428768 0.199134
vt 0.642715 0.000175
vt 0.642715 0.199134
vt 0.857012 0.586918
vt 0.643064 0.586918
vt 0.428768 0.377250
vt 0.000175 0.377250
vt 0.214122 0.199134
vt 0.214471 0.999826
vt 0.428419 0.785878
vt 0.428419 0.999825
vt 0.000175 0.199134
vt 0.214122 0.000175
vt 0.214471 0.785878
vt 0.857012 0.785878
vt 0.643064 0.785878
vt 0.214122 0.999826
vt 0.428419 0.408802
vt 0.857012 0.408802
vt 0.428768 0.000174
vt 0.000175 0.000174
vn 0.0333 -0.9986 -0.0406
vn 0.0965 -0.2660 0.9591
vn 0.9996 0.0268 -0.0132
vn 0.0086 -0.1104 0.9939
vn -0.9997 -0.0158 0.0177
vn -0.0600 0.0632 -0.9962
vn 0.2280 -0.4380 0.8696
vn 0.9790 0.1980 -0.0485
vn -0.9762 -0.2124 0.0448
vn -0.0935 0.2497 -0.9638
vn -0.8849 -0.4656 0.0072
vn 0.9205 0.3876 -0.0493
vn -0.9028 -0.4300 -0.0098
vn -0.1373 0.3815 -0.9141
vn -0.3832 0.7994 0.4627
vn -0.2198 0.4193 -0.8808
vn 0.2351 -0.4262 0.8735
vn 0.8878 0.4600 -0.0151
vn 0.0325 -0.9986 -0.0414
vn 0.1078 -0.2474 0.9629
vn 0.9927 0.0955 -0.0740
vn 0.0574 -0.0481 0.9972
vn -0.9927 -0.0948 0.0741
vn -0.0145 0.1139 -0.9934
vn 0.1384 -0.3863 0.9119
vn 0.9743 0.2174 -0.0590
vn -0.9777 -0.2000 0.0643
vn -0.1110 0.2615 -0.9588
vn -0.8858 -0.4638 0.0129
vn 0.9121 0.4099 0.0030
vn -0.9140 -0.4037 0.0408
vn -0.2184 0.4162 -0.8827
vn -0.2338 0.4235 -0.8752
vn 0.2208 -0.4217 0.8794
vn 0.8869 0.4619 -0.0092
usemtl Material.001
s off
f 1/1/1 3/2/1 4/3/1
f 6/4/2 12/5/2 7/6/2
f 1/7/3 6/8/3 2/9/3
f 2/10/4 7/6/4 3/11/4
f 7/12/5 4/13/5 3/14/5
f 1/1/6 8/15/6 5/16/6
f 12/5/7 14/17/7 16/18/7
f 5/19/8 10/20/8 6/8/8
f 7/12/9 11/21/9 8/22/9
f 8/15/10 9/23/10 5/16/10
f 16/24/11 19/25/11 15/26/11
f 10/20/12 13/27/12 14/28/12
f 12/29/13 15/26/13 11/21/13
f 11/30/14 13/31/14 9/23/14
f 19/32/15 18/33/15 17/34/15
f 15/35/16 17/36/16 13/31/16
f 16/18/17 18/33/17 20/37/17
f 14/28/18 17/38/18 18/39/18
f 1/1/19 2/40/19 3/2/19
f 6/4/20 10/41/20 12/5/20
f 1/7/21 5/19/21 6/8/21
f 2/10/22 6/4/22 7/6/22
f 7/12/23 8/22/23 4/13/23
f 1/1/24 4/3/24 8/15/24
f 12/5/25 10/41/25 14/17/25
f 5/19/26 9/42/26 10/20/26
f 7/12/27 12/29/27 11/21/27
f 8/15/28 11/30/28 9/23/28
f 16/24/29 20/43/29 19/25/29
f 10/20/30 9/42/30 13/27/30
f 12/29/31 16/24/31 15/26/31
f 11/30/32 15/35/32 13/31/32
f 19/32/15 20/37/15 18/33/15
f 15/35/33 19/44/33 17/36/33
f 16/18/34 14/17/34 18/33/34
f 14/28/35 13/27/35 17/38/35
