# Blender v3.0.0 OBJ File: 'wiggle.blend'
# www.blender.org
mtllib wiggle_000024.mtl
o Cube
v 1.183239 -0.110837 -1.547374
v 1.220896 -0.023625 0.433071
v -0.775906 0.027378 0.461286
v -0.808335 -0.062028 -1.531673
v 1.166731 1.538092 -1.753167
v 1.370637 2.043138 0.163427
v -0.604142 2.313253 0.295396
v -0.808158 1.808253 -1.620935
v 1.348496 3.157940 -2.269533
v 1.621597 3.791065 -0.414294
v -0.607803 3.511963 -2.122934
v -0.334701 4.145087 -0.267695
v 1.509324 3.931999 -3.148809
v 2.098573 5.066894 -1.637716
v -0.341662 4.656437 -2.995996
v 0.247567 5.791378 -1.484834
v 1.942497 5.109662 -4.460084
v 2.579109 6.319781 -3.000517
v 0.107292 5.889648 -4.306314
v 0.743904 7.099767 -2.846747
vt 0.214122 0.785878
vt 0.000174 0.999826
vt 0.000175 0.785878
vt 0.428419 0.214122
vt 0.214471 0.408802
vt 0.214471 0.214122
vt 0.857012 0.214122
vt 0.643064 0.000174
vt 0.857012 0.000174
vt 0.214471 0.000175
vt 0.428419 0.000174
vt 0.428768 0.785878
vt 0.642715 0.571931
vt 0.642715 0.785878
vt 0.214122 0.571930
vt 0.000175 0.571930
vt 0.428419 0.408802
vt 0.214471 0.586918
vt 0.643064 0.408802
vt 0.643064 0.214122
vt 0.428768 0.571931
vt 0.642715 0.377251
vt 0.214122 0.377250
vt 0.642715 0.199134
vt 0.428768 0.000174
vt 0.642715 0.000175
vt 0.857012 0.408802
vt 0.643064 0.586918
vt 0.428768 0.199134
vt 0.000175 0.199134
vt 0.214122 0.199134
vt 0.214471 0.999826
vt 0.428419 0.785878
vt 0.428419 0.999825
vt 0.000175 0.000174
vt 0.214122 0.000175
vt 0.428419 0.586918
vt 0.214471 0.785878
vt 0.857012 0.586918
vt 0.643064 0.785878
vt 0.214122 0.999826
vt 0.428768 0.377250
vt 0.000175 0.377250
vt 0.857012 0.785878
vn -0.0241 -0.9987 0.0452
vn 0.1019 0.2786 0.9550
vn 0.9998 0.0076 -0.0193
vn 0.0173 0.1281 0.9916
vn -0.9999 0.0009 0.0162
vn -0.0732 -0.0475 -0.9962
vn 0.1609 0.5493 0.8200
vn 0.9848 -0.1619 -0.0621
vn -0.9882 0.1366 0.0692
vn -0.1036 -0.2915 -0.9509
vn -0.9134 0.4018 0.0652
vn 0.9322 -0.3617 -0.0138
vn -0.9398 0.3167 0.1286
vn -0.3209 -0.6810 -0.6582
vn 0.2381 0.6941 -0.6793
vn -0.3317 -0.6448 -0.6886
vn 0.3052 0.6287 0.7152
vn 0.9126 -0.4057 -0.0512
vn -0.0249 -0.9987 0.0445
vn 0.1244 0.2952 0.9473
vn 0.9930 -0.0829 -0.0838
vn 0.0756 0.0665 0.9949
vn -0.9931 0.0808 0.0845
vn -0.0109 -0.1239 -0.9922
vn 0.2965 0.6009 0.7423
vn 0.9852 -0.1414 -0.0968
vn -0.9815 0.1709 0.0862
vn -0.1201 -0.2676 -0.9560
vn -0.9138 0.4027 0.0539
vn 0.9369 -0.3290 -0.1183
vn -0.9379 0.3464 0.0199
vn -0.1640 -0.5739 -0.8023
vn -0.3079 -0.6379 -0.7059
vn 0.3284 0.6348 0.6994
vn 0.9123 -0.4049 -0.0622
usemtl Material.001
s off
f 1/1/1 3/2/1 4/3/1
f 6/4/2 12/5/2 7/6/2
f 5/7/3 2/8/3 1/9/3
f 6/4/4 3/10/4 2/11/4
f 3/12/5 8/13/5 4/14/5
f 5/15/6 4/3/6 8/16/6
f 10/17/7 16/18/7 12/5/7
f 5/7/8 10/19/8 6/20/8
f 7/21/9 11/22/9 8/13/9
f 8/16/10 9/23/10 5/15/10
f 15/24/11 20/25/11 19/26/11
f 9/27/12 14/28/12 10/19/12
f 11/22/13 16/29/13 15/24/13
f 9/23/14 15/30/14 13/31/14
f 19/32/15 18/33/15 17/34/15
f 13/31/16 19/35/16 17/36/16
f 14/37/17 20/38/17 16/18/17
f 13/39/18 18/40/18 14/28/18
f 1/1/19 2/41/19 3/2/19
f 6/4/20 10/17/20 12/5/20
f 5/7/21 6/20/21 2/8/21
f 6/4/22 7/6/22 3/10/22
f 3/12/23 7/21/23 8/13/23
f 5/15/24 1/1/24 4/3/24
f 10/17/25 14/37/25 16/18/25
f 5/7/26 9/27/26 10/19/26
f 7/21/27 12/42/27 11/22/27
f 8/16/28 11/43/28 9/23/28
f 15/24/29 16/29/29 20/25/29
f 9/27/30 13/39/30 14/28/30
f 11/22/31 12/42/31 16/29/31
f 9/23/32 11/43/32 15/30/32
f 19/32/15 20/38/15 18/33/15
f 13/31/33 15/30/33 19/35/33
f 14/37/34 18/33/34 20/38/34
f 13/39/35 17/44/35 18/40/35
