# Blender v3.0.0 OBJ File: 'wiggle.blend'
# www.blender.org
mtllib wiggle_000049.mtl
o Cube
v 1.260709 0.031623 -1.687471
v 1.289128 -0.049467 0.307453
v -0.698769 -0.114244 0.317616
v -0.734968 -0.035421 -1.665946
v 1.051777 2.334083 -1.530451
v 1.239181 1.882113 0.402343
v -0.720961 1.516008 0.498079
v -0.908203 1.968025 -1.434952
v 0.680780 4.144085 -1.029428
v 0.915567 3.610334 0.878956
v -1.256273 3.684614 -0.930132
v -1.021485 3.150863 0.978252
v -0.066436 5.812361 -0.228831
v 0.353867 5.044118 1.564339
v -1.878886 4.984578 -0.169603
v -1.458547 4.216362 1.623531
v -0.836616 7.322496 0.673532
v -0.388489 6.519119 2.449417
v -2.630368 6.439532 0.726730
v -2.182241 5.636156 2.502615
vt 0.214122 0.785878
vt 0.000174 0.999826
vt 0.000175 0.785878
vt 0.428419 0.214122
vt 0.214471 0.408802
vt 0.214471 0.214122
vt 0.857012 0.000174
vt 0.643064 0.214122
vt 0.643064 0.000174
vt 0.428419 0.000174
vt 0.214471 0.000175
vt 0.428768 0.571931
vt 0.642715 0.785878
vt 0.428768 0.785878
vt 0.000175 0.571930
vt 0.214122 0.571930
vt 0.428419 0.586918
vt 0.214471 0.586918
vt 0.857012 0.214122
vt 0.643064 0.408802
vt 0.642715 0.377251
vt 0.642715 0.571931
vt 0.214122 0.377250
vt 0.428768 0.199134
vt 0.642715 0.000175
vt 0.642715 0.199134
vt 0.857012 0.586918
vt 0.643064 0.586918
vt 0.428768 0.377250
vt 0.000175 0.377250
vt 0.214122 0.199134
vt 0.428419 0.999825
vt 0.214471 0.785878
vt 0.428419 0.785878
vt 0.000175 0.199134
vt 0.214122 0.000175
vt 0.857012 0.785878
vt 0.643064 0.785878
vt 0.214122 0.999826
vt 0.428419 0.408802
vt 0.857012 0.408802
vt 0.428768 0.000174
vt 0.214471 0.999826
vt 0.000175 0.000174
vn 0.0331 -0.9986 -0.0403
vn 0.0962 -0.2642 0.9597
vn 0.9996 0.0265 -0.0132
vn 0.0087 -0.1099 0.9939
vn -0.9997 -0.0156 0.0176
vn -0.0602 0.0625 -0.9962
vn 0.2270 -0.4347 0.8715
vn 0.9792 0.1968 -0.0489
vn -0.9764 -0.2113 0.0452
vn -0.0933 0.2478 -0.9643
vn -0.8861 -0.4634 0.0092
vn 0.9214 0.3853 -0.0509
vn -0.9038 -0.4279 -0.0085
vn -0.1366 0.3782 -0.9156
vn -0.3813 0.8023 0.4592
vn -0.2188 0.4159 -0.8827
vn 0.2341 -0.4228 0.8755
vn 0.8889 0.4577 -0.0172
vn 0.0323 -0.9986 -0.0411
vn 0.1076 -0.2455 0.9634
vn 0.9927 0.0951 -0.0740
vn 0.0576 -0.0475 0.9972
vn -0.9928 -0.0944 0.0741
vn -0.0145 0.1133 -0.9935
vn 0.1376 -0.3828 0.9135
vn 0.9745 0.2162 -0.0594
vn -0.9779 -0.1988 0.0647
vn -0.1108 0.2597 -0.9593
vn -0.8870 -0.4615 0.0151
vn 0.9130 0.4080 0.0018
vn -0.9150 -0.4012 0.0426
vn -0.2176 0.4131 -0.8843
vn -0.2328 0.4201 -0.8771
vn 0.2198 -0.4182 0.8813
vn 0.8880 0.4596 -0.0112
usemtl Material.001
s off
f 1/1/1 3/2/1 4/3/1
f 6/4/2 12/5/2 7/6/2
f 1/7/3 6/8/3 2/9/3
f 2/10/4 7/6/4 3/11/4
f 7/12/5 4/13/5 3/14/5
f 1/1/6 8/15/6 5/16/6
f 12/5/7 14/17/7 16/18/7
f 5/19/8 10/20/8 6/8/8
f 7/12/9 11/21/9 8/22/9
f 8/15/10 9/23/10 5/16/10
f 16/24/11 19/25/11 15/26/11
f 10/20/12 13/27/12 14/28/12
f 12/29/13 15/26/13 11/21/13
f 11/30/14 13/31/14 9/23/14
f 17/32/15 20/33/15 18/34/15
f 15/35/16 17/36/16 13/31/16
f 16/18/17 18/34/17 20/33/17
f 14/28/18 17/37/18 18/38/18
f 1/1/19 2/39/19 3/2/19
f 6/4/20 10/40/20 12/5/20
f 1/7/21 5/19/21 6/8/21
f 2/10/22 6/4/22 7/6/22
f 7/12/23 8/22/23 4/13/23
f 1/1/24 4/3/24 8/15/24
f 12/5/25 10/40/25 14/17/25
f 5/19/26 9/41/26 10/20/26
f 7/12/27 12/29/27 11/21/27
f 8/15/28 11/30/28 9/23/28
f 16/24/29 20/42/29 19/25/29
f 10/20/30 9/41/30 13/27/30
f 12/29/31 16/24/31 15/26/31
f 11/30/32 15/35/32 13/31/32
f 17/32/15 19/43/15 20/33/15
f 15/35/33 19/44/33 17/36/33
f 16/18/34 14/17/34 18/34/34
f 14/28/35 13/27/35 17/37/35
