# Blender v3.0.0 OBJ File: 'wiggle.blend'
# www.blender.org
mtllib wiggle_000033.mtl
o Cube
v 1.203720 -0.088919 -1.584642
v 1.234915 -0.037149 0.407141
v -0.763043 -0.012297 0.437092
v -0.791817 -0.064768 -1.562033
v 1.163100 1.724124 -1.743764
v 1.338028 2.023457 0.222990
v -0.650496 2.153842 0.378132
v -0.825476 1.854524 -1.588468
v 1.237883 3.444897 -2.062279
v 1.464102 3.835737 -0.124555
v -0.742530 3.622097 -1.874022
v -0.516311 4.012937 0.063702
v 1.292468 4.621367 -2.740622
v 1.737225 5.411450 -0.969392
v -0.641614 5.018923 -2.440099
v -0.196869 5.809024 -0.668816
v 1.508933 6.190553 -3.648365
v 1.986429 7.040476 -1.902046
v -0.418206 6.621152 -3.330996
v 0.059291 7.471074 -1.584679
vt 0.214122 0.785878
vt 0.000174 0.999826
vt 0.000175 0.785878
vt 0.428419 0.214122
vt 0.214471 0.408802
vt 0.214471 0.214122
vt 0.857012 0.214122
vt 0.643064 0.000174
vt 0.857012 0.000174
vt 0.428419 0.000174
vt 0.214471 0.000175
vt 0.428768 0.785878
vt 0.642715 0.571931
vt 0.642715 0.785878
vt 0.214122 0.571930
vt 0.000175 0.571930
vt 0.428419 0.408802
vt 0.214471 0.586918
vt 0.643064 0.408802
vt 0.643064 0.214122
vt 0.428768 0.571931
vt 0.642715 0.377251
vt 0.214122 0.377250
vt 0.642715 0.199134
vt 0.428768 0.000174
vt 0.642715 0.000175
vt 0.857012 0.408802
vt 0.643064 0.586918
vt 0.428768 0.199134
vt 0.000175 0.377250
vt 0.214122 0.199134
vt 0.214471 0.999826
vt 0.428419 0.785878
vt 0.428419 0.999825
vt 0.000175 0.000174
vt 0.214122 0.000175
vt 0.428419 0.586918
vt 0.214471 0.785878
vt 0.857012 0.586918
vt 0.643064 0.785878
vt 0.214122 0.999826
vt 0.428768 0.377250
vt 0.000175 0.199134
vt 0.857012 0.785878
vn -0.0118 -0.9996 0.0264
vn 0.0872 0.1600 0.9833
vn 0.9996 0.0210 -0.0162
vn 0.0153 0.0264 0.9995
vn -0.9997 -0.0173 0.0148
vn -0.0788 -0.0151 -0.9968
vn 0.1200 0.3565 0.9265
vn 0.9936 -0.0836 -0.0756
vn -0.9951 0.0595 0.0795
vn -0.0882 -0.1776 -0.9801
vn -0.9628 0.2209 0.1558
vn 0.9755 -0.2077 -0.0720
vn -0.9731 0.1434 0.1804
vn -0.1259 -0.4911 -0.8619
vn 0.1206 0.8792 -0.4609
vn -0.2434 -0.4603 -0.8537
vn 0.2259 0.4432 0.8675
vn 0.9635 -0.2278 -0.1404
vn -0.0120 -0.9996 0.0262
vn 0.1090 0.1799 0.9776
vn 0.9952 -0.0569 -0.0798
vn 0.0830 0.0846 0.9930
vn -0.9953 0.0539 0.0804
vn -0.0123 -0.0877 -0.9961
vn 0.2243 0.4300 0.8745
vn 0.9927 -0.0623 -0.1033
vn -0.9913 0.0881 0.0980
vn -0.1071 -0.1537 -0.9823
vn -0.9638 0.2263 0.1411
vn 0.9728 -0.1479 -0.1783
vn -0.9764 0.2034 0.0730
vn -0.2142 -0.3535 -0.9106
vn -0.2266 -0.4490 -0.8643
vn 0.2426 0.4538 0.8574
vn 0.9626 -0.2224 -0.1549
usemtl Material.001
s off
f 1/1/1 3/2/1 4/3/1
f 6/4/2 12/5/2 7/6/2
f 5/7/3 2/8/3 1/9/3
f 2/10/4 7/6/4 3/11/4
f 3/12/5 8/13/5 4/14/5
f 5/15/6 4/3/6 8/16/6
f 10/17/7 16/18/7 12/5/7
f 5/7/8 10/19/8 6/20/8
f 7/21/9 11/22/9 8/13/9
f 8/16/10 9/23/10 5/15/10
f 15/24/11 20/25/11 19/26/11
f 9/27/12 14/28/12 10/19/12
f 11/22/13 16/29/13 15/24/13
f 11/30/14 13/31/14 9/23/14
f 19/32/15 18/33/15 17/34/15
f 13/31/16 19/35/16 17/36/16
f 14/37/17 20/38/17 16/18/17
f 13/39/18 18/40/18 14/28/18
f 1/1/19 2/41/19 3/2/19
f 6/4/20 10/17/20 12/5/20
f 5/7/21 6/20/21 2/8/21
f 2/10/22 6/4/22 7/6/22
f 3/12/23 7/21/23 8/13/23
f 5/15/24 1/1/24 4/3/24
f 10/17/25 14/37/25 16/18/25
f 5/7/26 9/27/26 10/19/26
f 7/21/27 12/42/27 11/22/27
f 8/16/28 11/30/28 9/23/28
f 15/24/29 16/29/29 20/25/29
f 9/27/30 13/39/30 14/28/30
f 11/22/31 12/42/31 16/29/31
f 11/30/32 15/43/32 13/31/32
f 19/32/15 20/38/15 18/33/15
f 13/31/33 15/43/33 19/35/33
f 14/37/34 18/33/34 20/38/34
f 13/39/35 17/44/35 18/40/35
