# Blender v3.0.0 OBJ File: 'wiggle.blend'
# www.blender.org
mtllib wiggle_000031.mtl
o Cube
v 1.194916 -0.099272 -1.568635
v 1.228651 -0.031731 0.418719
v -0.769018 0.004626 0.448308
v -0.799088 -0.064168 -1.548678
v 1.166244 1.642710 -1.750733
v 1.352173 2.033271 0.197172
v -0.631485 2.225407 0.344291
v -0.817491 1.834872 -1.603413
v 1.289218 3.322462 -2.158307
v 1.533572 3.822047 -0.252269
v -0.682497 3.578533 -1.984854
v -0.438142 4.078117 -0.078816
v 1.399317 4.329638 -2.941038
v 1.901460 5.282409 -1.272743
v -0.504112 4.877149 -2.694570
v -0.001986 5.829948 -1.026214
v 1.718549 5.745080 -4.039672
v 2.259310 6.765782 -2.406961
v -0.174648 6.336294 -3.782238
v 0.366114 7.356996 -2.149528
vt 0.214122 0.785878
vt 0.000174 0.999826
vt 0.000175 0.785878
vt 0.428419 0.214122
vt 0.214471 0.408802
vt 0.214471 0.214122
vt 0.857012 0.214122
vt 0.643064 0.000174
vt 0.857012 0.000174
vt 0.428419 0.000174
vt 0.214471 0.000175
vt 0.428768 0.785878
vt 0.642715 0.571931
vt 0.642715 0.785878
vt 0.214122 0.571930
vt 0.000175 0.571930
vt 0.428419 0.408802
vt 0.214471 0.586918
vt 0.643064 0.408802
vt 0.643064 0.214122
vt 0.428768 0.571931
vt 0.642715 0.377251
vt 0.214122 0.377250
vt 0.642715 0.199134
vt 0.428768 0.000174
vt 0.642715 0.000175
vt 0.857012 0.408802
vt 0.643064 0.586918
vt 0.428768 0.199134
vt 0.000175 0.377250
vt 0.214122 0.199134
vt 0.214471 0.999826
vt 0.428419 0.785878
vt 0.428419 0.999825
vt 0.000175 0.000174
vt 0.214122 0.000175
vt 0.428419 0.586918
vt 0.214471 0.785878
vt 0.857012 0.586918
vt 0.643064 0.785878
vt 0.214122 0.999826
vt 0.428768 0.377250
vt 0.000175 0.199134
vt 0.857012 0.785878
vn -0.0172 -0.9992 0.0347
vn 0.0927 0.2125 0.9728
vn 0.9997 0.0146 -0.0175
vn 0.0156 0.0458 0.9988
vn -0.9998 -0.0092 0.0154
vn -0.0769 -0.0295 -0.9966
vn 0.1357 0.4450 0.8852
vn 0.9905 -0.1182 -0.0708
vn -0.9927 0.0935 0.0761
vn -0.0941 -0.2282 -0.9690
vn -0.9446 0.3046 0.1225
vn 0.9596 -0.2770 -0.0504
vn -0.9615 0.2212 0.1631
vn -0.1469 -0.5969 -0.7887
vn 0.1756 0.8076 -0.5630
vn -0.2786 -0.5489 -0.7881
vn 0.2574 0.5316 0.8070
vn 0.9447 -0.3100 -0.1073
vn -0.0177 -0.9993 0.0343
vn 0.1150 0.2311 0.9661
vn 0.9944 -0.0682 -0.0812
vn 0.0833 0.1014 0.9914
vn -0.9945 0.0654 0.0819
vn -0.0118 -0.1042 -0.9945
vn 0.2533 0.5104 0.8218
vn 0.9901 -0.0971 -0.1015
vn -0.9878 0.1245 0.0940
vn -0.1121 -0.2041 -0.9725
vn -0.9452 0.3078 0.1087
vn 0.9606 -0.2283 -0.1587
vn -0.9619 0.2682 0.0530
vn -0.2387 -0.4403 -0.8656
vn -0.2588 -0.5390 -0.8015
vn 0.2769 0.5406 0.7944
vn 0.9441 -0.3068 -0.1209
usemtl Material.001
s off
f 1/1/1 3/2/1 4/3/1
f 6/4/2 12/5/2 7/6/2
f 5/7/3 2/8/3 1/9/3
f 2/10/4 7/6/4 3/11/4
f 3/12/5 8/13/5 4/14/5
f 5/15/6 4/3/6 8/16/6
f 10/17/7 16/18/7 12/5/7
f 5/7/8 10/19/8 6/20/8
f 7/21/9 11/22/9 8/13/9
f 8/16/10 9/23/10 5/15/10
f 15/24/11 20/25/11 19/26/11
f 9/27/12 14/28/12 10/19/12
f 11/22/13 16/29/13 15/24/13
f 11/30/14 13/31/14 9/23/14
f 19/32/15 18/33/15 17/34/15
f 13/31/16 19/35/16 17/36/16
f 14/37/17 20/38/17 16/18/17
f 13/39/18 18/40/18 14/28/18
f 1/1/19 2/41/19 3/2/19
f 6/4/20 10/17/20 12/5/20
f 5/7/21 6/20/21 2/8/21
f 2/10/22 6/4/22 7/6/22
f 3/12/23 7/21/23 8/13/23
f 5/15/24 1/1/24 4/3/24
f 10/17/25 14/37/25 16/18/25
f 5/7/26 9/27/26 10/19/26
f 7/21/27 12/42/27 11/22/27
f 8/16/28 11/30/28 9/23/28
f 15/24/29 16/29/29 20/25/29
f 9/27/30 13/39/30 14/28/30
f 11/22/31 12/42/31 16/29/31
f 11/30/32 15/43/32 13/31/32
f 19/32/15 20/38/15 18/33/15
f 13/31/33 15/43/33 19/35/33
f 14/37/34 18/33/34 20/38/34
f 13/39/35 17/44/35 18/40/35
