# Blender 3.2.1
# www.blender.org
mtllib detonator.000.mtl
o Detonator.001
v 1.000000 0.000000 0.019925
v 1.012571 0.057837 -0.012692
v 1.000000 0.000000 -0.019925
v 1.012571 0.057837 -0.016823
v 1.019988 0.052396 0.003739
v 1.019988 0.052396 -0.003739
v 1.019988 0.056746 -0.003739
v 1.016761 0.057837 -0.016823
v 1.019988 0.000000 -0.019925
v 1.019988 0.000000 0.019925
v 1.016761 0.057837 -0.012692
v 1.021373 0.052396 -0.003739
v 1.021373 0.052396 0.003739
v 1.019988 0.056746 0.003739
v 1.021373 0.056746 -0.003739
v 1.021373 0.056746 0.003739
v 1.021491 0.062603 -0.003739
v 1.021491 0.062603 0.003739
v 1.022877 0.062603 -0.003739
v 1.022877 0.062603 0.003739
v 1.021491 0.065834 -0.003739
v 1.021491 0.065834 0.003739
v 1.022877 0.065834 -0.003739
v 1.022877 0.065834 0.003739
v 1.020273 0.068787 -0.003739
v 1.020273 0.068787 0.003739
v 1.020996 0.070433 -0.003739
v 1.020996 0.070433 0.003739
v 1.011720 0.072600 -0.003739
v 1.011720 0.072600 0.003739
v 1.011877 0.074441 -0.003739
v 1.011877 0.074441 0.003739
v 1.000000 0.074100 -0.003739
v 1.000000 0.074100 0.003739
v 1.000000 0.075940 -0.003739
v 1.000000 0.075940 0.003739
v 1.000000 0.057837 0.019925
v 1.000000 0.057837 -0.019925
v 1.019988 0.057837 -0.019925
v 1.019988 0.057837 0.019925
v 1.012854 0.059394 -0.014512
v 1.013479 0.060244 -0.014521
v 1.013479 0.060244 -0.014922
v 1.012854 0.059394 -0.014923
v 1.015853 0.060244 -0.014922
v 1.016479 0.059394 -0.014923
v 1.015853 0.060244 -0.014521
v 1.016479 0.059394 -0.014512
v 1.012571 0.059111 -0.012692
v 1.013762 0.060302 -0.013883
v 1.013762 0.060302 -0.015632
v 1.012571 0.059111 -0.016823
v 1.015571 0.060302 -0.015632
v 1.016761 0.059111 -0.016823
v 1.015571 0.060302 -0.013883
v 1.016761 0.059111 -0.012692
v 1.011230 0.061845 -0.014512
v 1.012409 0.062470 -0.014521
v 1.012409 0.062470 -0.014922
v 1.011230 0.061845 -0.014923
v 1.016887 0.062470 -0.014922
v 1.018066 0.061845 -0.014923
v 1.016887 0.062470 -0.014521
v 1.018066 0.061845 -0.014512
v 0.987429 0.057837 -0.012692
v 0.987429 0.057837 -0.016823
v 0.980012 0.052396 0.003739
v 0.980012 0.052396 -0.003739
v 0.980012 0.056746 -0.003739
v 0.983239 0.057837 -0.016823
v 0.980012 0.000000 -0.019925
v 0.980012 0.000000 0.019925
v 0.983239 0.057837 -0.012692
v 0.978627 0.056746 -0.003739
v 0.978627 0.052396 -0.003739
v 0.978627 0.052396 0.003739
v 0.978627 0.056746 0.003739
v 0.980012 0.056746 0.003739
v 0.978509 0.062603 -0.003739
v 0.978509 0.062603 0.003739
v 0.977123 0.062603 -0.003739
v 0.977123 0.062603 0.003739
v 0.978509 0.065834 -0.003739
v 0.978509 0.065834 0.003739
v 0.977123 0.065834 -0.003739
v 0.977123 0.065834 0.003739
v 0.979727 0.068787 -0.003739
v 0.979727 0.068787 0.003739
v 0.979003 0.070433 -0.003739
v 0.979003 0.070433 0.003739
v 0.988280 0.072600 -0.003739
v 0.988280 0.072600 0.003739
v 0.988123 0.074441 -0.003739
v 0.988123 0.074441 0.003739
v 0.980012 0.057837 -0.019925
v 0.980012 0.057837 0.019925
v 0.987146 0.059394 -0.014512
v 0.986521 0.060244 -0.014521
v 0.986521 0.060244 -0.014922
v 0.987146 0.059394 -0.014923
v 0.984147 0.060244 -0.014922
v 0.983521 0.059394 -0.014923
v 0.984147 0.060244 -0.014521
v 0.983521 0.059394 -0.014512
v 0.987429 0.059111 -0.012692
v 0.986238 0.060302 -0.013883
v 0.986238 0.060302 -0.015632
v 0.987429 0.059111 -0.016823
v 0.984429 0.060302 -0.015632
v 0.983239 0.059111 -0.016823
v 0.984429 0.060302 -0.013883
v 0.983239 0.059111 -0.012692
v 0.988770 0.061845 -0.014512
v 0.987591 0.062470 -0.014521
v 0.987591 0.062470 -0.014922
v 0.988770 0.061845 -0.014923
v 0.983113 0.062470 -0.014922
v 0.981934 0.061845 -0.014923
v 0.983113 0.062470 -0.014521
v 0.981934 0.061845 -0.014512
vn -1.0000 -0.0000 -0.0000
vn -0.0000 -0.0000 -1.0000
vn -0.0000 -0.0000 1.0000
vn -0.0000 -1.0000 -0.0000
vn 1.0000 -0.0000 -0.0000
vn 0.9686 -0.2487 -0.0000
vn -0.9686 0.2487 -0.0000
vn 0.4024 0.9155 -0.0000
vn 0.9256 0.3784 -0.0000
vn -0.9245 -0.3812 -0.0000
vn -0.4072 -0.9134 -0.0000
vn -0.1269 -0.9919 -0.0000
vn 0.1253 0.9921 -0.0000
vn -0.0000 1.0000 -0.0000
vn 0.9012 0.4333 -0.0000
vn -0.0000 0.7071 -0.7071
vn -0.8336 -0.5524 -0.0000
vn -0.0000 0.7071 0.7071
vn -0.7697 0.5690 0.2896
vn -0.2001 0.9798 -0.0000
vn -0.7071 0.7071 -0.0000
vn 0.7771 0.5717 -0.2631
vn 0.2001 0.9798 -0.0000
vn 0.7071 0.7071 -0.0000
vn -0.4684 0.8835 -0.0000
vn 0.4684 0.8835 -0.0000
vn -0.0061 0.0028 1.0000
vn -0.0010 0.0007 -1.0000
vn 0.0008 0.0004 -1.0000
vn 0.0076 0.0050 1.0000
vn 0.8394 -0.5436 -0.0000
vn -0.9070 0.4211 -0.0000
vn -0.9686 -0.2487 -0.0000
vn 0.9686 0.2487 -0.0000
vn -0.4024 0.9155 -0.0000
vn -0.9256 0.3784 -0.0000
vn 0.9245 -0.3812 -0.0000
vn 0.4072 -0.9134 -0.0000
vn 0.1269 -0.9919 -0.0000
vn -0.1253 0.9921 -0.0000
vn -0.9012 0.4333 -0.0000
vn 0.8336 -0.5524 -0.0000
vn 0.7697 0.5690 0.2896
vn 0.7771 0.5718 -0.2631
vn -0.7771 0.5718 -0.2631
vn -0.7697 0.5690 0.2897
vn 0.0077 0.0050 1.0000
vn 0.0010 0.0007 -1.0000
vn -0.0076 0.0050 1.0000
vn -0.8394 -0.5436 -0.0000
vn 0.9070 0.4211 -0.0000
vn 0.7697 0.5690 0.2897
vn -0.0077 0.0050 1.0000
vn -0.0008 0.0004 -1.0000
vn 0.0061 0.0029 1.0000
vn 0.0061 0.0028 1.0000
vn -0.0061 0.0029 1.0000
vt 0.680443 0.461205
vt 0.480453 0.348446
vt 0.875790 0.790842
vt 0.049649 0.779511
vt 0.947490 0.648039
vt 0.896468 0.546016
vt 0.829076 0.164228
vt 0.025486 0.348446
vt 0.875790 0.982422
vt 0.603290 0.292130
vt 0.735960 0.648039
vt 0.460759 0.461205
vt 0.860840 0.214238
vt 0.918322 0.546016
vt 0.942301 0.048616
vt 0.432141 0.958918
vt 0.274276 0.049815
vt 0.442571 0.967873
vt 0.437207 0.892389
vt 0.231660 0.049815
vt 0.428063 0.903467
vt 0.231660 0.025020
vt 0.469627 0.888844
vt 0.870159 0.061003
vt 0.918322 0.523849
vt 0.779700 0.982422
vt 0.139405 0.348445
vt 0.779700 0.790842
vt 0.366533 0.348446
vt 0.896468 0.523849
vt 0.830972 0.106483
vt 0.438336 0.902712
vt 0.442414 0.958163
vt 0.473945 0.967606
vt 0.274276 0.025020
vt 0.472760 0.834411
vt 0.471143 0.899083
vt 0.474417 0.957469
vt 0.515624 0.891579
vt 0.516968 0.960821
vt 0.516876 0.836675
vt 0.516304 0.901695
vt 0.516869 0.951514
vt 0.539811 0.893109
vt 0.539686 0.958344
vt 0.539581 0.837193
vt 0.537506 0.901879
vt 0.537098 0.949362
vt 0.564931 0.892911
vt 0.563339 0.957352
vt 0.561441 0.836791
vt 0.570660 0.903654
vt 0.568609 0.946826
vt 0.631210 0.886795
vt 0.628367 0.965301
vt 0.628088 0.832656
vt 0.634414 0.899941
vt 0.632066 0.952060
vt 0.591565 0.382367
vt 0.718770 0.882827
vt 0.290707 0.916122
vt 0.718417 0.971444
vt 0.645054 0.382367
vt 0.715510 0.827506
vt 0.290354 0.827506
vt 0.287447 0.971444
vt 0.591565 0.395532
vt 0.721155 0.896850
vt 0.293092 0.902100
vt 0.645054 0.395532
vt 0.721155 0.957089
vt 0.293092 0.841860
vt 0.680443 0.780046
vt 0.480453 0.018799
vt 0.723913 0.612523
vt 0.049653 0.461741
vt 0.737325 0.036206
vt 0.460759 0.780046
vt 0.025485 0.018801
vt 0.934733 0.612523
vt 0.603290 0.034808
vt 0.737325 0.258171
vt 0.139404 0.018800
vt 0.934733 0.506782
vt 0.366533 0.018799
vt 0.723913 0.506782
vt 0.861049 0.172348
vt 0.875531 0.161110
vt 0.878879 0.165670
vt 0.864180 0.176385
vt 0.880973 0.111508
vt 0.868743 0.099114
vt 0.876600 0.115244
vt 0.865537 0.102332
vt 0.845257 0.158981
vt 0.872913 0.151392
vt 0.899793 0.150731
vt 0.925318 0.105710
vt 0.888664 0.171789
vt 0.945484 0.074004
vt 0.876259 0.204444
vt 0.899110 0.122940
vt 0.892415 0.107324
vt 0.880327 0.079177
vt 0.872230 0.123601
vt 0.848646 0.112374
vt 0.870479 0.168400
vt 0.870476 0.168319
vt 0.870509 0.168327
vt 0.870557 0.168359
vt 0.873300 0.107129
vt 0.873168 0.107175
vt 0.873308 0.107194
vt 0.873268 0.107319
vt 0.667303 0.217883
vt 0.867175 0.260559
vt 0.667303 0.240892
vt 0.897914 0.220539
vt 0.004078 0.840031
vt 0.248397 0.491640
vt 0.014508 0.831076
vt 0.009144 0.906560
vt 0.289480 0.491640
vt 0.000000 0.895482
vt 0.289480 0.467737
vt 0.041564 0.910105
vt 0.643964 0.240892
vt 0.934501 0.203349
vt 0.892200 0.385805
vt 0.514365 0.292130
vt 0.735960 0.754135
vt 0.378414 0.779516
vt 0.947490 0.754135
vt 0.159465 0.779512
vt 0.643964 0.217883
vt 0.865104 0.335268
vt 0.043080 0.899866
vt 0.010273 0.896237
vt 0.014351 0.840787
vt 0.046354 0.841481
vt 0.248397 0.467737
vt 0.045882 0.831344
vt 0.044697 0.964538
vt 0.087561 0.907370
vt 0.088905 0.838129
vt 0.088813 0.962274
vt 0.088241 0.897255
vt 0.088806 0.847435
vt 0.111748 0.905840
vt 0.111623 0.840606
vt 0.111518 0.961757
vt 0.109443 0.897071
vt 0.109035 0.849587
vt 0.136868 0.906038
vt 0.135276 0.841597
vt 0.133378 0.962159
vt 0.142597 0.895296
vt 0.140546 0.852123
vt 0.203147 0.912155
vt 0.200304 0.833648
vt 0.200025 0.966293
vt 0.206351 0.899009
vt 0.204003 0.846889
vt 0.514365 0.034808
vt 0.378414 0.461740
vt 0.625994 0.258171
vt 0.159469 0.461742
vt 0.625995 0.036206
vt 0.905162 0.251925
vt 0.912292 0.255042
vt 0.912412 0.248961
vt 0.906890 0.247946
vt 0.912014 0.352016
vt 0.905866 0.353863
vt 0.911629 0.345999
vt 0.903799 0.348883
vt 0.883348 0.264022
vt 0.912384 0.275842
vt 0.960257 0.275842
vt 0.920009 0.241077
vt 0.906442 0.229750
vt 0.960257 0.325337
vt 0.936031 0.233489
vt 0.920793 0.359201
vt 0.939727 0.214470
vt 0.907782 0.377451
vt 0.912384 0.325337
vt 0.882877 0.332499
vt 0.910358 0.232899
vt 0.912978 0.236192
vt 0.911216 0.235513
vt 0.912137 0.230297
vt 0.910198 0.365138
vt 0.910957 0.370328
vt 0.911966 0.364528
vt 0.909253 0.367716
s 0
usemtl detonator.000
f 37/73/1 3/12/1 1/1/1
f 38/79/2 9/27/2 3/8/2
f 40/85/3 1/2/3 10/29/3
f 9/26/4 1/3/4 3/9/4
f 8/24/5 56/106/5 11/31/5
f 6/20/5 39/83/5 7/22/5
f 5/17/5 9/27/5 6/20/5
f 7/22/5 40/85/5 14/35/5
f 5/17/5 40/85/5 10/29/5
f 15/37/5 13/33/5 12/32/5
f 7/23/2 12/32/2 6/19/2
f 5/18/3 16/38/3 14/34/3
f 6/21/4 13/33/4 5/16/4
f 15/37/2 17/39/2 19/42/2
f 20/43/3 22/45/3 18/40/3
f 15/37/6 20/43/6 16/38/6
f 16/38/3 18/40/3 14/34/3
f 14/36/7 17/39/7 7/23/7
f 23/47/2 25/49/2 27/52/2
f 18/41/1 21/44/1 17/39/1
f 17/39/2 23/47/2 19/42/2
f 19/42/5 24/48/5 20/43/5
f 27/52/8 32/58/8 28/53/8
f 23/47/9 28/53/9 24/48/9
f 24/48/3 26/50/3 22/45/3
f 22/46/10 25/49/10 21/44/10
f 32/58/3 34/62/3 30/55/3
f 28/53/3 30/55/3 26/50/3
f 26/51/11 29/54/11 25/49/11
f 27/52/2 29/54/2 31/57/2
f 34/63/1 35/67/1 33/59/1
f 30/56/12 33/60/12 29/54/12
f 31/57/2 33/60/2 35/68/2
f 31/57/13 36/71/13 32/58/13
f 2/6/14 38/80/14 37/75/14
f 4/14/14 39/84/14 38/80/14
f 11/30/14 39/84/14 8/25/14
f 2/6/14 40/86/14 11/30/14
f 11/31/3 49/95/3 2/7/3
f 51/97/14 55/105/14 53/102/14
f 4/15/2 54/104/2 8/24/2
f 43/89/15 58/108/15 42/88/15
f 51/98/16 54/104/16 52/100/16
f 41/87/17 60/110/17 44/90/17
f 50/96/18 56/106/18 55/105/18
f 2/7/1 52/101/1 4/13/1
f 41/87/19 50/96/19 42/88/19
f 43/89/20 50/96/20 51/99/20
f 44/90/21 51/99/21 52/101/21
f 44/90/21 49/95/21 41/87/21
f 46/92/22 53/103/22 45/91/22
f 45/91/23 55/105/23 47/93/23
f 48/94/24 55/105/24 56/106/24
f 46/92/24 56/106/24 54/104/24
f 58/108/25 60/110/25 57/107/25
f 63/113/26 62/112/26 61/111/26
f 47/93/27 64/114/27 63/113/27
f 45/91/28 62/112/28 46/92/28
f 43/89/29 60/110/29 59/109/29
f 42/88/30 57/107/30 41/87/30
f 46/92/31 64/114/31 48/94/31
f 47/93/32 61/111/32 45/91/32
f 71/130/2 38/81/2 3/10/2
f 1/4/3 96/167/3 72/134/3
f 1/5/4 71/131/4 3/11/4
f 112/188/1 70/129/1 73/136/1
f 95/165/1 68/123/1 69/125/1
f 71/132/1 67/120/1 68/123/1
f 96/167/1 69/125/1 78/141/1
f 67/120/1 96/167/1 78/141/1
f 76/139/1 74/137/1 75/138/1
f 75/138/2 69/126/2 68/122/2
f 77/140/3 67/121/3 78/142/3
f 76/139/4 68/124/4 67/119/4
f 74/137/2 79/144/2 69/126/2
f 84/150/3 82/148/3 80/145/3
f 82/148/33 74/137/33 77/140/33
f 80/145/3 77/140/3 78/142/3
f 79/144/34 78/143/34 69/126/34
f 85/152/2 87/154/2 83/149/2
f 83/149/5 80/146/5 79/144/5
f 85/152/2 79/144/2 81/147/2
f 86/153/1 81/147/1 82/148/1
f 94/163/35 89/157/35 90/158/35
f 90/158/36 85/152/36 86/153/36
f 88/155/3 86/153/3 84/150/3
f 87/154/37 84/151/37 83/149/37
f 34/65/3 94/163/3 92/160/3
f 92/160/3 90/158/3 88/155/3
f 91/159/38 88/156/38 87/154/38
f 89/157/2 91/159/2 87/154/2
f 33/61/39 92/161/39 91/159/39
f 93/162/2 33/61/2 91/159/2
f 36/72/40 93/162/40 94/163/40
f 65/115/14 38/82/14 66/117/14
f 66/117/14 95/166/14 70/127/14
f 95/166/14 73/135/14 70/127/14
f 96/168/14 65/115/14 73/135/14
f 105/177/3 73/136/3 65/116/3
f 111/187/14 107/179/14 109/182/14
f 110/185/2 66/118/2 70/128/2
f 114/190/41 99/171/41 98/170/41
f 108/181/16 109/183/16 107/180/16
f 116/192/42 97/169/42 100/172/42
f 112/188/18 106/178/18 111/187/18
f 108/181/5 65/116/5 66/118/5
f 106/178/43 97/169/43 98/170/43
f 99/171/23 106/178/23 98/170/23
f 100/172/44 107/180/44 99/171/44
f 105/177/24 100/172/24 97/169/24
f 109/184/45 102/174/45 101/173/45
f 111/187/20 101/173/20 103/175/20
f 104/176/46 111/187/46 103/175/46
f 102/174/21 112/188/21 104/176/21
f 114/190/26 116/192/26 115/191/26
f 118/194/25 119/195/25 117/193/25
f 103/175/47 120/196/47 104/176/47
f 118/194/48 101/173/48 102/174/48
f 99/171/28 116/192/28 100/172/28
f 113/189/49 98/170/49 97/169/49
f 120/196/50 102/174/50 104/176/50
f 117/193/51 103/175/51 101/173/51
f 37/73/1 38/78/1 3/12/1
f 38/79/2 39/83/2 9/27/2
f 40/85/3 37/74/3 1/2/3
f 9/26/4 10/28/4 1/3/4
f 8/24/5 54/104/5 56/106/5
f 6/20/5 9/27/5 39/83/5
f 5/17/5 10/29/5 9/27/5
f 7/22/5 39/83/5 40/85/5
f 5/17/5 14/35/5 40/85/5
f 15/37/5 16/38/5 13/33/5
f 7/23/2 15/37/2 12/32/2
f 5/18/3 13/33/3 16/38/3
f 6/21/4 12/32/4 13/33/4
f 15/37/2 7/23/2 17/39/2
f 20/43/3 24/48/3 22/45/3
f 15/37/6 19/42/6 20/43/6
f 16/38/3 20/43/3 18/40/3
f 14/36/7 18/41/7 17/39/7
f 23/47/2 21/44/2 25/49/2
f 18/41/1 22/46/1 21/44/1
f 17/39/2 21/44/2 23/47/2
f 19/42/5 23/47/5 24/48/5
f 27/52/8 31/57/8 32/58/8
f 23/47/9 27/52/9 28/53/9
f 24/48/3 28/53/3 26/50/3
f 22/46/10 26/51/10 25/49/10
f 32/58/3 36/71/3 34/62/3
f 28/53/3 32/58/3 30/55/3
f 26/51/11 30/56/11 29/54/11
f 27/52/2 25/49/2 29/54/2
f 34/63/1 36/70/1 35/67/1
f 30/56/12 34/64/12 33/60/12
f 31/57/2 29/54/2 33/60/2
f 31/57/13 35/68/13 36/71/13
f 2/6/14 4/14/14 38/80/14
f 4/14/14 8/25/14 39/84/14
f 11/30/14 40/86/14 39/84/14
f 2/6/14 37/75/14 40/86/14
f 11/31/3 56/106/3 49/95/3
f 51/97/14 50/96/14 55/105/14
f 4/15/2 52/100/2 54/104/2
f 43/89/15 59/109/15 58/108/15
f 51/98/16 53/103/16 54/104/16
f 41/87/17 57/107/17 60/110/17
f 50/96/18 49/95/18 56/106/18
f 2/7/1 49/95/1 52/101/1
f 41/87/21 49/95/21 50/96/21
f 43/89/20 42/88/20 50/96/20
f 44/90/45 43/89/45 51/99/45
f 44/90/21 52/101/21 49/95/21
f 46/92/24 54/104/24 53/103/24
f 45/91/23 53/103/23 55/105/23
f 48/94/52 47/93/52 55/105/52
f 46/92/24 48/94/24 56/106/24
f 58/108/25 59/109/25 60/110/25
f 63/113/26 64/114/26 62/112/26
f 47/93/53 48/94/53 64/114/53
f 45/91/54 61/111/54 62/112/54
f 43/89/48 44/90/48 60/110/48
f 42/88/55 58/108/55 57/107/55
f 46/92/31 62/112/31 64/114/31
f 47/93/32 63/113/32 61/111/32
f 71/130/2 95/164/2 38/81/2
f 1/4/3 37/76/3 96/167/3
f 1/5/4 72/133/4 71/131/4
f 112/188/1 110/186/1 70/129/1
f 95/165/1 71/132/1 68/123/1
f 71/132/1 72/134/1 67/120/1
f 96/167/1 95/165/1 69/125/1
f 67/120/1 72/134/1 96/167/1
f 76/139/1 77/140/1 74/137/1
f 75/138/2 74/137/2 69/126/2
f 77/140/3 76/139/3 67/121/3
f 76/139/4 75/138/4 68/124/4
f 74/137/2 81/147/2 79/144/2
f 84/150/3 86/153/3 82/148/3
f 82/148/33 81/147/33 74/137/33
f 80/145/3 82/148/3 77/140/3
f 79/144/34 80/146/34 78/143/34
f 85/152/2 89/157/2 87/154/2
f 83/149/5 84/151/5 80/146/5
f 85/152/2 83/149/2 79/144/2
f 86/153/1 85/152/1 81/147/1
f 94/163/35 93/162/35 89/157/35
f 90/158/36 89/157/36 85/152/36
f 88/155/3 90/158/3 86/153/3
f 87/154/37 88/156/37 84/151/37
f 34/65/3 36/72/3 94/163/3
f 92/160/3 94/163/3 90/158/3
f 91/159/38 92/161/38 88/156/38
f 89/157/2 93/162/2 91/159/2
f 33/61/39 34/66/39 92/161/39
f 93/162/2 35/69/2 33/61/2
f 36/72/40 35/69/40 93/162/40
f 65/115/14 37/77/14 38/82/14
f 66/117/14 38/82/14 95/166/14
f 95/166/14 96/168/14 73/135/14
f 96/168/14 37/77/14 65/115/14
f 105/177/3 112/188/3 73/136/3
f 111/187/14 106/178/14 107/179/14
f 110/185/2 108/181/2 66/118/2
f 114/190/41 115/191/41 99/171/41
f 108/181/16 110/185/16 109/183/16
f 116/192/42 113/189/42 97/169/42
f 112/188/18 105/177/18 106/178/18
f 108/181/5 105/177/5 65/116/5
f 106/178/24 105/177/24 97/169/24
f 99/171/23 107/180/23 106/178/23
f 100/172/24 108/181/24 107/180/24
f 105/177/24 108/181/24 100/172/24
f 109/184/21 110/186/21 102/174/21
f 111/187/20 109/184/20 101/173/20
f 104/176/21 112/188/21 111/187/21
f 102/174/21 110/186/21 112/188/21
f 114/190/26 113/189/26 116/192/26
f 118/194/25 120/196/25 119/195/25
f 103/175/56 119/195/56 120/196/56
f 118/194/29 117/193/29 101/173/29
f 99/171/54 115/191/54 116/192/54
f 113/189/57 114/190/57 98/170/57
f 120/196/50 118/194/50 102/174/50
f 117/193/51 119/195/51 103/175/51
