# Blender 3.2.1
# www.blender.org
mtllib person.000.mtl
o Person.000
v -7.000000 0.311756 0.008445
v -7.000000 0.311756 -0.008445
v -6.952538 0.285721 0.008445
v -6.952538 0.285721 -0.008445
v -7.000000 0.234207 0.008445
v -7.000000 0.234207 -0.008445
v -6.936180 0.144123 -0.008445
v -6.936180 0.144123 0.008445
v -6.957754 0.228321 -0.008445
v -6.957754 0.228321 0.008445
v -7.000000 0.071659 -0.008445
v -6.936180 0.071659 -0.008445
v -6.936180 0.071659 0.008445
v -7.000000 0.071659 0.008445
v -6.956010 0.000000 -0.008445
v -6.966777 0.304156 -0.008445
v -6.956010 0.000000 0.008445
v -6.966777 0.304156 0.008445
v -6.956010 0.071659 -0.008445
v -6.956010 0.071659 0.008445
v -6.989623 0.000000 -0.008445
v -6.983730 0.310416 0.008445
v -6.989623 0.071659 0.008445
v -6.983730 0.310416 -0.008445
v -6.989623 0.000000 0.008445
v -6.989623 0.071659 -0.008445
v -6.958673 0.244169 -0.008445
v -6.958673 0.244169 0.008445
v -6.936180 0.199744 -0.008445
v -6.936180 0.199744 0.008445
v -6.943348 0.216860 -0.008445
v -6.943348 0.216860 0.008445
v -6.948289 0.265348 -0.008445
v -6.948289 0.265348 0.008445
v -6.971498 0.234207 -0.008445
v -6.971498 0.234207 0.008445
v -7.047462 0.285721 0.008445
v -7.047462 0.285721 -0.008445
v -7.063820 0.144123 -0.008445
v -7.063820 0.144123 0.008445
v -7.042246 0.228321 -0.008445
v -7.042246 0.228321 0.008445
v -7.063820 0.071659 -0.008445
v -7.063820 0.071659 0.008445
v -7.043990 0.000000 -0.008445
v -7.033223 0.304156 -0.008445
v -7.043990 0.000000 0.008445
v -7.033223 0.304156 0.008445
v -7.043990 0.071659 -0.008445
v -7.043990 0.071659 0.008445
v -7.010377 0.000000 -0.008445
v -7.016270 0.310416 0.008445
v -7.010377 0.071659 0.008445
v -7.016270 0.310416 -0.008445
v -7.010377 0.000000 0.008445
v -7.010377 0.071659 -0.008445
v -7.041327 0.244169 -0.008445
v -7.041327 0.244169 0.008445
v -7.063820 0.199744 -0.008445
v -7.063820 0.199744 0.008445
v -7.056652 0.216860 -0.008445
v -7.056652 0.216860 0.008445
v -7.051711 0.265348 -0.008445
v -7.051711 0.265348 0.008445
v -7.028502 0.234207 -0.008445
v -7.028502 0.234207 0.008445
vn -1.0000 -0.0000 -0.0000
vn -0.0000 -0.0000 -1.0000
vn 0.9789 0.2041 -0.0000
vn -0.0000 -0.0000 1.0000
vn 1.0000 -0.0000 -0.0000
vn 0.0821 0.9966 -0.0000
vn 0.6226 0.7826 -0.0000
vn -0.0000 -1.0000 -0.0000
vn 0.7914 0.6113 -0.0000
vn 0.3464 0.9381 -0.0000
vn 0.6135 -0.7897 -0.0000
vn 0.9224 0.3863 -0.0000
vn 0.8979 -0.4402 -0.0000
vn 0.3937 0.9192 -0.0000
vn -0.9789 0.2041 -0.0000
vn -0.0821 0.9966 -0.0000
vn -0.6226 0.7826 -0.0000
vn -0.7914 0.6113 -0.0000
vn -0.3464 0.9381 -0.0000
vn -0.6135 -0.7897 -0.0000
vn -0.9224 0.3863 -0.0000
vn -0.8979 -0.4402 -0.0000
vn -0.3937 0.9192 -0.0000
vt 0.500000 1.000000
vt 0.417016 1.000000
vt 0.500000 0.417016
vt 0.500000 1.000000
vt 0.582984 1.000000
vt 0.500000 0.582984
vt 0.417016 0.916491
vt 0.652243 0.916491
vt 0.652243 0.916491
vt 0.582984 0.916491
vt 0.417016 0.751250
vt 0.500000 0.751250
vt 0.582984 0.751250
vt 0.500000 0.751250
vt 0.582984 0.462295
vt 0.704711 0.462295
vt 0.704711 0.462295
vt 0.417016 0.462295
vt 0.635511 0.732370
vt 0.635511 0.582984
vt 0.635511 0.732370
vt 0.635511 0.417016
vt 0.500000 0.582984
vt 0.500000 0.229856
vt 0.582984 0.229856
vt 0.582984 0.229856
vt 0.704711 0.229856
vt 0.704711 0.582984
vt 0.704711 0.229856
vt 0.417016 0.229856
vt 0.704711 0.417016
vt 0.417016 0.229856
vt 0.500000 0.229856
vt 0.500000 0.417016
vt 0.582984 0.000000
vt 0.641102 0.000000
vt 0.641102 0.582984
vt 0.606566 0.582984
vt 0.606566 0.975623
vt 0.582984 0.975623
vt 0.641102 0.000000
vt 0.417016 0.000000
vt 0.641102 0.417016
vt 0.417016 0.975623
vt 0.606566 0.975623
vt 0.606566 0.417016
vt 0.582984 0.229856
vt 0.641102 0.582984
vt 0.641102 0.229856
vt 0.417016 0.229856
vt 0.641102 0.417016
vt 0.641102 0.229856
vt 0.533286 0.000000
vt 0.533286 0.582984
vt 0.582984 0.000000
vt 0.552187 0.995700
vt 0.552187 0.417016
vt 0.417016 0.229856
vt 0.533286 0.417016
vt 0.533286 0.229856
vt 0.552187 0.995700
vt 0.552187 0.582984
vt 0.417016 0.000000
vt 0.533286 0.417016
vt 0.533286 0.000000
vt 0.533286 0.582984
vt 0.582984 0.229856
vt 0.533286 0.229856
vt 0.582984 0.783204
vt 0.632560 0.783204
vt 0.632560 0.582984
vt 0.632560 0.783204
vt 0.632560 0.417016
vt 0.417016 0.783204
vt 0.704711 0.640705
vt 0.582984 0.640705
vt 0.704711 0.640705
vt 0.417016 0.640705
vt 0.681719 0.582984
vt 0.681719 0.695609
vt 0.582984 0.695609
vt 0.681719 0.695609
vt 0.681719 0.417016
vt 0.417016 0.695609
vt 0.665869 0.851140
vt 0.582984 0.851140
vt 0.665869 0.851140
vt 0.417016 0.851140
vt 0.591425 0.751250
vt 0.591425 0.582984
vt 0.591425 0.751250
vt 0.591425 0.417016
vt 0.417016 0.916491
vt 0.347758 0.916491
vt 0.347758 0.916491
vt 0.582984 0.916491
vt 0.582984 0.462295
vt 0.295289 0.462295
vt 0.295289 0.462295
vt 0.417016 0.462295
vt 0.364489 0.732370
vt 0.364489 0.582984
vt 0.364489 0.732370
vt 0.364489 0.417016
vt 0.582984 0.229856
vt 0.295289 0.229856
vt 0.295289 0.582984
vt 0.295289 0.229856
vt 0.417016 0.229856
vt 0.295289 0.417016
vt 0.582984 0.000000
vt 0.358898 0.000000
vt 0.358898 0.582984
vt 0.393434 0.975623
vt 0.393434 0.582984
vt 0.582984 0.975623
vt 0.358898 0.000000
vt 0.417016 0.000000
vt 0.358898 0.417016
vt 0.417016 0.975623
vt 0.393434 0.975623
vt 0.393434 0.417016
vt 0.582984 0.229856
vt 0.358898 0.582984
vt 0.358898 0.229856
vt 0.417016 0.229856
vt 0.358898 0.417016
vt 0.358898 0.229856
vt 0.466714 0.000000
vt 0.466714 0.582984
vt 0.582984 0.000000
vt 0.447813 0.995700
vt 0.447813 0.417016
vt 0.417016 0.229856
vt 0.466714 0.417016
vt 0.466714 0.229856
vt 0.447813 0.995700
vt 0.447813 0.582984
vt 0.417016 0.000000
vt 0.466714 0.417016
vt 0.466714 0.000000
vt 0.466714 0.582984
vt 0.582984 0.229856
vt 0.466714 0.229856
vt 0.582984 0.783204
vt 0.367440 0.783204
vt 0.367440 0.582984
vt 0.367440 0.783204
vt 0.367440 0.417016
vt 0.417016 0.783204
vt 0.295289 0.640705
vt 0.582984 0.640705
vt 0.295289 0.640705
vt 0.417016 0.640705
vt 0.318281 0.582984
vt 0.318281 0.695609
vt 0.582984 0.695609
vt 0.318281 0.695609
vt 0.318281 0.417016
vt 0.417016 0.695609
vt 0.334131 0.851140
vt 0.582984 0.851140
vt 0.334131 0.851140
vt 0.417016 0.851140
vt 0.408575 0.751250
vt 0.408575 0.582984
vt 0.408575 0.751250
vt 0.408575 0.417016
s 0
usemtl person.000
f 1/2/1 6/13/1 5/11/1
f 6/14/2 4/9/2 33/85/2
f 4/10/3 34/88/3 33/86/3
f 5/12/4 22/56/4 1/1/4
f 17/42/5 19/47/5 20/50/5
f 2/6/6 22/57/6 24/62/6
f 23/60/4 5/12/4 14/33/4
f 7/15/5 13/30/5 12/26/5
f 19/49/2 7/16/2 12/27/2
f 5/11/1 11/25/1 14/32/1
f 9/20/7 32/83/7 31/79/7
f 6/14/2 9/19/2 31/80/2
f 26/66/8 14/34/8 11/23/8
f 19/48/8 13/31/8 20/51/8
f 26/67/1 25/63/1 23/58/1
f 26/68/2 15/36/2 21/53/2
f 32/82/4 10/21/4 5/12/4
f 26/68/2 6/14/2 19/49/2
f 8/17/4 20/52/4 13/29/4
f 16/40/9 3/7/9 4/10/9
f 15/37/8 25/64/8 21/54/8
f 3/8/4 5/12/4 34/87/4
f 6/14/2 24/61/2 16/39/2
f 6/14/2 2/4/2 24/61/2
f 11/24/2 6/14/2 26/68/2
f 20/52/4 25/65/4 17/41/4
f 20/52/4 5/12/4 23/60/4
f 24/62/10 18/46/10 16/38/10
f 5/12/4 18/45/4 22/56/4
f 36/91/4 28/72/4 5/12/4
f 27/71/11 36/92/11 35/90/11
f 6/14/2 27/70/2 35/89/2
f 8/17/4 30/77/4 5/12/4
f 6/14/2 29/75/2 7/16/2
f 29/76/5 8/18/5 7/15/5
f 30/77/4 32/82/4 5/12/4
f 6/14/2 31/80/2 29/75/2
f 31/81/12 30/78/12 29/76/12
f 28/72/4 34/87/4 5/12/4
f 33/86/13 28/74/13 27/69/13
f 6/14/2 33/85/2 27/70/2
f 6/14/2 35/89/2 9/19/2
f 35/90/14 10/22/14 9/20/14
f 10/21/4 36/91/4 5/12/4
f 6/14/2 38/95/2 46/114/2
f 64/164/15 38/96/15 63/162/15
f 5/12/4 1/1/4 52/132/4
f 49/123/1 47/118/1 50/126/1
f 52/133/16 2/6/16 54/138/16
f 53/136/4 14/33/4 5/12/4
f 44/109/1 39/97/1 43/105/1
f 49/125/2 39/98/2 6/14/2
f 62/159/17 41/102/17 61/155/17
f 6/14/2 61/156/2 41/101/2
f 14/34/8 56/142/8 11/23/8
f 44/110/8 49/124/8 50/127/8
f 55/139/5 56/143/5 53/134/5
f 45/112/2 56/144/2 51/129/2
f 62/158/4 5/12/4 42/103/4
f 56/144/2 49/125/2 6/14/2
f 50/128/4 40/99/4 44/108/4
f 37/93/18 46/116/18 38/96/18
f 55/140/8 45/113/8 51/130/8
f 5/12/4 37/94/4 64/163/4
f 6/14/2 46/114/2 54/137/2
f 6/14/2 54/137/2 2/4/2
f 11/24/2 56/144/2 6/14/2
f 55/141/4 50/128/4 47/117/4
f 50/128/4 53/136/4 5/12/4
f 48/122/19 54/138/19 46/115/19
f 5/12/4 52/132/4 48/121/4
f 66/167/4 5/12/4 58/148/4
f 66/168/20 57/147/20 65/166/20
f 6/14/2 65/165/2 57/146/2
f 40/99/4 5/12/4 60/153/4
f 6/14/2 39/98/2 59/151/2
f 40/100/1 59/152/1 39/97/1
f 60/153/4 5/12/4 62/158/4
f 6/14/2 59/151/2 61/156/2
f 60/154/21 61/157/21 59/152/21
f 58/148/4 5/12/4 64/163/4
f 58/150/22 63/162/22 57/145/22
f 6/14/2 57/146/2 63/161/2
f 6/14/2 41/101/2 65/165/2
f 42/104/23 65/166/23 41/102/23
f 42/103/4 5/12/4 66/167/4
f 1/2/1 2/5/1 6/13/1
f 6/14/2 16/39/2 4/9/2
f 4/10/3 3/7/3 34/88/3
f 17/42/5 15/35/5 19/47/5
f 2/6/6 1/3/6 22/57/6
f 7/15/5 8/18/5 13/30/5
f 19/49/2 6/14/2 7/16/2
f 5/11/1 6/13/1 11/25/1
f 9/20/7 10/22/7 32/83/7
f 26/66/8 23/59/8 14/34/8
f 19/48/8 12/28/8 13/31/8
f 26/67/1 21/55/1 25/63/1
f 26/68/2 19/49/2 15/36/2
f 8/17/4 5/12/4 20/52/4
f 16/40/9 18/44/9 3/7/9
f 15/37/8 17/43/8 25/64/8
f 3/8/4 18/45/4 5/12/4
f 20/52/4 23/60/4 25/65/4
f 24/62/10 22/57/10 18/46/10
f 27/71/11 28/73/11 36/92/11
f 29/76/5 30/78/5 8/18/5
f 31/81/12 32/84/12 30/78/12
f 33/86/13 34/88/13 28/74/13
f 35/90/14 36/92/14 10/22/14
f 6/14/2 63/161/2 38/95/2
f 64/164/15 37/93/15 38/96/15
f 49/123/1 45/111/1 47/118/1
f 52/133/16 1/3/16 2/6/16
f 44/109/1 40/100/1 39/97/1
f 49/125/2 43/106/2 39/98/2
f 62/159/17 42/104/17 41/102/17
f 14/34/8 53/135/8 56/142/8
f 44/110/8 43/107/8 49/124/8
f 55/139/5 51/131/5 56/143/5
f 45/112/2 49/125/2 56/144/2
f 50/128/4 5/12/4 40/99/4
f 37/93/18 48/120/18 46/116/18
f 55/140/8 47/119/8 45/113/8
f 5/12/4 48/121/4 37/94/4
f 55/141/4 53/136/4 50/128/4
f 48/122/19 52/133/19 54/138/19
f 66/168/20 58/149/20 57/147/20
f 40/100/1 60/154/1 59/152/1
f 60/154/21 62/160/21 61/157/21
f 58/150/22 64/164/22 63/162/22
f 42/104/23 66/168/23 65/166/23
